<svg xmlns="http://www.w3.org/2000/svg" viewBox="0 0 2000 1000" role="img" aria-labelledby="title desc">
<title>Alemanha</title>
<desc>Generated world map layer for Modo Turistagem.</desc>
<style>
  path {
    fill: #ff6b00;
    stroke: #ffffff;
    stroke-width: 1;
    vector-effect: non-scaling-stroke;
  }
</style>
<path d="M1061.27,197.85 L1060.91,199.29 L1059.66,198.98 L1059.52,200.14 L1056.49,201.69 L1058.24,204.37 L1057.98,205.51 L1056.77,204.33 L1054.30,203.94 L1054.02,204.69 L1051.42,204.78 L1049.68,205.94 L1045.81,204.86 L1045.86,205.93 L1044.63,206.66 L1043.54,205.07 L1037.05,203.54 L1036.17,204.18 L1037.20,204.39 L1036.99,204.78 L1032.40,204.81 L1032.27,201.60 L1034.95,196.72 L1031.21,195.48 L1028.02,195.56 L1026.18,193.80 L1026.84,191.81 L1024.91,190.33 L1026.14,188.77 L1023.61,184.66 L1024.92,183.88 L1025.15,182.51 L1023.78,180.08 L1027.49,179.49 L1027.16,178.60 L1028.70,177.62 L1028.40,176.34 L1027.01,175.81 L1028.57,175.33 L1029.21,171.75 L1029.97,171.42 L1028.40,170.99 L1029.24,169.32 L1032.86,169.08 L1033.74,170.80 L1033.97,169.63 L1035.26,170.03 L1035.00,170.36 L1035.11,171.10 L1035.32,170.01 L1034.92,169.13 L1035.32,168.15 L1038.13,168.14 L1039.90,169.75 L1041.05,170.03 L1038.97,168.38 L1036.78,167.76 L1036.38,167.19 L1037.19,166.84 L1036.24,166.37 L1036.87,165.58 L1035.23,165.46 L1037.02,164.50 L1035.32,162.27 L1041.12,162.93 L1041.55,164.19 L1040.75,164.68 L1042.10,164.58 L1042.16,165.54 L1042.90,164.86 L1044.81,165.62 L1046.59,165.19 L1045.01,167.12 L1045.65,167.61 L1048.24,167.94 L1049.18,166.51 L1051.11,166.84 L1051.05,166.35 L1052.82,164.60 L1054.58,164.92 L1053.25,164.98 L1052.84,165.27 L1052.43,165.18 L1052.18,165.86 L1055.09,164.91 L1055.52,165.80 L1057.18,166.84 L1058.72,166.80 L1058.48,167.19 L1059.26,167.79 L1058.88,168.11 L1058.89,168.25 L1060.96,168.83 L1062.02,171.71 L1060.78,174.03 L1063.29,175.61 L1062.94,176.74 L1064.08,178.51 L1063.42,180.09 L1065.30,182.23 L1065.32,184.81 L1064.61,185.87 L1062.43,184.56 L1062.77,185.47 L1056.55,188.25 L1054.51,188.34 L1053.63,189.67 L1053.31,189.11 L1052.53,188.77 L1054.78,191.17 L1054.19,192.12 L1055.52,193.95 L1061.27,197.85 Z M1060.62,167.76 L1059.00,168.26 L1059.87,167.37 L1058.61,167.27 L1058.76,166.82 L1058.49,166.46 L1060.62,167.76 Z M1027.26,169.59 L1027.15,169.92 L1026.70,169.71 L1027.26,169.59 Z M1027.65,169.29 L1028.43,169.16 L1028.60,169.20 L1027.65,169.29 Z M1029.00,169.12 L1029.26,168.96 L1029.77,169.00 L1029.00,169.12 Z M1030.11,169.01 L1030.02,168.92 L1030.17,168.97 L1030.11,169.01 Z M1033.40,169.05 L1033.40,168.90 L1033.60,168.97 L1033.40,169.05 Z M1030.34,168.95 L1030.93,168.77 L1031.03,168.84 L1030.34,168.95 Z M1031.57,168.78 L1031.29,168.66 L1031.86,168.65 L1031.57,168.78 Z M1032.50,168.65 L1032.06,168.61 L1032.31,168.58 L1032.50,168.65 Z M1048.21,167.63 L1048.05,167.27 L1048.37,167.27 L1048.21,167.63 Z M1048.54,167.08 L1048.51,166.92 L1048.86,166.76 L1048.54,167.08 Z M1036.27,164.42 L1036.48,164.72 L1036.14,164.64 L1036.27,164.42 Z M1046.46,164.33 L1047.38,165.03 L1045.97,164.72 L1046.46,164.33 Z M1055.31,163.98 L1055.39,164.04 L1055.19,164.72 L1055.31,163.98 Z M1056.68,163.45 L1058.41,165.42 L1058.25,165.81 L1056.22,165.93 L1055.52,164.29 L1057.18,164.60 L1056.00,164.16 L1056.68,163.45 Z M1033.93,163.78 L1034.16,163.74 L1034.25,163.77 L1033.93,163.78 Z M1034.19,163.30 L1035.08,163.23 L1034.97,163.46 L1034.19,163.30 Z M1034.39,161.38 L1034.11,162.28 L1035.30,162.28 L1033.75,162.44 L1033.69,163.15 L1033.70,162.17 L1034.00,161.47 L1034.18,161.30 L1034.39,161.38 Z M1035.32,164.29 L1035.60,164.20 L1035.27,164.58 L1035.32,164.29 Z M1032.11,166.29 L1032.13,166.38 L1032.04,166.29 L1032.11,166.29 Z M1032.21,166.33 L1032.26,166.28 L1032.28,166.31 L1032.21,166.33 Z"/>
</svg>
