<svg xmlns="http://www.w3.org/2000/svg" viewBox="0 0 2000 1000" role="img" aria-labelledby="title desc">
<title>Argentina</title>
<desc>Generated world map layer for Modo Turistagem.</desc>
<style>
  path {
    fill: #ff6b00;
    stroke: #ffffff;
    stroke-width: 1;
    vector-effect: non-scaling-stroke;
  }
</style>
<path d="M645.61,630.10 L647.61,626.49 L649.76,625.59 L650.03,623.84 L652.73,625.82 L658.79,626.38 L660.62,630.40 L662.07,625.17 L668.04,625.15 L673.10,631.39 L678.54,636.05 L683.74,637.27 L690.62,641.93 L696.37,644.37 L697.56,646.70 L695.01,650.43 L695.22,653.27 L693.16,656.33 L693.54,657.29 L696.51,656.95 L701.04,658.33 L704.29,658.13 L705.15,658.93 L706.35,657.19 L708.38,658.07 L709.79,655.26 L711.20,655.10 L712.76,653.23 L713.02,646.76 L713.89,647.45 L715.49,646.27 L716.65,647.09 L718.36,650.90 L718.12,656.33 L716.38,656.85 L715.95,657.97 L713.35,658.57 L712.44,660.53 L708.91,662.84 L709.45,663.85 L708.34,663.72 L700.10,676.87 L700.89,678.79 L700.07,682.47 L700.54,684.41 L699.86,685.00 L701.39,692.00 L700.01,692.31 L700.08,695.96 L701.50,698.88 L700.65,699.49 L702.37,701.72 L708.45,705.30 L709.28,706.46 L708.74,709.76 L710.39,711.54 L712.59,712.23 L713.35,715.24 L710.46,720.90 L710.49,722.64 L707.15,724.88 L700.36,726.96 L692.09,728.00 L687.60,726.65 L688.46,729.47 L690.14,730.20 L688.75,729.80 L690.15,730.79 L690.36,732.98 L689.41,732.81 L689.27,735.80 L690.64,737.97 L691.30,737.72 L690.93,739.19 L687.87,740.84 L685.11,740.92 L678.22,738.90 L678.62,738.30 L677.17,739.01 L679.95,746.51 L682.78,747.48 L682.48,748.48 L683.29,748.63 L684.92,748.51 L684.81,747.57 L683.44,747.37 L685.94,746.42 L687.76,749.50 L687.67,750.75 L685.70,751.24 L683.69,749.05 L681.23,749.87 L681.21,750.65 L684.93,751.82 L682.29,753.37 L681.19,755.90 L683.03,760.09 L681.41,762.73 L682.62,763.46 L682.06,764.24 L679.49,763.82 L677.91,764.69 L678.36,765.15 L676.50,765.39 L674.83,769.76 L676.71,773.17 L680.36,775.62 L685.91,776.94 L686.50,780.12 L685.62,780.10 L684.18,780.83 L686.29,780.28 L687.31,781.33 L686.51,781.29 L686.91,782.31 L682.44,785.61 L681.09,787.62 L680.59,789.75 L681.39,789.08 L681.65,793.37 L679.84,794.08 L677.59,791.97 L677.13,791.79 L678.33,792.96 L676.48,793.43 L678.39,793.22 L679.87,794.26 L677.85,795.32 L677.96,798.67 L677.12,799.72 L677.99,799.10 L680.30,802.49 L678.39,802.47 L677.46,802.87 L680.39,802.84 L684.81,806.82 L684.70,807.31 L676.84,805.09 L667.55,804.88 L664.29,802.45 L664.40,800.66 L662.75,797.18 L658.96,797.77 L655.15,792.99 L656.64,790.78 L655.40,787.87 L657.00,786.46 L656.37,784.30 L657.43,783.60 L655.33,781.14 L655.18,778.40 L656.98,776.89 L655.75,774.63 L656.73,773.90 L654.52,770.71 L655.58,769.63 L654.02,767.27 L655.63,765.65 L650.84,762.57 L654.66,762.65 L655.00,761.18 L651.11,760.16 L650.57,758.55 L651.16,757.47 L648.76,754.59 L649.28,753.07 L646.93,751.93 L645.60,747.68 L645.88,746.70 L647.13,746.46 L643.48,738.28 L644.13,735.90 L643.19,735.21 L643.67,733.41 L642.64,731.55 L643.68,731.55 L643.00,727.39 L644.98,726.41 L645.22,725.31 L642.07,720.14 L640.65,714.90 L640.86,712.76 L642.38,712.34 L642.19,711.44 L643.50,710.19 L642.26,705.95 L641.36,705.36 L642.19,704.80 L642.60,699.51 L643.68,699.16 L642.72,693.99 L640.81,692.72 L640.97,690.95 L636.06,681.43 L636.26,680.17 L637.28,679.81 L636.96,675.74 L638.04,675.80 L638.45,674.52 L637.61,673.97 L636.43,669.28 L637.43,668.08 L637.47,663.84 L639.41,661.14 L640.55,656.11 L642.99,655.65 L641.08,652.10 L641.78,650.20 L640.16,645.92 L641.15,644.03 L639.81,641.89 L641.22,639.56 L645.65,637.23 L646.67,631.18 L645.61,630.10 Z M690.28,821.63 L689.88,821.49 L689.74,821.18 L690.28,821.63 Z M689.70,821.09 L684.42,808.75 L686.52,810.33 L687.38,811.43 L686.60,810.93 L686.24,812.21 L688.49,812.82 L692.31,816.07 L698.58,819.27 L705.02,820.31 L704.73,821.91 L701.96,821.77 L700.17,822.62 L689.70,821.09 Z M710.83,820.78 L707.96,821.78 L707.16,821.26 L707.87,820.70 L710.83,820.78 Z M690.31,728.85 L690.70,729.37 L689.33,728.46 L690.31,728.85 Z M689.73,728.32 L689.10,727.95 L689.92,728.22 L689.73,728.32 Z M691.02,736.20 L691.78,736.68 L691.55,737.34 L690.84,737.01 L691.02,736.20 Z M690.83,735.04 L691.40,735.00 L691.64,736.02 L690.83,735.04 Z"/>
</svg>
