<svg xmlns="http://www.w3.org/2000/svg" viewBox="0 0 2000 1000" role="img" aria-labelledby="title desc">
<title>Brasil</title>
<desc>Generated world map layer for Modo Turistagem.</desc>
<style>
  path {
    fill: #ff6b00;
    stroke: #ffffff;
    stroke-width: 1;
    vector-effect: non-scaling-stroke;
  }
</style>
<path d="M701.22,674.69 L708.34,663.72 L709.45,663.85 L708.91,662.84 L712.44,660.53 L713.35,658.57 L715.95,657.97 L716.38,656.85 L718.12,656.33 L718.36,650.90 L716.65,647.09 L715.49,646.27 L713.89,647.45 L713.02,646.76 L713.93,637.54 L711.74,636.05 L709.12,637.33 L707.75,636.95 L705.95,628.99 L704.52,626.88 L702.67,626.79 L701.55,625.59 L699.32,626.90 L693.29,625.58 L693.57,618.79 L691.37,614.02 L692.85,612.90 L691.33,611.39 L694.02,602.24 L691.92,598.10 L688.62,596.31 L687.92,592.96 L688.48,590.57 L678.85,590.42 L678.03,585.66 L676.08,583.37 L677.73,583.27 L676.12,575.49 L672.94,573.48 L668.79,573.94 L667.16,571.57 L663.52,570.67 L661.88,568.56 L660.61,568.86 L657.95,567.37 L655.39,567.62 L651.44,564.59 L649.12,560.24 L649.49,558.38 L648.53,555.34 L649.33,553.76 L648.58,550.62 L647.63,551.53 L646.51,550.90 L642.02,551.95 L636.52,556.78 L634.80,556.55 L631.90,559.24 L627.70,558.17 L621.10,558.63 L621.21,549.07 L617.26,552.47 L612.50,552.55 L611.73,549.68 L606.89,548.94 L608.03,546.37 L604.85,542.58 L603.44,540.05 L603.78,539.13 L602.09,537.65 L602.23,536.52 L603.66,536.20 L603.31,533.68 L606.48,531.19 L605.93,528.78 L607.22,526.20 L607.43,523.06 L612.71,519.34 L617.70,518.54 L619.38,516.90 L621.07,517.07 L621.77,518.28 L623.01,517.97 L625.70,499.16 L624.50,495.17 L622.09,492.97 L622.18,488.44 L625.26,487.57 L627.08,488.07 L626.29,485.72 L623.28,485.59 L623.30,481.67 L632.35,481.58 L631.73,480.93 L632.22,479.81 L633.60,481.46 L636.33,479.06 L637.94,481.65 L638.07,484.88 L639.20,484.60 L642.33,487.49 L646.02,486.05 L646.53,488.01 L648.48,485.18 L652.40,482.88 L652.69,483.73 L654.42,480.34 L658.00,478.28 L657.95,477.35 L654.41,477.05 L653.71,470.25 L650.67,466.07 L651.72,467.08 L654.09,467.13 L654.64,468.51 L658.31,468.04 L660.72,470.45 L661.48,469.85 L661.45,467.67 L663.27,466.69 L666.15,466.89 L669.26,464.64 L671.07,464.56 L673.19,462.05 L672.44,460.52 L675.26,460.13 L676.46,461.22 L675.44,464.60 L677.94,465.49 L677.64,466.57 L678.73,468.16 L676.89,470.33 L676.11,474.71 L676.49,477.61 L677.40,478.30 L677.27,480.73 L681.97,484.75 L683.86,484.33 L684.94,482.31 L686.28,482.87 L686.74,481.97 L689.01,481.66 L690.32,480.04 L697.61,480.79 L697.81,479.59 L696.61,478.35 L697.57,476.69 L698.88,477.50 L702.98,476.21 L704.32,477.93 L707.35,479.23 L709.34,477.67 L713.63,478.84 L715.63,476.84 L716.95,472.93 L721.18,466.38 L721.94,468.22 L721.57,465.13 L723.29,467.32 L723.30,469.92 L723.84,468.51 L724.09,473.63 L725.82,478.86 L725.27,479.47 L726.13,479.26 L726.93,481.01 L729.68,481.58 L730.02,484.09 L728.59,484.61 L729.99,484.89 L726.95,487.98 L725.14,490.97 L722.27,492.48 L719.06,500.11 L714.94,501.68 L717.23,501.19 L717.64,502.23 L724.89,497.52 L724.28,498.83 L725.92,502.52 L724.72,503.21 L724.92,503.83 L726.16,502.98 L727.22,504.54 L729.55,503.05 L730.44,504.76 L730.25,503.51 L731.61,504.17 L731.27,503.47 L732.51,502.76 L732.36,503.04 L732.34,503.23 L732.74,504.05 L731.28,508.20 L734.94,501.68 L735.52,501.43 L734.59,503.17 L736.58,500.37 L737.81,502.06 L737.51,501.15 L738.35,500.90 L737.44,500.84 L737.50,499.75 L738.30,499.95 L739.86,496.00 L740.27,496.73 L741.12,496.18 L741.08,495.42 L741.52,496.58 L742.15,496.20 L742.28,495.50 L742.76,496.63 L743.31,496.92 L742.94,495.59 L743.84,495.59 L744.67,496.83 L744.99,496.03 L745.11,497.25 L745.58,496.21 L745.83,497.05 L745.61,497.23 L745.70,497.45 L746.38,496.31 L746.76,497.71 L747.56,497.25 L747.45,497.66 L747.19,497.58 L746.82,497.96 L746.76,498.16 L748.47,497.26 L748.23,498.33 L749.44,498.62 L749.69,497.49 L749.37,499.16 L750.22,498.49 L750.50,499.32 L750.88,498.38 L751.05,499.57 L751.47,498.44 L751.31,499.61 L751.79,500.03 L752.26,498.87 L752.51,500.27 L753.90,499.79 L753.23,501.02 L753.67,501.36 L754.38,499.94 L754.41,502.56 L755.26,500.97 L756.31,501.65 L756.83,500.60 L756.49,502.02 L757.00,501.48 L757.09,502.65 L757.70,502.39 L757.16,502.97 L758.29,502.56 L758.89,504.03 L758.20,504.34 L758.86,504.38 L757.11,505.79 L757.96,505.74 L757.67,506.54 L758.04,506.70 L759.04,504.98 L759.58,506.12 L758.03,507.69 L758.65,507.36 L757.34,511.97 L759.25,509.85 L759.97,507.01 L761.34,506.61 L759.69,509.01 L760.55,508.70 L760.49,509.36 L761.94,507.41 L762.19,507.94 L764.00,506.74 L764.46,507.45 L764.59,506.15 L770.96,509.15 L773.10,508.52 L776.29,510.25 L776.21,509.40 L783.00,509.24 L791.13,514.37 L798.15,521.72 L801.58,523.03 L807.10,523.13 L808.67,525.78 L811.13,535.42 L810.45,537.72 L811.12,538.13 L810.59,538.80 L810.81,538.70 L810.67,538.97 L810.67,539.23 L811.12,540.00 L808.66,547.63 L806.65,550.53 L806.09,550.00 L805.80,550.91 L805.53,550.24 L805.22,550.16 L805.72,551.03 L806.11,550.82 L803.00,555.55 L800.41,557.19 L799.23,559.32 L798.48,558.70 L799.18,559.70 L798.26,561.11 L797.87,560.98 L798.54,560.07 L798.38,559.74 L797.51,560.73 L797.42,561.69 L798.11,561.32 L796.66,564.92 L793.32,570.27 L792.22,570.77 L792.27,568.99 L791.27,568.07 L790.72,569.67 L790.39,568.57 L790.08,569.07 L790.47,569.77 L791.17,569.90 L789.50,573.09 L790.04,575.72 L789.42,574.98 L789.12,575.12 L789.97,575.89 L789.56,576.08 L790.10,577.09 L789.62,577.18 L789.62,577.57 L789.81,577.78 L789.67,577.38 L790.22,577.12 L790.32,576.10 L790.38,576.74 L789.80,580.80 L791.23,587.94 L789.81,595.85 L790.36,598.98 L787.81,602.58 L787.61,610.62 L786.40,611.60 L785.50,614.64 L784.77,614.43 L784.98,616.05 L782.09,620.52 L781.56,622.24 L782.26,625.05 L777.28,628.37 L777.87,629.68 L777.22,631.07 L771.90,631.02 L771.54,629.15 L770.56,629.65 L770.92,631.15 L766.87,631.73 L768.92,631.22 L767.59,630.53 L763.45,631.44 L763.96,633.32 L761.59,633.63 L759.76,634.92 L759.79,636.20 L757.47,635.76 L755.39,637.36 L755.23,637.33 L755.43,637.12 L755.28,636.78 L754.81,636.46 L754.48,636.78 L754.93,637.38 L752.13,638.88 L746.74,643.50 L747.48,644.24 L746.15,646.05 L746.48,644.97 L745.45,645.45 L745.42,644.66 L744.75,644.78 L744.80,646.16 L743.32,645.41 L743.57,646.28 L745.43,646.73 L744.66,648.40 L743.49,648.53 L744.55,648.52 L744.60,650.44 L743.89,650.69 L743.47,649.74 L743.60,651.18 L744.67,651.97 L745.10,656.01 L745.82,656.31 L745.13,656.82 L745.83,660.59 L745.26,664.38 L744.58,663.53 L745.32,664.63 L740.58,670.17 L737.24,679.86 L731.35,686.65 L730.98,684.60 L732.28,684.76 L734.94,682.40 L735.02,680.06 L736.02,680.38 L735.80,678.94 L737.12,677.93 L736.64,675.73 L737.53,676.26 L737.06,674.66 L735.61,676.15 L733.48,673.58 L733.44,674.89 L734.76,675.67 L734.03,676.33 L734.21,678.27 L733.54,677.42 L733.59,680.08 L731.15,681.60 L731.21,683.50 L730.75,682.97 L730.23,684.07 L730.32,685.97 L731.20,685.84 L731.28,686.65 L728.71,693.65 L726.31,696.18 L725.58,695.87 L724.97,692.30 L726.63,690.01 L724.07,688.36 L722.68,685.97 L717.78,682.37 L714.31,681.07 L712.15,678.67 L710.23,680.09 L709.95,678.37 L705.10,674.15 L703.84,674.18 L703.15,675.31 L701.22,674.69 Z M789.60,573.44 L790.39,573.41 L790.42,574.73 L789.60,573.44 Z M791.31,569.94 L791.92,570.59 L790.90,571.48 L791.31,569.94 Z M758.98,508.36 L758.91,509.85 L758.38,510.52 L758.98,508.36 Z M771.74,508.21 L771.78,508.69 L771.24,508.20 L771.74,508.21 Z M763.04,505.85 L763.48,506.52 L762.95,506.64 L763.04,505.85 Z M732.88,502.42 L732.81,503.47 L732.41,503.30 L732.88,502.42 Z M756.26,499.63 L756.73,500.03 L756.02,500.34 L756.26,499.63 Z M737.59,499.00 L738.49,498.83 L738.05,499.37 L737.59,499.00 Z M739.03,496.96 L738.99,498.12 L738.43,498.18 L738.40,497.77 L739.03,496.96 Z M740.16,496.09 L740.67,496.05 L740.27,496.42 L740.16,496.09 Z M724.99,495.75 L724.87,496.33 L723.50,497.00 L723.67,496.09 L724.99,495.75 Z M741.34,495.48 L741.97,496.19 L741.66,496.29 L741.34,495.48 Z M723.03,495.71 L722.57,498.20 L719.09,500.90 L721.17,495.84 L722.38,495.14 L723.03,495.71 Z M723.14,492.85 L723.13,493.85 L721.92,494.82 L722.61,493.33 L723.14,492.85 Z M737.77,493.57 L736.64,498.56 L735.16,498.91 L735.64,500.57 L735.05,499.84 L734.79,499.82 L735.61,500.77 L734.40,501.27 L733.69,500.40 L733.57,501.81 L731.91,501.06 L731.78,502.43 L731.09,502.71 L730.78,501.56 L730.62,502.94 L729.26,502.02 L728.59,502.76 L728.02,500.98 L727.26,503.08 L725.11,500.68 L725.15,498.57 L726.40,499.16 L726.84,498.29 L725.15,498.16 L725.43,495.34 L725.72,495.87 L726.44,496.10 L725.65,494.18 L727.40,492.64 L737.77,493.57 Z M724.16,493.76 L724.30,492.07 L725.86,492.14 L725.75,492.93 L724.16,493.76 Z M730.26,492.62 L732.06,491.48 L732.85,492.06 L732.23,492.77 L730.26,492.62 Z M726.37,492.02 L726.75,491.04 L727.03,492.00 L726.37,492.02 Z M728.76,489.95 L728.48,490.42 L728.19,490.51 L728.76,489.95 Z M728.79,490.66 L731.24,489.66 L731.88,489.86 L730.08,492.06 L727.64,491.84 L727.35,490.74 L728.79,490.66 Z M727.67,490.13 L726.60,490.74 L727.41,488.25 L727.67,490.13 Z M727.70,489.49 L727.99,488.46 L729.02,488.08 L729.14,488.91 L727.70,489.49 Z M728.82,487.43 L728.17,486.80 L729.24,486.53 L728.82,487.43 Z M729.58,486.11 L728.85,486.20 L729.78,485.53 L729.58,486.11 Z M727.01,479.23 L727.75,480.09 L727.19,480.73 L726.64,479.89 L727.01,479.23 Z M726.78,479.25 L726.97,478.77 L727.23,479.13 L726.78,479.25 Z M842.86,616.47 L842.70,616.42 L842.71,616.36 L842.86,616.47 Z M845.15,616.14 L845.14,616.12 L845.16,616.12 L845.15,616.14 Z M746.20,657.83 L746.46,658.89 L745.87,660.34 L745.71,658.26 L746.20,657.83 Z M745.16,650.76 L744.10,651.22 L744.82,650.34 L745.16,650.76 Z M747.81,642.75 L749.68,641.38 L747.52,643.50 L747.81,642.75 Z M754.79,636.75 L755.35,637.17 L754.66,636.91 L754.79,636.75 Z M760.93,636.66 L759.72,636.70 L760.31,635.54 L760.79,635.85 L760.93,636.66 Z M766.39,632.08 L765.24,632.52 L765.01,632.18 L765.65,631.59 L766.39,632.08 Z M823.40,515.30 L823.60,515.37 L823.26,515.47 L823.40,515.30 Z M839.43,486.95 L839.72,486.66 L839.71,486.91 L839.43,486.95 Z M745.46,645.85 L745.85,645.39 L745.75,646.24 L745.46,645.85 Z M810.72,539.22 L811.04,538.83 L810.93,539.28 L810.72,539.22 Z M770.90,508.56 L771.44,508.55 L771.67,508.78 L770.90,508.56 Z M762.40,507.17 L762.79,506.70 L762.76,507.10 L762.40,507.17 Z M763.60,506.43 L763.97,506.35 L763.80,506.66 L763.60,506.43 Z M731.95,502.12 L732.49,502.27 L732.05,502.56 L731.95,502.12 Z"/>
</svg>
