<svg xmlns="http://www.w3.org/2000/svg" viewBox="0 0 2000 1000" role="img" aria-labelledby="title desc">
<title>Chile</title>
<desc>Generated world map layer for Modo Turistagem.</desc>
<style>
  path {
    fill: #ff6b00;
    stroke: #ffffff;
    stroke-width: 1;
    vector-effect: non-scaling-stroke;
  }
</style>
<path d="M630.17,597.94 L631.54,600.78 L632.74,601.16 L633.78,606.65 L636.92,609.60 L635.75,611.30 L636.73,612.54 L635.52,613.67 L635.86,615.57 L637.48,616.80 L637.27,618.55 L639.32,620.80 L641.98,630.08 L645.61,630.10 L646.67,631.18 L645.56,637.41 L641.22,639.56 L639.81,641.89 L641.15,644.03 L640.16,645.92 L641.78,650.20 L641.08,652.10 L642.99,655.65 L640.55,656.11 L639.41,661.14 L637.47,663.84 L637.43,668.08 L636.43,669.28 L637.61,673.97 L638.45,674.52 L638.04,675.80 L636.96,675.74 L637.28,679.81 L636.26,680.17 L636.06,681.43 L640.97,690.95 L640.81,692.72 L642.72,693.99 L643.68,699.16 L642.60,699.51 L642.19,704.80 L641.36,705.36 L642.26,705.95 L643.50,710.19 L642.19,711.44 L642.38,712.34 L640.86,712.76 L640.65,714.90 L642.07,720.14 L645.22,725.31 L644.98,726.41 L643.00,727.39 L643.68,731.55 L642.64,731.55 L643.67,733.41 L643.19,735.21 L644.13,735.90 L643.48,738.28 L647.13,746.46 L645.88,746.70 L645.60,747.68 L646.93,751.93 L649.28,753.07 L648.76,754.59 L651.16,757.47 L650.57,758.55 L651.11,760.16 L655.00,761.18 L654.66,762.65 L650.84,762.57 L655.53,765.45 L655.19,766.83 L654.02,767.27 L655.58,769.63 L654.52,770.71 L656.73,773.90 L655.75,774.63 L656.95,777.04 L656.19,776.90 L655.18,778.40 L655.33,781.14 L657.43,783.60 L656.32,784.64 L657.06,786.30 L655.57,787.47 L655.66,789.31 L654.17,789.39 L654.13,790.64 L655.73,794.05 L658.96,797.77 L662.75,797.18 L664.40,800.66 L664.29,802.45 L667.55,804.88 L676.84,805.09 L684.44,806.85 L680.60,806.22 L679.40,808.12 L674.45,809.22 L676.60,815.19 L675.53,815.94 L671.32,814.81 L669.01,813.18 L669.35,812.24 L670.68,813.27 L670.54,812.26 L671.24,812.14 L672.10,813.38 L671.40,814.03 L672.19,813.84 L672.31,813.50 L671.75,812.12 L673.80,810.37 L672.04,809.26 L672.30,809.86 L670.23,811.56 L668.78,811.01 L667.65,811.29 L669.60,811.88 L667.91,812.67 L669.75,813.93 L664.50,811.72 L667.50,812.52 L665.19,809.82 L665.95,809.50 L666.06,809.15 L666.42,810.08 L667.68,810.01 L668.38,808.82 L671.47,808.79 L670.83,808.30 L667.36,808.04 L667.21,808.83 L666.46,808.47 L666.97,807.99 L664.82,807.96 L664.75,809.13 L666.05,808.83 L664.98,809.92 L665.70,811.15 L664.84,811.44 L663.36,810.76 L664.20,810.19 L662.38,809.66 L663.86,809.62 L663.74,807.91 L664.59,807.92 L663.10,807.54 L663.40,808.95 L662.49,808.20 L662.72,808.73 L661.54,809.18 L661.85,807.80 L659.61,805.22 L662.07,806.33 L663.07,805.42 L663.13,806.42 L664.18,806.53 L663.63,804.68 L665.58,806.33 L664.35,807.64 L666.21,807.64 L665.85,806.23 L664.30,804.82 L665.14,804.64 L664.80,803.82 L663.29,802.68 L661.08,801.67 L660.42,801.94 L664.33,803.64 L663.74,804.11 L660.61,802.76 L662.38,803.82 L661.76,803.56 L661.64,804.34 L662.90,804.22 L662.10,805.58 L660.70,803.46 L660.24,803.03 L661.98,806.01 L661.43,805.83 L659.48,804.05 L661.10,805.14 L659.99,803.23 L659.14,803.80 L657.79,802.83 L657.26,801.37 L659.14,802.87 L657.54,800.04 L656.85,800.62 L655.95,799.88 L656.07,800.47 L655.34,798.96 L654.75,799.39 L654.77,798.49 L656.59,799.00 L656.07,797.25 L657.40,797.32 L655.96,796.66 L656.32,796.22 L656.22,795.75 L655.70,796.40 L656.00,797.82 L655.14,798.19 L653.12,796.20 L655.21,796.56 L654.14,795.52 L653.23,795.96 L652.66,794.94 L652.16,795.48 L650.55,794.46 L651.93,793.89 L653.06,794.91 L654.69,795.08 L651.61,793.33 L654.04,793.84 L653.42,792.55 L653.08,793.18 L651.51,792.63 L652.34,791.71 L650.97,791.07 L652.44,790.77 L654.07,792.11 L654.11,791.75 L651.38,790.01 L651.23,789.06 L651.90,789.46 L652.50,789.58 L650.95,788.01 L651.82,787.71 L650.72,787.60 L651.19,790.59 L649.89,789.78 L648.42,786.39 L650.09,786.00 L648.19,785.23 L648.82,784.43 L650.06,785.16 L650.11,784.06 L648.17,783.62 L647.66,782.89 L646.47,782.17 L646.53,781.80 L645.74,781.66 L647.10,781.76 L648.23,783.00 L647.19,781.58 L649.82,781.80 L651.31,783.09 L652.21,782.93 L652.38,782.45 L652.23,782.11 L651.39,782.36 L650.07,781.04 L650.94,781.51 L652.31,781.66 L650.16,780.83 L648.93,778.85 L648.68,780.71 L644.57,779.98 L645.04,778.98 L646.23,779.49 L645.73,779.86 L647.16,780.20 L646.65,779.46 L647.59,779.33 L644.91,778.28 L645.39,777.03 L647.13,777.24 L646.78,775.90 L645.47,774.72 L643.04,774.11 L643.68,774.45 L642.92,774.84 L643.96,775.15 L642.97,775.04 L642.07,774.36 L641.14,774.27 L640.78,772.40 L639.94,773.54 L638.93,773.56 L638.29,773.88 L638.06,774.35 L639.08,774.04 L639.62,775.33 L638.35,774.98 L637.59,773.69 L639.23,771.58 L639.77,771.86 L640.12,771.83 L639.55,771.09 L641.03,771.06 L640.72,768.76 L642.15,769.90 L642.11,768.56 L643.43,768.84 L643.77,770.62 L643.94,769.69 L644.59,770.31 L643.32,771.29 L642.35,770.93 L643.21,771.35 L644.45,770.94 L644.60,771.72 L645.75,771.83 L644.62,771.02 L645.14,770.65 L646.04,771.71 L645.53,773.13 L646.26,773.33 L647.45,769.96 L646.45,771.72 L646.00,768.80 L647.44,767.86 L646.66,767.54 L645.75,768.50 L645.43,766.55 L646.47,765.65 L647.79,766.51 L648.61,766.35 L645.19,765.18 L645.77,764.73 L645.02,763.71 L646.26,763.56 L647.73,762.43 L647.83,760.92 L647.52,759.94 L647.22,760.90 L644.53,758.78 L643.72,758.64 L644.47,758.42 L644.32,756.55 L645.30,756.76 L644.00,756.21 L644.50,755.57 L643.04,753.83 L643.50,752.05 L644.25,752.41 L642.63,749.10 L644.16,749.30 L642.12,747.62 L643.15,747.04 L644.50,748.59 L643.38,745.81 L641.18,745.42 L643.53,743.85 L643.08,742.39 L642.27,744.21 L640.06,742.86 L639.41,744.66 L636.61,744.45 L636.70,743.78 L637.34,743.61 L637.44,743.02 L636.00,743.29 L634.19,739.79 L633.45,733.76 L634.97,733.35 L634.53,729.10 L631.82,725.05 L629.05,717.97 L629.10,716.81 L631.09,716.84 L630.48,714.52 L630.64,713.44 L631.46,714.08 L631.27,709.70 L632.04,708.45 L631.41,707.22 L632.83,704.49 L632.48,698.60 L633.64,695.53 L632.33,692.31 L633.17,691.71 L633.17,687.98 L629.36,677.26 L629.30,675.00 L630.45,674.61 L630.67,672.63 L628.42,667.12 L630.19,659.14 L629.49,656.36 L630.43,651.39 L629.41,648.30 L630.53,645.37 L629.15,640.40 L629.44,634.67 L628.14,634.31 L628.18,631.54 L628.91,631.71 L629.48,630.58 L629.72,621.70 L626.01,602.97 L628.19,602.44 L629.01,600.81 L628.49,599.05 L630.17,597.94 Z M689.74,821.18 L688.26,821.09 L689.56,821.73 L688.23,822.03 L685.31,821.31 L685.06,820.57 L684.27,821.31 L683.49,820.48 L683.84,821.36 L682.75,821.51 L682.29,820.55 L682.13,821.38 L680.04,821.31 L680.97,820.60 L680.99,820.12 L679.02,821.05 L678.94,820.13 L677.58,820.48 L677.45,819.64 L676.72,820.54 L674.50,820.31 L673.91,819.17 L675.59,819.88 L674.38,818.98 L675.92,819.53 L675.43,818.95 L676.45,818.74 L678.04,819.53 L677.59,819.09 L678.46,819.29 L678.56,818.42 L679.74,818.54 L679.45,819.05 L679.73,820.04 L680.32,820.04 L679.99,818.84 L682.43,819.72 L677.71,817.25 L682.10,819.05 L681.54,818.44 L682.11,818.07 L684.04,819.78 L682.96,818.21 L684.83,819.13 L684.73,818.56 L686.26,819.26 L685.82,820.17 L686.15,820.51 L686.55,819.20 L687.32,819.28 L681.58,817.10 L680.21,815.22 L683.28,813.84 L683.07,813.08 L679.34,813.54 L677.99,812.93 L677.21,810.90 L678.13,811.19 L678.45,810.32 L676.58,809.44 L679.10,809.96 L680.37,807.66 L682.20,809.01 L683.51,808.22 L684.42,808.75 L689.74,821.18 Z M587.96,696.33 L587.55,696.14 L587.65,695.84 L587.96,696.33 Z M596.89,695.18 L597.63,695.59 L596.47,695.67 L596.89,695.18 Z M430.56,655.74 L431.36,656.16 L430.39,656.56 L430.56,655.74 Z M450.02,652.14 L449.95,652.10 L449.99,652.10 L450.02,652.14 Z M582.34,651.50 L582.43,651.46 L582.44,651.48 L582.34,651.50 Z M581.28,650.94 L581.31,650.99 L581.23,650.99 L581.28,650.94 Z M698.04,826.95 L698.86,827.44 L697.84,827.08 L698.04,826.95 Z M699.04,827.31 L699.54,827.48 L699.53,827.52 L699.04,827.31 Z M697.00,826.90 L697.15,827.56 L695.64,827.10 L697.00,826.90 Z M698.59,826.88 L698.66,826.64 L698.85,826.77 L698.59,826.88 Z M698.39,826.68 L696.81,826.41 L697.54,826.32 L697.20,825.68 L698.39,826.68 Z M695.75,825.21 L696.45,825.67 L695.90,825.87 L695.75,825.21 Z M685.95,824.23 L686.68,824.41 L686.83,824.54 L685.95,824.23 Z M684.70,823.95 L685.15,824.47 L684.47,824.00 L684.70,823.95 Z M698.19,823.63 L698.70,824.24 L697.95,823.85 L698.19,823.63 Z M700.07,823.26 L700.21,823.94 L699.80,823.76 L700.07,823.26 Z M697.46,822.28 L698.73,822.97 L697.30,822.33 L697.46,822.28 Z M694.73,825.91 L691.42,824.66 L690.57,825.21 L690.03,823.40 L689.40,823.84 L688.49,823.17 L688.80,823.72 L687.92,823.05 L687.12,823.25 L689.27,825.26 L685.94,824.07 L686.88,823.33 L684.44,823.17 L686.15,822.56 L686.46,823.21 L686.39,822.51 L691.00,821.98 L691.79,822.68 L690.76,823.20 L688.50,822.58 L692.86,823.83 L691.69,824.11 L690.84,823.80 L690.49,823.88 L693.50,824.64 L694.73,825.91 Z M694.26,823.72 L694.89,823.68 L693.08,823.58 L691.34,821.93 L696.06,821.92 L697.68,823.09 L697.15,824.08 L695.78,823.31 L695.36,823.82 L694.26,823.72 Z M683.10,822.80 L682.31,823.55 L679.58,822.13 L682.35,821.72 L680.95,822.35 L683.10,822.80 Z M684.62,822.31 L684.28,821.68 L685.38,822.02 L685.06,821.55 L687.81,822.07 L684.62,822.31 Z M681.91,821.45 L681.34,821.74 L680.51,821.56 L681.05,821.37 L681.91,821.45 Z M679.62,821.92 L678.05,822.07 L677.36,821.64 L678.55,821.37 L679.62,821.92 Z M674.15,820.21 L674.62,820.91 L673.85,820.29 L674.15,820.21 Z M671.55,818.34 L671.63,819.05 L671.08,818.57 L671.55,818.34 Z M679.71,817.60 L680.80,817.68 L681.21,818.01 L679.71,817.60 Z M670.83,817.76 L672.07,817.44 L671.85,818.07 L670.83,817.76 Z M666.56,816.73 L667.65,817.33 L666.17,817.01 L666.56,816.73 Z M674.79,817.93 L674.33,816.26 L676.60,817.66 L677.20,817.09 L677.61,818.76 L675.52,817.23 L674.79,817.93 Z M674.25,818.50 L671.93,817.12 L671.26,816.19 L673.98,816.17 L674.09,817.54 L672.86,816.68 L674.25,818.50 Z M678.56,814.36 L680.14,816.76 L678.47,816.31 L679.85,817.83 L677.23,815.87 L678.53,815.82 L677.63,814.88 L678.56,814.36 Z M662.98,813.56 L663.61,813.77 L663.71,813.94 L663.18,814.23 L662.98,813.56 Z M664.78,813.22 L664.79,814.13 L662.94,813.27 L664.16,813.67 L663.80,813.06 L664.78,813.22 Z M671.22,816.79 L668.32,817.13 L669.26,816.77 L668.66,816.34 L669.33,815.79 L668.52,815.55 L667.36,815.52 L667.77,816.81 L666.65,816.45 L666.24,814.96 L664.79,815.19 L664.31,814.29 L664.98,814.08 L666.30,814.68 L667.43,814.67 L664.79,813.53 L666.51,813.90 L666.31,813.06 L667.78,814.76 L667.29,813.45 L668.69,814.72 L668.35,813.93 L669.40,814.15 L671.45,815.43 L670.44,815.71 L671.22,816.79 Z M660.63,812.58 L661.33,812.28 L660.93,812.75 L660.63,812.58 Z M662.22,809.80 L663.51,810.56 L661.56,810.34 L662.22,809.80 Z M662.80,811.18 L665.99,812.89 L663.66,812.67 L661.63,811.17 L659.75,811.40 L656.88,809.42 L662.80,811.18 Z M663.02,809.15 L663.08,809.27 L662.94,809.26 L663.02,809.15 Z M660.88,809.11 L660.33,808.23 L659.51,809.14 L659.30,807.54 L660.62,807.39 L660.88,809.11 Z M656.27,807.31 L655.51,807.08 L654.70,806.15 L656.47,806.47 L656.27,807.31 Z M659.79,806.44 L659.81,807.19 L658.34,805.90 L659.79,806.44 Z M658.79,807.35 L658.15,806.17 L656.79,805.73 L657.52,805.68 L659.45,806.93 L658.79,807.35 Z M655.67,805.99 L655.01,805.76 L655.74,805.42 L655.67,805.99 Z M656.82,805.38 L656.75,805.49 L656.57,805.30 L656.82,805.38 Z M655.63,804.59 L655.98,805.08 L655.18,805.54 L655.63,804.59 Z M659.46,805.39 L660.34,806.45 L657.70,804.62 L659.46,805.39 Z M655.16,804.10 L654.52,805.70 L654.47,804.07 L655.16,804.10 Z M653.20,803.52 L652.88,804.34 L652.83,803.40 L653.20,803.52 Z M657.06,804.70 L655.27,803.35 L657.54,804.70 L657.06,804.70 Z M658.30,803.47 L658.78,803.97 L657.73,803.09 L658.30,803.47 Z M654.27,803.79 L654.22,805.73 L653.37,804.94 L654.09,804.10 L653.21,802.84 L654.27,803.79 Z M657.55,803.39 L656.44,803.29 L656.69,802.37 L657.55,803.39 Z M656.36,801.84 L655.72,801.61 L655.34,800.92 L656.36,801.84 Z M651.91,801.16 L651.97,802.52 L651.38,802.91 L650.94,801.01 L651.91,801.16 Z M656.91,801.00 L657.66,800.96 L657.66,801.39 L656.91,801.00 Z M654.20,801.36 L653.20,801.75 L652.23,801.89 L652.67,800.46 L654.20,801.36 Z M651.58,799.84 L652.15,800.15 L651.48,800.17 L651.58,799.84 Z M653.60,799.35 L654.35,800.42 L653.20,799.70 L653.60,799.35 Z M655.32,800.25 L655.07,800.60 L653.98,798.80 L655.32,800.25 Z M652.06,797.64 L654.17,799.74 L653.58,799.20 L652.71,799.84 L651.23,798.58 L652.71,798.79 L652.06,797.64 Z M651.12,798.36 L651.24,797.28 L652.31,798.59 L651.12,798.36 Z M650.38,797.23 L650.24,797.97 L649.93,797.22 L650.38,797.23 Z M651.43,796.40 L651.92,796.49 L651.80,796.82 L651.43,796.40 Z M649.33,796.28 L648.48,796.67 L649.29,797.96 L648.45,797.84 L647.74,796.28 L649.33,796.28 Z M654.51,798.26 L652.19,797.09 L652.67,796.48 L651.37,796.16 L652.67,796.06 L654.51,798.26 Z M651.19,796.25 L650.82,795.56 L651.74,795.62 L651.19,796.25 Z M649.93,794.12 L648.73,795.94 L648.53,795.16 L647.48,795.52 L647.28,794.34 L648.49,794.89 L648.47,794.20 L646.94,793.58 L649.93,794.12 Z M647.62,792.83 L645.32,792.38 L645.27,790.79 L646.09,791.11 L647.62,792.83 Z M644.83,790.18 L645.40,790.26 L645.47,790.56 L644.83,790.18 Z M646.92,787.98 L647.25,789.17 L645.50,788.21 L645.75,787.65 L646.92,787.98 Z M645.17,788.15 L643.69,788.73 L644.62,787.44 L645.17,788.15 Z M645.32,787.61 L644.44,787.25 L644.05,787.75 L643.03,786.77 L644.05,786.52 L645.32,787.61 Z M645.56,786.76 L645.20,787.40 L644.37,786.32 L645.56,786.76 Z M648.40,792.79 L644.87,789.42 L646.71,790.47 L645.47,789.02 L647.65,789.66 L647.00,787.23 L645.59,786.45 L646.68,785.63 L647.51,786.68 L647.86,785.89 L650.99,793.06 L649.89,793.70 L649.34,793.34 L650.00,792.97 L648.91,792.95 L649.57,792.47 L648.26,791.13 L649.17,791.27 L648.09,790.66 L648.77,789.58 L647.49,790.34 L648.40,792.79 Z M644.58,786.15 L645.30,785.76 L645.25,786.47 L644.58,786.15 Z M645.74,786.00 L645.39,785.39 L646.32,785.55 L645.74,786.00 Z M643.82,785.31 L644.26,785.92 L642.74,786.22 L642.59,785.77 L643.25,785.86 L643.82,785.31 Z M642.08,784.26 L643.80,785.26 L642.82,785.73 L643.31,785.23 L642.38,785.28 L642.08,784.26 Z M647.86,784.74 L647.21,784.04 L648.35,784.52 L647.86,784.74 Z M649.37,784.15 L648.84,784.25 L648.35,783.87 L649.37,784.15 Z M647.14,783.70 L647.83,783.29 L648.64,784.26 L648.45,784.36 L647.14,783.70 Z M645.49,782.38 L647.78,785.56 L647.41,785.72 L645.27,785.09 L645.19,784.10 L646.34,784.31 L645.49,782.38 Z M647.50,783.13 L646.37,783.03 L646.33,782.36 L647.50,783.13 Z M644.84,784.25 L642.92,782.04 L645.11,782.50 L645.54,783.76 L644.84,784.25 Z M644.79,785.52 L643.28,783.69 L642.28,783.98 L643.04,783.41 L642.07,783.45 L641.56,781.91 L642.42,781.74 L644.79,785.52 Z M642.76,781.80 L644.54,780.53 L645.49,782.26 L643.69,781.56 L642.76,781.80 Z M647.13,781.53 L647.08,780.50 L649.37,781.33 L647.13,781.53 Z M643.41,780.48 L641.86,780.36 L641.80,779.91 L642.81,779.75 L643.41,780.48 Z M643.71,779.78 L643.60,780.30 L643.01,779.67 L643.71,779.78 Z M644.67,776.72 L644.86,776.00 L645.13,776.27 L644.67,776.72 Z M645.56,776.20 L646.67,776.01 L646.13,776.74 L645.56,776.20 Z M644.79,769.87 L645.77,770.99 L644.70,770.21 L644.79,769.87 Z M645.07,769.72 L645.61,769.64 L645.82,769.91 L645.07,769.72 Z M640.27,768.66 L640.58,769.87 L639.43,770.41 L640.18,769.80 L638.72,769.06 L639.91,769.39 L639.35,768.99 L640.27,768.66 Z M645.06,768.58 L645.49,769.15 L644.66,769.70 L644.38,769.17 L645.06,768.58 Z M643.31,768.41 L643.92,768.50 L644.01,769.30 L643.31,768.41 Z M639.27,767.46 L640.04,768.01 L640.04,768.02 L639.27,767.46 Z M640.20,767.71 L640.96,767.96 L640.71,768.34 L640.20,767.71 Z M644.01,767.85 L642.85,767.36 L643.12,767.03 L644.01,767.85 Z M641.30,768.22 L641.02,766.95 L641.16,766.52 L642.50,767.64 L641.30,768.22 Z M644.66,766.46 L645.21,766.91 L645.39,768.34 L644.37,767.68 L644.66,766.46 Z M642.73,766.38 L643.95,767.20 L643.09,766.94 L642.68,767.28 L642.73,766.38 Z M640.99,767.36 L640.60,766.51 L640.78,766.35 L640.99,767.36 Z M643.20,766.04 L643.42,766.42 L642.86,766.20 L643.20,766.04 Z M640.87,765.54 L641.44,766.21 L640.25,765.62 L640.87,765.54 Z M643.54,765.45 L642.83,765.97 L641.88,765.27 L642.23,765.08 L642.78,765.48 L643.54,765.45 Z M640.75,764.80 L641.22,765.66 L640.55,764.89 L640.75,764.80 Z M643.87,765.14 L642.71,765.33 L641.16,764.30 L642.77,763.83 L643.87,765.14 Z M640.85,764.03 L641.06,763.06 L642.45,763.57 L640.85,764.03 Z M641.67,762.51 L641.48,763.00 L640.83,762.71 L641.67,762.51 Z M642.27,763.23 L642.46,762.58 L643.03,763.61 L642.27,763.23 Z M635.98,762.72 L636.90,762.93 L636.84,763.39 L635.98,762.72 Z M642.85,762.40 L643.46,762.91 L642.84,762.55 L642.85,762.40 Z M639.49,762.19 L639.60,762.88 L639.06,762.28 L639.49,762.19 Z M638.35,761.61 L639.24,762.06 L638.20,761.82 L638.35,761.61 Z M641.70,761.66 L640.43,762.71 L639.42,761.80 L640.01,761.50 L641.70,761.66 Z M637.29,761.24 L637.76,761.44 L637.78,761.92 L637.29,761.24 Z M642.71,761.16 L642.77,762.33 L642.12,761.26 L642.71,761.16 Z M639.66,760.88 L640.54,761.17 L639.36,761.04 L639.66,760.88 Z M641.42,761.15 L640.30,760.64 L640.13,760.47 L641.42,761.15 Z M639.59,760.33 L638.62,761.05 L638.38,760.61 L639.59,760.33 Z M641.46,760.14 L641.53,760.65 L641.29,760.16 L641.46,760.14 Z M644.23,761.41 L645.01,761.72 L644.57,760.51 L645.68,760.80 L645.59,760.06 L646.00,760.96 L647.28,761.05 L646.19,761.49 L647.10,762.14 L645.57,763.51 L644.23,761.41 Z M642.48,760.50 L641.84,760.19 L642.43,760.00 L642.48,760.50 Z M640.17,759.86 L641.12,760.02 L641.26,760.59 L640.17,759.86 Z M644.77,760.14 L644.12,759.99 L644.28,759.74 L644.77,760.14 Z M641.52,759.50 L641.04,759.87 L640.75,759.63 L641.52,759.50 Z M638.65,759.60 L639.11,759.45 L639.24,759.75 L638.65,759.60 Z M642.00,759.71 L642.09,759.35 L642.19,759.49 L642.00,759.71 Z M640.63,759.86 L640.03,758.80 L641.04,759.33 L640.52,759.44 L640.63,759.86 Z M638.61,758.78 L638.80,759.04 L638.51,758.86 L638.61,758.78 Z M640.48,758.53 L641.17,759.04 L640.25,758.76 L640.48,758.53 Z M638.66,758.10 L638.72,757.98 L639.07,758.02 L638.66,758.10 Z M641.16,757.63 L641.78,757.94 L642.05,758.65 L641.43,758.19 L641.16,757.63 Z M644.15,758.00 L643.35,757.52 L643.71,757.19 L644.15,758.00 Z M638.97,756.88 L640.18,756.49 L640.94,757.25 L639.92,757.53 L638.97,756.88 Z M635.69,755.98 L635.49,755.10 L636.56,755.68 L635.69,755.98 Z M640.61,751.90 L639.96,751.45 L641.02,751.88 L640.61,751.90 Z M638.92,749.35 L639.13,749.77 L638.33,749.54 L638.92,749.35 Z M638.92,748.22 L639.89,749.33 L638.41,748.19 L638.92,748.22 Z M640.65,747.62 L640.74,747.83 L640.36,747.44 L640.65,747.62 Z M643.35,746.39 L642.88,746.57 L643.00,746.30 L643.35,746.39 Z M636.92,753.62 L636.89,751.10 L635.31,744.58 L638.05,744.99 L639.52,747.71 L638.27,748.07 L638.85,749.02 L637.82,749.03 L638.09,749.60 L639.97,750.75 L639.12,751.19 L640.63,752.53 L639.29,752.64 L640.31,754.11 L639.57,754.47 L636.92,753.62 Z M640.49,745.10 L639.90,744.44 L639.97,744.38 L640.49,745.10 Z M668.97,819.38 L669.50,819.16 L669.53,819.39 L668.97,819.38 Z M679.53,817.02 L680.47,816.99 L680.54,817.46 L679.53,817.02 Z M675.30,810.19 L675.74,810.23 L675.24,810.26 L675.30,810.19 Z M657.61,808.35 L657.87,808.06 L658.35,808.66 L657.61,808.35 Z M656.92,807.39 L657.10,807.31 L657.35,807.58 L656.92,807.39 Z M658.01,803.99 L659.22,804.17 L659.54,805.11 L658.01,803.99 Z M655.00,801.64 L655.42,801.53 L655.43,801.66 L655.00,801.64 Z M649.53,795.07 L649.87,795.92 L649.04,796.09 L649.07,795.62 L649.53,795.07 Z M650.91,790.74 L649.96,790.47 L649.93,790.03 L650.91,790.74 Z M645.16,780.44 L645.77,780.53 L645.91,780.86 L645.47,781.18 L645.16,780.44 Z M639.43,773.97 L640.17,773.83 L640.59,774.42 L639.43,773.97 Z M637.45,754.43 L637.69,754.41 L637.59,754.49 L637.45,754.43 Z M639.68,753.08 L640.03,753.11 L640.10,753.40 L639.68,753.08 Z M642.07,750.23 L642.59,750.28 L642.63,750.79 L642.07,750.23 Z M640.33,749.72 L640.89,749.73 L640.94,749.85 L640.33,749.72 Z M629.44,723.86 L629.79,724.40 L629.31,723.80 L629.44,723.86 Z M629.42,716.36 L629.22,715.73 L629.74,716.23 L629.42,716.36 Z"/>
</svg>
