<svg xmlns="http://www.w3.org/2000/svg" viewBox="0 0 2000 1000" role="img" aria-labelledby="title desc">
<title>Dinamarca</title>
<desc>Generated world map layer for Modo Turistagem.</desc>
<style>
  path {
    fill: #ff6b00;
    stroke: #ffffff;
    stroke-width: 1;
    vector-effect: non-scaling-stroke;
  }
</style>
<path d="M1035.32,162.27 L1035.34,160.91 L1034.36,161.08 L1035.37,160.86 L1034.96,159.17 L1032.60,158.54 L1032.61,156.04 L1032.96,157.04 L1033.81,156.49 L1033.27,155.54 L1032.51,155.83 L1032.62,152.16 L1035.09,153.23 L1034.85,152.42 L1036.46,151.36 L1036.54,152.76 L1036.92,152.22 L1037.72,152.96 L1037.02,150.65 L1040.12,149.97 L1036.60,149.97 L1034.73,150.57 L1033.63,152.07 L1034.41,152.07 L1034.32,152.61 L1032.91,151.98 L1032.88,151.37 L1034.40,149.61 L1037.87,149.37 L1040.13,146.97 L1042.94,146.09 L1042.03,150.25 L1040.45,149.78 L1040.17,149.97 L1041.89,150.40 L1042.12,151.90 L1041.26,151.88 L1039.79,152.34 L1042.09,151.98 L1042.15,152.45 L1041.62,152.80 L1041.52,153.31 L1042.12,152.55 L1044.31,152.94 L1044.79,154.08 L1043.28,155.40 L1042.56,154.28 L1041.76,156.92 L1040.36,156.81 L1041.03,157.67 L1039.03,157.61 L1040.38,158.10 L1038.85,158.88 L1039.88,160.25 L1038.73,161.46 L1040.07,161.70 L1040.19,162.61 L1035.32,162.27 Z M1049.62,163.21 L1047.91,163.80 L1045.87,162.98 L1045.86,162.22 L1048.47,162.75 L1048.67,162.17 L1049.62,163.21 Z M1042.12,161.80 L1043.64,162.52 L1043.05,162.64 L1042.12,161.80 Z M1051.29,161.33 L1052.68,161.92 L1050.75,162.20 L1051.29,161.33 Z M1039.59,161.34 L1041.60,162.35 L1041.18,162.48 L1039.59,161.34 Z M1044.02,162.60 L1045.48,160.79 L1044.47,163.19 L1044.02,162.60 Z M1064.19,160.91 L1063.25,161.59 L1062.16,160.33 L1062.35,159.91 L1064.19,160.91 Z M1034.27,159.23 L1034.02,159.50 L1033.87,159.03 L1034.27,159.23 Z M1044.22,161.30 L1041.16,160.94 L1039.67,158.78 L1042.40,158.14 L1043.20,159.14 L1043.82,158.17 L1044.39,158.89 L1043.64,159.04 L1043.57,159.15 L1044.21,159.16 L1044.87,160.01 L1044.22,161.30 Z M1052.23,158.14 L1052.92,158.24 L1052.42,158.53 L1052.23,158.14 Z M1043.56,157.34 L1043.19,156.25 L1043.30,155.98 L1043.56,157.34 Z M1049.74,161.70 L1051.03,162.60 L1050.16,164.14 L1049.92,163.26 L1048.93,162.01 L1049.68,161.78 L1048.44,161.15 L1049.27,160.83 L1046.05,159.75 L1046.14,158.38 L1044.87,157.44 L1046.98,157.36 L1047.62,156.49 L1046.53,155.99 L1048.73,156.14 L1048.10,157.21 L1048.92,157.91 L1049.48,156.35 L1050.09,157.47 L1049.50,157.91 L1050.17,157.94 L1050.29,157.51 L1049.89,156.31 L1049.16,156.13 L1050.77,155.24 L1052.47,155.72 L1052.55,157.63 L1050.86,158.89 L1052.14,160.01 L1050.19,160.72 L1050.94,161.07 L1049.74,161.70 Z M1047.59,152.11 L1047.31,151.91 L1047.87,151.83 L1047.59,152.11 Z M1035.44,151.75 L1034.08,151.79 L1035.82,150.44 L1035.46,150.98 L1035.44,151.75 Z M1045.38,148.43 L1044.94,149.16 L1044.15,148.81 L1044.53,148.59 L1045.38,148.43 Z"/>
</svg>
