<svg xmlns="http://www.w3.org/2000/svg" viewBox="0 0 2000 1000" role="img" aria-labelledby="title desc">
<title>Egito</title>
<desc>Generated world map layer for Modo Turistagem.</desc>
<style>
  path {
    fill: #ff6b00;
    stroke: #ffffff;
    stroke-width: 1;
    vector-effect: non-scaling-stroke;
  }
</style>
<path d="M1172.59,329.89 L1172.77,330.38 L1172.49,329.89 L1172.59,329.89 Z M1171.37,302.51 L1175.94,313.55 L1173.61,324.21 L1167.89,319.12 L1167.42,316.58 L1164.80,313.76 L1163.80,310.39 L1162.79,312.93 L1164.16,314.28 L1166.03,319.06 L1169.90,323.19 L1169.72,324.71 L1172.65,329.24 L1172.43,329.64 L1172.48,330.71 L1179.62,343.74 L1183.23,347.36 L1181.61,347.27 L1183.07,353.23 L1189.61,358.90 L1161.11,358.90 L1160.97,357.50 L1160.13,358.91 L1127.34,358.90 L1125.15,315.42 L1123.25,309.36 L1124.57,305.71 L1123.58,302.30 L1124.69,300.70 L1136.19,302.10 L1136.91,303.06 L1138.98,302.96 L1139.43,303.81 L1141.98,303.91 L1145.19,305.46 L1150.26,302.39 L1150.81,303.10 L1151.43,302.97 L1150.85,302.73 L1151.66,301.33 L1154.74,300.86 L1152.64,301.97 L1153.63,302.06 L1155.53,301.43 L1154.76,300.87 L1155.36,300.73 L1157.80,301.73 L1159.37,301.17 L1159.56,301.17 L1159.73,301.26 L1161.16,302.62 L1159.45,301.19 L1158.96,302.69 L1160.82,304.09 L1161.68,303.58 L1161.20,302.62 L1163.35,304.04 L1164.96,303.47 L1163.69,304.09 L1164.03,304.18 L1165.44,304.07 L1165.67,303.59 L1165.52,303.80 L1165.13,303.76 L1165.87,303.22 L1166.08,304.13 L1168.67,303.70 L1171.37,302.51 Z M1181.67,352.95 L1180.60,354.12 L1182.61,351.98 L1181.67,352.95 Z M1178.42,355.85 L1178.65,355.20 L1178.80,354.76 L1178.42,355.85 Z M1176.13,357.50 L1177.99,357.07 L1175.23,357.71 L1176.13,357.50 Z M1172.54,325.58 L1172.05,325.62 L1171.93,325.45 L1172.54,325.58 Z M1175.83,323.12 L1175.69,322.82 L1175.95,322.83 L1175.83,323.12 Z M1174.91,322.52 L1174.86,322.99 L1174.70,322.56 L1174.91,322.52 Z M1165.22,303.89 L1165.31,303.90 L1165.33,303.97 L1165.22,303.89 Z M1167.77,303.55 L1166.83,303.12 L1166.68,303.10 L1167.77,303.55 Z M1166.54,303.08 L1165.82,303.04 L1165.00,303.52 L1165.82,302.96 L1166.54,303.08 Z"/>
</svg>
