<svg xmlns="http://www.w3.org/2000/svg" viewBox="0 0 2000 1000" role="img" aria-labelledby="title desc">
<title>Espanha</title>
<desc>Generated world map layer for Modo Turistagem.</desc>
<style>
  path {
    fill: #ff6b00;
    stroke: #ffffff;
    stroke-width: 1;
    vector-effect: non-scaling-stroke;
  }
</style>
<path d="M970.11,274.70 L969.63,274.88 L969.53,274.62 L970.11,274.70 Z M981.70,278.31 L981.97,278.53 L981.82,278.59 L981.70,278.31 Z M987.96,229.76 L989.84,230.61 L989.57,231.79 L990.40,231.41 L993.87,233.42 L995.07,233.00 L997.97,234.04 L1000.58,233.07 L1003.15,233.80 L1003.67,235.44 L1004.93,235.04 L1006.41,235.97 L1012.10,235.46 L1012.78,236.11 L1011.82,236.74 L1012.39,238.37 L1007.06,242.22 L1001.62,243.73 L1000.14,245.15 L1000.85,245.93 L999.40,246.50 L995.04,252.96 L995.85,256.05 L997.80,257.62 L994.10,260.05 L992.37,263.64 L993.01,264.48 L990.04,264.73 L988.30,265.93 L986.00,269.72 L984.83,269.11 L983.03,270.04 L974.61,269.79 L973.30,271.10 L970.65,271.68 L968.47,274.12 L966.36,273.02 L964.63,270.32 L965.67,268.53 L964.69,269.28 L962.22,267.12 L962.44,266.34 L962.04,267.08 L959.62,266.96 L959.11,264.77 L962.11,260.91 L961.33,261.05 L960.10,259.40 L962.06,255.66 L959.34,251.97 L961.99,251.89 L962.74,249.99 L961.97,248.96 L963.22,247.91 L962.61,243.95 L966.31,240.62 L964.69,240.09 L964.41,238.27 L956.72,239.18 L956.59,237.13 L953.32,238.69 L953.30,237.33 L954.68,236.19 L953.47,236.51 L954.55,235.40 L953.63,235.63 L953.16,235.24 L953.72,235.28 L954.24,233.93 L952.84,234.87 L953.51,233.07 L952.46,233.51 L951.67,231.73 L953.86,230.04 L956.91,230.19 L956.47,228.67 L959.55,227.32 L962.58,229.20 L968.38,228.10 L974.96,229.77 L979.34,228.97 L982.08,230.14 L983.25,229.36 L986.34,230.34 L987.96,229.76 Z M1006.36,235.39 L1006.10,235.34 L1006.20,235.14 L1006.36,235.39 Z M904.02,323.46 L903.73,324.73 L902.81,324.25 L902.79,324.03 L904.02,323.46 Z M917.13,321.48 L916.82,323.83 L915.11,323.51 L915.59,321.55 L917.13,321.48 Z M907.55,322.42 L907.83,321.32 L908.39,321.96 L907.55,322.42 Z M913.57,319.11 L910.46,322.57 L909.40,320.42 L913.57,319.11 Z M924.66,318.11 L925.41,318.44 L924.75,321.09 L921.76,322.14 L923.25,321.24 L924.66,318.11 Z M903.94,317.85 L905.34,318.15 L904.67,319.81 L903.94,317.85 Z M927.28,315.06 L927.24,316.52 L925.23,317.33 L925.62,316.22 L927.28,315.06 Z M927.16,314.76 L927.24,315.05 L926.98,315.13 L927.16,314.76 Z M992.88,263.45 L992.95,263.89 L993.02,264.11 L992.91,264.00 L992.88,263.45 Z M1003.73,257.54 L1004.48,258.16 L1003.49,258.22 L1003.73,257.54 Z M1004.58,255.52 L1003.59,257.08 L1002.66,256.76 L1003.35,255.60 L1004.58,255.52 Z M1012.10,251.32 L1013.68,252.10 L1011.77,254.45 L1009.87,252.70 L1008.26,252.70 L1011.09,250.56 L1012.30,250.24 L1012.10,251.32 Z M1016.85,249.57 L1017.58,251.15 L1015.37,249.94 L1016.85,249.57 Z M1011.05,255.15 L1011.29,255.37 L1011.14,255.35 L1011.05,255.15 Z M974.97,279.16 L974.99,279.16 L975.00,279.17 L974.97,279.16 Z M976.99,278.91 L976.99,278.90 L976.99,278.91 L976.99,278.91 Z M976.99,278.89 L977.00,278.89 L977.00,278.89 L976.99,278.89 Z M984.39,279.13 L984.40,279.08 L984.42,279.11 L984.39,279.13 Z M969.42,274.68 L969.45,274.69 L969.44,274.70 L969.42,274.68 Z"/>
</svg>
