<svg xmlns="http://www.w3.org/2000/svg" viewBox="0 0 2000 1000" role="img" aria-labelledby="title desc">
<title>Estados Unidos</title>
<desc>Generated world map layer for Modo Turistagem.</desc>
<style>
  path {
    fill: #ff6b00;
    stroke: #ffffff;
    stroke-width: 1;
    vector-effect: non-scaling-stroke;
  }
</style>
<path d="M423.20,196.52 L552.02,196.52 L553.23,194.31 L554.54,194.66 L553.96,198.08 L557.05,198.61 L557.26,199.32 L561.19,198.72 L562.51,199.20 L561.96,199.65 L562.95,199.81 L562.91,201.05 L564.68,200.32 L566.17,202.08 L569.98,200.98 L570.14,201.87 L576.37,202.48 L581.90,200.56 L594.71,208.87 L595.10,211.46 L597.42,211.07 L596.98,213.82 L598.77,213.51 L599.23,214.15 L597.83,215.53 L601.98,218.14 L599.80,228.62 L595.77,234.34 L592.37,236.22 L591.40,237.77 L591.40,238.96 L592.96,240.03 L613.20,233.24 L614.01,232.48 L613.90,229.29 L616.29,228.38 L625.53,228.33 L629.20,225.01 L637.82,220.10 L654.12,220.05 L655.50,218.42 L657.25,218.07 L657.50,218.74 L661.91,214.65 L664.72,210.02 L669.93,205.56 L670.94,207.14 L674.17,206.09 L675.89,207.78 L673.19,215.90 L674.76,216.58 L673.93,218.55 L675.17,219.07 L675.43,220.29 L674.51,220.70 L675.42,221.23 L671.87,222.94 L670.89,222.61 L669.28,224.13 L668.99,222.96 L667.60,223.15 L666.97,223.64 L666.79,224.68 L665.60,224.22 L666.37,223.65 L665.79,223.69 L666.41,222.89 L666.17,222.75 L663.11,226.38 L662.49,225.73 L661.16,227.08 L661.59,225.97 L660.89,227.24 L661.14,225.93 L660.24,226.77 L660.00,227.53 L660.51,225.73 L659.54,227.89 L659.63,226.86 L657.23,228.18 L652.82,233.10 L653.74,234.25 L650.95,236.12 L652.27,236.64 L652.59,237.94 L651.96,238.03 L653.27,239.73 L655.09,239.15 L654.35,237.68 L655.15,237.70 L655.12,240.00 L651.32,240.91 L651.49,239.56 L648.65,241.23 L649.63,239.26 L648.63,240.14 L648.31,239.13 L646.93,241.84 L639.90,242.21 L633.96,245.21 L634.67,243.84 L634.88,243.12 L634.66,242.29 L634.25,244.45 L633.27,245.76 L632.25,246.24 L631.63,247.06 L633.03,247.35 L631.22,251.39 L631.90,249.84 L631.90,249.68 L629.27,252.71 L628.68,253.66 L628.87,253.92 L625.42,256.51 L626.11,254.98 L624.94,254.94 L623.69,252.37 L624.79,251.23 L626.22,250.80 L627.08,249.95 L624.93,251.01 L623.59,252.16 L623.48,255.73 L624.54,257.29 L623.53,258.66 L624.34,258.40 L624.09,259.53 L623.39,259.63 L623.60,260.19 L618.56,265.38 L618.59,265.68 L618.05,265.97 L617.35,267.37 L618.19,264.65 L620.35,262.33 L619.13,262.39 L620.09,259.65 L618.82,260.69 L617.85,259.23 L618.32,258.33 L619.33,258.67 L619.81,258.44 L618.54,257.42 L618.09,258.03 L618.55,257.13 L619.63,256.80 L618.23,257.02 L622.28,252.55 L619.54,254.20 L619.58,253.64 L619.11,253.70 L618.51,254.89 L618.05,254.42 L617.77,254.50 L618.47,255.92 L617.62,255.83 L617.38,259.77 L616.27,259.23 L616.42,258.00 L616.11,259.16 L617.27,260.29 L617.06,261.83 L614.92,259.69 L614.53,260.33 L614.32,259.19 L613.06,259.72 L614.81,257.89 L615.08,256.94 L614.94,256.67 L613.66,258.13 L612.55,260.03 L614.12,259.71 L614.22,260.82 L617.19,262.67 L616.45,264.28 L615.49,264.16 L614.11,261.53 L613.61,261.09 L613.25,261.09 L615.20,264.34 L616.44,264.69 L615.83,264.91 L616.34,265.72 L615.57,265.45 L614.83,266.62 L613.81,264.95 L614.36,266.34 L615.64,267.25 L614.77,268.29 L614.09,266.79 L613.14,266.17 L611.06,266.22 L613.85,267.01 L614.04,268.95 L616.75,268.53 L617.31,275.41 L616.69,269.82 L616.55,271.17 L615.87,271.14 L616.45,273.67 L615.94,272.31 L615.97,273.17 L614.77,272.21 L615.19,273.18 L613.26,272.92 L613.84,273.58 L612.37,274.09 L611.89,273.82 L612.31,272.43 L612.11,272.21 L611.49,274.49 L614.98,274.26 L614.50,276.27 L615.95,274.28 L616.37,275.20 L615.65,276.73 L613.45,278.11 L611.77,277.84 L612.19,276.94 L611.23,277.06 L611.26,277.82 L609.21,276.98 L611.72,278.57 L609.79,280.27 L608.47,279.26 L608.89,280.33 L610.84,280.62 L611.49,279.76 L611.24,280.57 L612.26,280.37 L611.74,280.91 L610.02,281.97 L607.59,281.64 L606.24,282.86 L605.96,282.69 L606.39,282.32 L606.04,281.70 L605.74,282.57 L605.97,283.07 L605.09,283.42 L603.87,284.34 L603.18,285.00 L602.84,285.52 L602.40,286.51 L602.20,286.68 L602.58,285.60 L602.53,285.10 L601.77,286.88 L600.05,286.55 L597.81,287.59 L594.83,290.99 L595.13,289.66 L594.57,290.13 L594.77,291.19 L591.03,293.68 L590.41,293.20 L589.74,294.66 L586.22,295.20 L587.13,295.46 L586.59,296.26 L587.28,295.88 L586.46,296.67 L585.31,295.09 L585.73,297.06 L583.81,299.09 L583.03,298.92 L582.86,299.92 L582.03,299.78 L581.16,302.30 L580.34,302.19 L581.34,302.75 L580.30,303.16 L579.40,305.30 L579.33,311.10 L581.48,319.71 L581.17,323.38 L581.26,318.93 L580.43,318.86 L580.22,317.78 L580.28,320.31 L581.31,324.59 L581.32,325.50 L581.72,327.53 L581.65,327.35 L581.18,327.15 L582.14,329.76 L580.62,336.03 L580.72,335.27 L579.54,336.98 L578.63,339.59 L574.94,339.96 L574.64,339.34 L574.77,338.92 L575.00,338.64 L575.20,339.07 L575.65,339.30 L575.52,339.42 L576.01,339.23 L574.33,335.78 L573.03,334.99 L572.44,335.15 L572.34,331.95 L571.59,331.74 L573.02,330.34 L571.48,331.47 L572.30,328.64 L570.79,328.52 L571.20,329.81 L570.40,329.53 L569.66,326.23 L569.09,325.87 L569.00,325.50 L569.71,325.57 L571.05,323.07 L570.40,323.63 L570.47,322.91 L569.81,322.34 L570.29,323.26 L569.59,324.41 L568.92,323.58 L569.19,324.21 L569.22,324.63 L568.78,323.60 L571.14,317.20 L567.11,310.94 L564.66,309.82 L563.18,310.53 L563.75,310.79 L563.66,311.06 L563.49,311.15 L558.23,312.41 L558.47,311.14 L557.15,309.65 L558.21,310.34 L558.50,310.13 L557.03,309.28 L558.00,308.74 L557.90,308.49 L556.44,308.86 L556.94,309.65 L553.28,308.00 L555.26,308.17 L554.98,307.41 L549.71,308.28 L551.36,307.81 L550.91,306.79 L548.96,308.53 L547.87,308.78 L549.03,307.87 L548.70,307.54 L547.56,308.80 L547.19,308.94 L545.23,309.11 L546.67,308.77 L545.98,306.00 L544.81,308.53 L540.95,307.79 L537.10,309.52 L534.40,308.10 L533.04,309.13 L532.83,309.82 L533.97,310.32 L536.74,309.47 L535.63,310.39 L536.33,311.22 L537.54,310.00 L538.12,310.17 L537.85,311.72 L537.21,311.47 L536.45,312.07 L536.92,312.68 L535.51,312.68 L536.29,314.11 L537.99,314.38 L538.70,315.46 L536.29,316.95 L537.32,315.55 L536.66,315.98 L536.52,315.00 L534.75,314.60 L534.98,313.65 L533.25,313.01 L533.69,314.71 L532.31,315.99 L531.63,314.35 L529.01,315.71 L526.95,314.73 L527.61,314.21 L527.78,315.00 L528.02,314.88 L527.91,312.84 L527.37,313.59 L526.11,313.26 L525.06,311.49 L523.14,311.89 L523.85,312.72 L522.23,313.28 L518.03,311.84 L514.68,312.28 L515.00,310.55 L514.41,312.43 L509.39,314.30 L509.85,313.72 L510.96,313.33 L511.11,313.09 L509.55,313.31 L510.17,311.78 L509.02,312.55 L508.48,311.98 L509.10,314.25 L507.06,315.25 L506.88,316.24 L502.28,318.40 L503.52,318.24 L500.62,319.61 L502.03,318.67 L500.72,319.01 L501.06,318.39 L500.17,318.72 L500.12,318.15 L499.85,317.94 L500.04,318.78 L499.69,318.96 L499.33,319.06 L498.74,318.15 L499.59,319.94 L498.13,320.63 L497.64,319.66 L496.72,321.66 L496.73,320.97 L495.22,321.61 L495.13,322.53 L495.93,321.96 L494.72,323.56 L493.03,323.33 L494.13,324.41 L492.86,326.59 L491.68,326.80 L491.16,325.78 L490.98,326.93 L492.69,327.02 L491.43,329.60 L492.55,334.82 L491.21,335.61 L482.89,332.11 L481.88,328.27 L482.33,325.06 L479.39,320.89 L478.63,315.81 L475.90,311.80 L471.39,311.11 L469.23,312.06 L465.82,316.54 L464.51,316.34 L459.72,312.56 L459.22,306.77 L454.28,301.52 L453.86,299.90 L444.62,299.70 L443.76,302.43 L429.49,302.43 L412.43,295.33 L413.38,294.04 L400.78,295.14 L400.61,290.28 L398.46,287.81 L398.05,287.88 L398.00,287.64 L397.82,287.67 L397.68,287.73 L397.49,288.05 L396.96,287.82 L397.10,286.12 L394.18,285.65 L392.73,283.75 L388.30,283.58 L387.66,282.85 L389.04,279.36 L388.08,278.85 L388.55,277.59 L387.12,276.19 L385.70,272.32 L386.03,270.64 L387.58,269.11 L385.67,267.41 L385.89,264.92 L387.22,263.23 L386.82,264.48 L387.78,265.38 L388.14,265.33 L388.00,262.02 L391.35,262.04 L392.02,261.49 L391.77,261.96 L392.55,262.07 L392.05,261.45 L390.99,261.87 L391.77,261.20 L389.25,261.84 L388.24,261.17 L386.64,263.20 L385.39,261.70 L384.97,262.14 L384.66,262.12 L385.52,260.63 L385.88,261.66 L385.91,261.51 L383.85,256.56 L385.98,251.05 L384.80,248.48 L385.15,247.38 L387.95,245.09 L387.06,245.50 L390.36,240.81 L392.29,233.06 L397.73,227.81 L396.98,228.00 L404.95,217.16 L406.91,212.82 L407.52,213.59 L409.24,212.81 L409.64,213.33 L410.21,213.40 L410.74,213.13 L410.08,213.29 L409.74,212.61 L408.75,212.38 L406.79,212.58 L408.18,210.38 L407.51,211.91 L408.35,211.84 L408.66,210.50 L409.77,210.17 L408.45,209.79 L408.86,208.87 L410.57,208.51 L409.44,208.01 L408.71,208.71 L411.55,200.17 L414.33,201.39 L418.45,201.28 L418.84,202.40 L419.87,201.53 L419.55,201.87 L419.59,203.08 L417.95,204.26 L418.29,203.39 L415.11,206.16 L415.48,206.23 L416.91,205.71 L415.48,206.10 L420.07,202.83 L418.29,204.59 L418.01,205.15 L418.80,205.19 L417.57,206.71 L417.78,205.88 L416.27,207.24 L416.94,205.92 L414.54,207.70 L416.20,207.74 L419.05,206.16 L420.31,203.56 L422.16,202.21 L422.00,201.10 L421.53,202.04 L421.12,201.49 L422.29,200.57 L421.97,199.80 L421.37,199.83 L423.08,198.94 L423.20,196.52 Z M452.77,82.14 L424.83,105.63 L396.49,131.83 L399.99,132.48 L404.85,131.63 L402.90,133.11 L404.99,137.74 L403.67,139.63 L407.81,138.25 L409.10,138.11 L412.34,135.78 L417.15,134.67 L417.59,135.19 L416.62,137.51 L417.52,137.76 L417.44,139.95 L418.47,140.65 L418.70,142.41 L417.49,149.19 L416.41,149.85 L417.50,150.14 L416.31,151.10 L417.01,151.47 L416.20,152.61 L417.37,152.60 L419.64,154.01 L420.11,155.28 L421.39,155.49 L417.82,160.05 L414.17,162.26 L412.11,163.01 L412.89,161.85 L411.33,162.80 L412.20,161.42 L413.57,161.21 L415.95,159.78 L412.32,161.14 L415.11,159.98 L414.08,159.89 L416.28,157.05 L415.85,156.13 L417.38,155.33 L412.11,156.77 L410.12,158.81 L409.62,158.31 L413.39,155.08 L415.20,154.95 L415.81,154.71 L414.02,154.65 L414.37,153.89 L413.58,152.97 L414.32,152.34 L413.25,152.39 L414.99,151.33 L413.37,151.18 L414.48,149.78 L411.63,149.28 L412.50,148.71 L413.44,148.72 L414.56,148.43 L414.83,148.23 L413.05,148.36 L414.80,146.96 L413.49,147.06 L413.91,146.34 L414.34,146.27 L415.51,147.46 L415.76,147.38 L414.69,146.07 L415.44,145.15 L417.00,145.47 L415.51,145.07 L414.21,145.85 L416.14,143.80 L414.06,144.27 L417.70,141.73 L414.33,143.53 L413.65,142.69 L412.68,142.53 L415.97,136.45 L414.27,137.29 L414.53,137.88 L414.07,138.59 L413.79,137.79 L410.44,143.34 L409.54,143.12 L410.07,141.96 L407.68,142.53 L409.24,141.31 L409.29,140.12 L411.08,139.61 L409.67,139.85 L410.15,138.87 L408.37,140.47 L407.69,139.99 L408.34,139.24 L407.30,139.68 L406.49,138.69 L404.81,140.04 L407.26,139.92 L406.78,140.74 L407.47,140.80 L406.26,141.23 L407.57,140.92 L407.51,142.01 L403.54,143.44 L403.56,142.53 L401.44,141.27 L402.55,140.91 L401.42,141.12 L401.21,138.62 L400.08,138.36 L401.13,138.01 L400.07,138.28 L397.06,136.03 L401.21,133.55 L399.65,135.87 L401.14,134.44 L402.25,134.36 L402.42,134.58 L402.66,134.55 L401.33,133.23 L395.93,135.17 L392.12,134.17 L393.34,133.76 L393.93,132.73 L391.63,133.73 L387.70,132.89 L382.25,133.53 L381.05,133.34 L382.14,133.29 L382.28,132.38 L379.70,131.82 L383.47,129.55 L378.44,131.55 L376.34,130.99 L378.98,129.76 L376.13,130.01 L377.97,129.09 L374.77,129.65 L377.98,128.87 L375.63,128.94 L378.84,127.27 L372.28,128.47 L373.66,127.14 L370.43,128.89 L373.70,126.46 L366.63,129.14 L367.78,129.03 L365.93,129.77 L368.51,129.24 L364.66,130.99 L368.12,130.17 L367.89,130.96 L364.85,131.98 L364.06,132.50 L365.78,132.24 L364.45,132.57 L362.75,133.74 L359.94,133.69 L360.49,133.19 L358.60,134.21 L359.58,132.83 L356.63,135.08 L357.36,133.74 L355.39,135.36 L354.96,134.63 L354.01,135.58 L350.79,136.00 L347.39,137.94 L346.86,137.30 L343.48,137.84 L350.73,134.74 L347.90,135.69 L346.76,135.09 L353.11,131.37 L354.88,129.44 L361.06,127.73 L361.07,128.34 L365.64,128.79 L363.08,127.14 L368.65,125.25 L367.97,125.18 L363.99,126.64 L361.91,126.56 L362.28,125.99 L354.50,128.45 L347.83,131.87 L346.53,132.27 L345.71,131.78 L345.22,131.80 L344.82,131.93 L345.51,131.89 L345.74,133.13 L334.78,136.95 L335.52,137.02 L332.47,138.88 L334.74,138.68 L335.36,139.87 L329.39,141.99 L326.66,143.96 L322.68,144.53 L311.77,148.48 L312.58,148.54 L309.68,150.40 L298.11,153.49 L296.14,154.44 L298.26,154.63 L295.52,155.94 L294.95,155.74 L296.38,154.86 L294.10,156.21 L289.73,157.17 L289.86,156.60 L287.62,158.37 L289.02,156.93 L277.97,159.59 L280.62,158.62 L278.98,158.17 L274.12,161.14 L271.80,161.44 L272.51,159.96 L270.83,161.89 L269.28,162.02 L269.13,160.88 L268.52,162.00 L266.40,162.72 L268.34,160.99 L279.87,156.60 L283.51,155.88 L282.19,156.22 L284.61,156.01 L283.32,156.59 L283.25,157.59 L284.36,156.61 L286.08,157.24 L285.89,156.03 L290.05,153.78 L298.85,150.93 L298.97,150.90 L297.80,151.34 L297.69,151.50 L299.17,151.64 L303.98,148.53 L307.94,147.12 L307.89,147.58 L308.99,147.54 L309.55,147.11 L308.21,147.52 L308.69,146.63 L311.94,144.08 L314.36,143.73 L313.25,143.38 L313.74,142.63 L318.75,140.54 L318.16,140.60 L322.04,138.21 L312.32,141.18 L312.25,140.08 L313.72,139.07 L315.16,139.00 L314.93,139.75 L315.27,139.59 L315.45,138.87 L314.59,138.09 L308.50,142.40 L307.67,142.29 L308.31,140.44 L307.65,139.97 L308.42,139.46 L306.12,140.38 L306.42,139.78 L305.42,139.40 L306.14,138.68 L296.77,141.54 L297.35,141.07 L295.54,141.06 L296.83,141.01 L298.83,140.16 L298.08,140.36 L301.19,138.43 L299.52,138.65 L300.11,137.57 L303.06,136.28 L304.36,133.37 L306.06,132.16 L304.47,132.89 L305.07,131.88 L310.21,129.62 L303.83,132.04 L304.42,132.46 L302.82,133.53 L296.88,134.62 L294.96,134.39 L296.09,133.49 L295.40,133.01 L296.00,131.67 L294.56,131.26 L296.00,130.49 L294.15,130.46 L298.82,128.34 L298.80,128.72 L299.93,128.47 L299.21,128.95 L300.64,129.16 L298.45,130.45 L301.77,129.23 L302.35,129.34 L301.34,130.31 L304.06,129.36 L302.53,128.79 L304.46,128.00 L302.26,128.75 L299.21,128.23 L297.92,128.41 L300.70,127.40 L299.16,127.65 L299.10,127.24 L299.50,127.13 L300.20,126.79 L300.13,126.57 L298.89,126.82 L299.88,126.54 L301.15,125.69 L301.50,125.69 L302.43,125.31 L303.03,125.25 L304.39,124.60 L300.90,125.74 L298.86,126.76 L297.97,127.57 L297.31,127.48 L298.35,126.41 L297.81,125.80 L299.21,125.16 L297.92,124.78 L300.45,124.20 L299.93,123.49 L302.37,123.27 L303.62,121.88 L308.75,119.70 L310.43,120.19 L310.23,119.44 L313.05,118.45 L310.80,119.14 L312.03,117.93 L315.58,117.00 L315.21,116.37 L316.47,115.94 L319.39,115.90 L317.49,117.15 L320.93,116.76 L327.52,114.12 L328.30,114.45 L327.31,114.74 L330.51,114.59 L333.73,113.64 L335.76,112.63 L338.07,109.44 L336.46,109.59 L341.19,108.23 L342.45,106.66 L331.05,109.84 L331.73,108.16 L330.27,108.52 L331.22,108.89 L330.08,109.47 L328.53,108.52 L322.57,109.28 L318.53,107.98 L320.22,106.87 L319.72,105.51 L320.50,105.04 L321.05,104.86 L319.90,105.51 L324.09,104.93 L319.72,104.20 L318.68,102.78 L321.52,102.48 L329.65,100.11 L332.74,100.23 L331.77,99.84 L340.86,97.87 L343.01,97.86 L343.20,98.03 L338.28,100.01 L346.13,101.15 L351.05,99.71 L350.22,100.38 L351.42,99.76 L351.58,99.23 L348.02,99.56 L349.83,98.27 L349.84,97.32 L348.96,97.09 L350.53,95.99 L351.19,96.03 L350.03,97.60 L350.39,98.62 L352.67,98.20 L353.85,99.08 L356.56,98.23 L357.25,97.64 L351.49,98.21 L351.26,97.17 L354.56,95.83 L350.88,95.81 L352.42,95.03 L352.49,94.91 L350.54,95.71 L346.68,95.20 L348.64,92.56 L345.16,89.04 L343.46,88.78 L345.87,88.50 L349.65,86.09 L359.44,85.43 L365.19,83.62 L376.78,78.84 L377.45,79.04 L375.03,79.60 L386.66,77.39 L384.76,77.97 L385.92,77.91 L383.91,78.73 L384.95,78.51 L384.35,79.39 L386.34,77.87 L386.59,78.01 L388.68,77.66 L386.14,77.22 L389.21,76.33 L391.74,75.92 L389.89,76.43 L390.05,76.91 L396.52,76.02 L405.79,73.30 L404.73,73.86 L407.28,74.61 L403.30,75.75 L403.90,75.81 L402.92,76.56 L409.15,74.58 L408.12,75.27 L410.01,75.25 L408.23,75.95 L409.71,76.46 L417.50,76.07 L415.40,77.15 L416.51,77.46 L414.25,77.56 L417.67,77.56 L415.97,78.11 L425.99,77.74 L430.80,79.30 L437.44,79.49 L439.74,80.48 L447.21,79.78 L451.20,82.14 L452.77,82.14 Z M421.62,196.52 L421.88,196.52 L421.55,196.64 L421.62,196.52 Z M634.14,244.79 L633.55,245.76 L633.32,245.85 L634.14,244.79 Z M648.37,240.29 L648.12,240.25 L648.26,240.02 L648.37,240.29 Z M660.69,227.06 L660.47,227.12 L660.59,226.97 L660.69,227.06 Z M660.46,226.64 L660.51,226.85 L660.40,226.93 L660.46,226.64 Z M665.93,225.70 L666.06,225.95 L665.80,226.03 L665.93,225.70 Z M665.17,225.01 L664.86,225.29 L664.63,225.46 L665.17,225.01 Z M667.09,224.99 L667.11,225.32 L666.81,225.21 L667.09,224.99 Z M665.26,224.31 L664.97,224.36 L665.21,224.24 L665.26,224.31 Z M667.26,223.82 L667.22,224.22 L667.05,224.17 L667.26,223.82 Z M665.26,223.91 L665.50,223.96 L665.21,224.19 L665.26,223.91 Z M671.94,223.03 L671.80,223.44 L671.86,223.00 L671.94,223.03 Z M673.49,222.37 L673.58,222.50 L673.36,222.50 L673.49,222.37 Z M675.42,220.73 L675.40,220.40 L675.52,220.74 L675.42,220.73 Z M404.01,162.01 L403.43,163.06 L403.44,162.23 L404.01,162.01 Z M410.85,161.70 L409.77,162.47 L409.41,162.17 L410.85,161.70 Z M404.74,161.38 L404.35,160.79 L404.78,160.60 L404.74,161.38 Z M402.85,163.38 L402.19,163.42 L402.12,161.93 L403.71,160.24 L402.85,163.38 Z M410.74,161.27 L409.23,161.57 L410.99,160.16 L410.74,161.27 Z M403.28,159.74 L403.42,160.13 L402.12,160.52 L403.28,159.74 Z M410.32,159.31 L410.57,159.96 L409.32,160.86 L409.60,159.96 L410.32,159.31 Z M403.03,159.35 L402.14,159.70 L401.43,160.30 L401.94,159.54 L403.03,159.35 Z M402.57,159.12 L403.36,158.69 L403.57,158.88 L402.57,159.12 Z M404.28,158.82 L403.81,158.57 L404.41,158.52 L404.28,158.82 Z M403.11,158.57 L402.34,159.12 L401.68,159.12 L403.11,158.57 Z M405.64,157.12 L404.07,157.71 L403.88,157.51 L404.45,156.92 L405.64,157.12 Z M405.68,156.90 L406.38,156.73 L405.77,157.25 L405.68,156.90 Z M306.25,157.01 L307.68,156.46 L306.14,157.25 L306.25,157.01 Z M401.72,156.41 L402.73,156.42 L401.33,156.92 L401.72,156.41 Z M403.30,156.69 L403.93,156.30 L403.38,156.84 L403.30,156.69 Z M414.98,158.33 L411.98,160.61 L412.99,159.35 L411.96,160.09 L411.31,160.00 L412.92,159.12 L413.55,157.99 L411.84,159.66 L412.66,158.64 L410.62,159.65 L413.26,157.47 L412.43,157.45 L413.65,157.21 L412.98,156.93 L415.45,156.17 L414.98,158.33 Z M404.26,156.42 L405.95,155.22 L407.50,155.14 L404.26,156.42 Z M409.91,155.31 L412.44,153.98 L411.28,154.87 L412.57,155.37 L410.54,156.44 L410.78,155.60 L409.91,155.31 Z M407.78,161.50 L404.82,163.30 L405.89,161.54 L404.66,161.85 L405.64,161.38 L405.05,161.30 L405.81,160.71 L405.88,160.21 L405.09,160.83 L405.24,160.13 L403.93,160.45 L404.82,160.04 L403.52,159.77 L405.44,159.66 L404.86,158.91 L406.57,158.06 L404.46,158.08 L404.92,157.55 L405.68,157.42 L406.82,156.60 L407.60,155.02 L406.62,154.39 L408.89,154.09 L407.96,155.64 L409.16,155.99 L409.21,158.91 L408.24,158.10 L406.69,159.07 L408.48,159.09 L407.33,159.35 L408.59,159.58 L407.37,160.55 L408.82,160.14 L406.42,161.73 L407.78,161.50 Z M411.75,153.70 L410.01,154.63 L409.52,154.10 L410.64,153.41 L411.75,153.70 Z M414.13,154.05 L412.79,155.29 L412.26,154.64 L413.33,153.17 L414.13,154.05 Z M317.47,153.07 L318.25,152.82 L318.94,152.77 L317.47,153.07 Z M304.15,152.66 L305.03,152.96 L303.48,153.00 L304.15,152.66 Z M315.11,152.96 L316.48,152.86 L314.04,153.70 L315.11,152.96 Z M318.27,152.53 L317.11,153.11 L316.66,153.02 L318.27,152.53 Z M411.79,152.34 L412.88,151.45 L413.07,152.63 L410.94,153.09 L411.79,152.34 Z M408.78,151.60 L404.28,155.45 L404.98,154.16 L403.66,154.96 L403.67,155.45 L403.01,155.98 L403.68,154.57 L404.54,154.09 L403.85,154.24 L406.08,152.88 L405.13,152.77 L406.52,152.30 L405.48,152.13 L406.18,151.14 L408.07,150.95 L406.89,152.35 L408.78,151.60 Z M408.73,150.21 L412.86,150.72 L411.23,152.51 L410.71,151.25 L409.71,153.35 L407.52,153.46 L409.37,151.13 L408.87,151.39 L408.78,151.37 L408.73,150.21 Z M325.44,149.14 L326.43,149.59 L324.91,149.86 L324.39,150.25 L323.88,150.28 L325.44,149.14 Z M402.88,148.45 L401.63,150.25 L400.59,150.36 L402.88,148.45 Z M406.51,148.39 L401.51,155.00 L401.70,152.92 L403.39,152.07 L401.78,152.56 L403.10,151.65 L401.83,152.13 L402.92,151.25 L401.83,151.27 L403.83,150.07 L403.17,149.78 L404.18,148.89 L403.22,148.33 L405.57,147.18 L404.92,147.81 L406.06,147.59 L406.51,148.39 Z M329.51,145.30 L328.58,145.03 L329.09,144.80 L329.51,145.30 Z M332.75,146.77 L330.69,147.89 L328.55,147.38 L327.72,147.89 L329.03,147.65 L328.61,148.61 L326.68,148.32 L327.06,148.85 L324.03,149.31 L321.48,151.07 L318.85,151.75 L322.91,149.55 L320.33,150.50 L321.87,149.63 L320.84,149.43 L319.48,149.66 L321.20,149.66 L318.78,151.12 L318.60,150.35 L319.88,148.84 L319.20,148.66 L322.19,147.04 L324.76,146.66 L323.75,147.23 L324.45,147.29 L323.89,148.00 L323.89,148.59 L324.21,148.78 L325.35,146.65 L326.48,146.82 L325.64,146.29 L326.16,145.74 L327.79,145.26 L326.87,146.77 L328.45,145.53 L328.80,146.30 L330.11,145.61 L330.15,144.61 L331.60,145.19 L331.04,145.38 L330.19,146.20 L333.02,145.17 L331.50,146.34 L332.75,146.77 Z M403.75,144.15 L403.00,145.24 L402.46,145.53 L403.75,144.15 Z M329.90,144.30 L331.00,143.85 L331.78,144.68 L330.69,144.19 L329.90,144.30 Z M337.27,143.59 L338.06,143.20 L337.22,143.67 L337.27,143.59 Z M402.69,148.08 L403.44,146.80 L402.50,145.65 L403.86,144.70 L404.28,145.53 L403.89,144.22 L404.88,143.44 L405.26,143.45 L404.85,144.20 L405.12,144.34 L405.84,143.42 L408.26,143.57 L406.47,144.96 L408.65,143.88 L410.06,144.52 L409.15,145.53 L408.40,144.99 L408.40,145.88 L405.71,144.68 L406.56,146.21 L408.68,146.04 L407.75,147.50 L406.53,147.67 L404.80,146.00 L404.39,147.68 L402.69,148.08 Z M412.60,143.34 L413.31,142.74 L413.89,143.43 L413.85,143.57 L412.60,143.34 Z M409.97,148.12 L406.08,150.25 L408.36,148.06 L409.08,148.43 L409.43,148.08 L408.79,147.53 L410.01,147.23 L408.98,146.93 L411.71,143.67 L411.07,144.04 L411.77,142.51 L411.82,143.73 L414.02,143.73 L412.70,146.98 L413.12,144.12 L411.82,145.59 L411.83,147.69 L411.06,147.42 L411.16,148.30 L409.97,148.12 Z M337.81,142.80 L336.04,143.84 L336.20,143.17 L332.12,144.72 L331.26,144.05 L333.88,143.23 L335.75,141.96 L335.78,142.86 L337.56,142.42 L336.44,143.36 L337.81,142.80 Z M336.33,142.02 L337.47,141.15 L337.92,141.15 L336.33,142.02 Z M300.18,140.80 L303.08,140.09 L299.68,141.61 L300.18,140.80 Z M340.63,139.39 L339.60,139.55 L340.74,139.32 L340.63,139.39 Z M348.95,137.21 L350.00,136.85 L348.92,137.31 L348.95,137.21 Z M337.87,137.14 L337.47,136.93 L338.16,136.80 L337.87,137.14 Z M351.21,136.59 L351.82,136.49 L350.80,136.83 L351.21,136.59 Z M378.83,134.22 L381.10,133.45 L378.25,134.55 L378.83,134.22 Z M365.11,133.26 L364.33,133.67 L363.47,133.83 L363.84,133.56 L364.07,133.67 L365.11,133.26 Z M366.04,133.08 L365.24,133.57 L364.39,133.75 L366.04,133.08 Z M365.93,132.65 L365.08,133.13 L364.32,133.45 L365.93,132.65 Z M364.92,133.05 L363.70,133.34 L365.81,132.43 L364.92,133.05 Z M370.36,131.93 L371.31,131.78 L363.97,134.66 L371.14,131.59 L370.36,131.93 Z M366.74,131.47 L366.38,131.93 L366.07,131.86 L366.74,131.47 Z M378.45,131.63 L379.70,131.21 L378.40,131.67 L378.45,131.63 Z M373.61,130.87 L375.41,131.24 L375.43,131.29 L372.12,132.01 L373.61,130.87 Z M366.99,131.89 L369.29,130.85 L366.72,132.57 L366.99,131.89 Z M351.10,130.70 L350.23,131.44 L349.60,131.55 L351.10,130.70 Z M374.72,130.94 L377.80,130.29 L376.01,130.81 L374.72,130.94 Z M370.92,129.88 L371.54,129.58 L371.87,129.73 L371.52,129.95 L370.92,129.88 Z M369.15,129.51 L369.74,129.47 L369.09,129.84 L369.15,129.51 Z M368.50,129.76 L368.25,129.48 L368.81,129.32 L368.50,129.76 Z M369.28,129.09 L369.94,128.42 L370.43,128.51 L370.09,129.02 L369.28,129.09 Z M327.68,113.61 L327.31,114.12 L326.03,113.97 L327.68,113.61 Z M366.01,82.99 L367.33,82.10 L367.67,81.98 L366.01,82.99 Z M450.77,81.27 L451.59,81.92 L450.45,81.26 L450.77,81.27 Z M367.82,81.88 L369.45,81.10 L370.65,80.70 L367.82,81.88 Z M370.88,80.63 L372.38,80.04 L372.90,79.91 L370.88,80.63 Z M373.00,79.84 L374.96,79.16 L375.73,79.01 L373.00,79.84 Z M378.49,78.73 L377.52,78.64 L376.76,78.80 L377.41,78.59 L378.49,78.73 Z M428.18,78.01 L427.54,77.93 L426.81,77.63 L427.17,77.59 L428.18,78.01 Z M570.73,343.39 L571.13,343.40 L570.69,343.49 L570.73,343.39 Z M571.17,343.40 L571.56,343.15 L571.58,343.28 L571.17,343.40 Z M572.15,342.57 L572.23,343.05 L571.65,343.24 L572.15,342.57 Z M574.69,342.48 L574.37,342.49 L574.90,342.33 L574.69,342.48 Z M573.14,342.77 L573.21,342.62 L573.12,342.95 L573.14,342.77 Z M575.37,342.12 L575.33,342.24 L574.92,342.41 L575.37,342.12 Z M575.98,341.84 L576.20,341.87 L575.92,341.91 L575.98,341.84 Z M579.56,338.64 L578.82,339.75 L577.49,341.02 L577.39,341.02 L578.90,339.34 L578.90,338.99 L579.56,338.64 Z M580.04,337.70 L579.81,338.21 L579.69,338.26 L580.04,337.70 Z M580.37,336.61 L580.27,336.40 L580.44,336.27 L580.37,336.61 Z M570.78,331.77 L571.45,331.96 L570.64,331.34 L570.78,331.77 Z M570.53,330.71 L570.58,330.47 L570.60,330.97 L570.53,330.71 Z M571.22,331.69 L571.08,330.98 L570.94,330.43 L571.23,330.71 L571.22,331.69 Z M570.49,329.81 L570.59,330.08 L570.50,330.34 L570.49,329.81 Z M492.46,330.09 L492.55,334.05 L492.87,327.36 L492.46,330.09 Z M569.26,326.31 L569.15,325.99 L569.50,326.66 L569.26,326.31 Z M494.11,324.63 L495.41,323.51 L492.83,327.26 L494.11,324.63 Z M581.89,327.57 L581.16,323.46 L581.24,323.42 L581.89,327.57 Z M496.05,322.51 L496.77,322.14 L495.51,323.46 L496.05,322.51 Z M580.62,321.47 L580.58,321.33 L580.57,321.22 L580.62,321.47 Z M497.15,321.43 L499.37,320.58 L496.84,322.14 L497.15,321.43 Z M500.22,319.86 L500.09,319.79 L500.55,319.61 L500.22,319.86 Z M580.42,319.63 L581.17,319.13 L580.56,321.20 L580.42,319.63 Z M528.73,316.21 L528.80,316.17 L528.91,316.21 L528.73,316.21 Z M532.02,316.04 L531.88,316.02 L532.03,316.00 L532.02,316.04 Z M533.58,315.07 L533.96,314.96 L533.51,315.21 L533.58,315.07 Z M509.02,314.34 L509.54,314.50 L507.16,315.98 L509.02,314.34 Z M538.31,313.55 L538.33,313.60 L538.03,313.67 L538.31,313.55 Z M525.35,313.00 L524.59,313.59 L523.75,312.91 L525.35,313.00 Z M559.39,312.68 L558.93,312.35 L559.58,312.37 L559.39,312.68 Z M560.00,312.76 L561.71,311.89 L559.44,312.72 L560.00,312.76 Z M537.11,311.71 L537.36,312.01 L537.03,312.06 L537.11,311.71 Z M537.92,311.63 L538.23,311.60 L538.10,311.85 L537.92,311.63 Z M561.92,311.75 L562.38,311.55 L561.87,311.80 L561.92,311.75 Z M538.40,310.84 L538.62,310.88 L538.30,310.95 L538.40,310.84 Z M538.47,310.57 L538.32,310.81 L538.12,310.97 L538.47,310.57 Z M540.34,311.86 L540.76,310.18 L540.84,310.56 L540.77,310.98 L540.60,311.48 L540.34,311.86 Z M537.87,309.64 L537.95,309.57 L537.91,309.66 L537.87,309.64 Z M539.24,309.44 L538.83,310.26 L538.26,310.14 L539.24,309.44 Z M540.41,309.17 L540.61,309.15 L540.39,309.19 L540.41,309.17 Z M543.13,309.20 L542.80,309.11 L543.18,309.15 L543.13,309.20 Z M539.88,309.01 L539.78,309.28 L539.47,309.07 L539.88,309.01 Z M541.85,308.90 L542.62,309.11 L541.53,308.99 L541.85,308.90 Z M544.90,308.79 L544.94,308.98 L543.80,309.03 L544.90,308.79 Z M549.14,308.45 L553.21,308.03 L549.42,308.49 L549.14,308.45 Z M579.59,306.07 L579.74,304.99 L580.16,304.59 L579.59,306.07 Z M395.16,293.35 L394.50,293.21 L394.35,292.12 L394.55,292.16 L395.16,293.35 Z M593.65,292.05 L593.60,292.27 L593.57,292.27 L593.65,292.05 Z M389.99,290.62 L390.56,290.98 L389.97,290.81 L389.99,290.62 Z M396.52,290.44 L395.38,289.42 L396.42,289.83 L396.52,290.44 Z M601.75,287.07 L602.18,286.76 L601.94,287.17 L601.75,287.07 Z M388.28,286.25 L389.55,286.61 L388.46,286.73 L388.28,286.25 Z M387.85,285.79 L388.01,286.15 L387.35,286.07 L387.85,285.79 Z M391.86,285.92 L390.36,286.50 L390.01,285.89 L391.86,285.92 Z M602.88,285.65 L603.06,285.25 L603.21,285.18 L602.88,285.65 Z M604.81,283.68 L606.10,283.06 L604.43,284.06 L604.81,283.68 Z M609.99,282.07 L610.32,282.40 L609.87,282.11 L609.99,282.07 Z M607.57,282.32 L609.53,281.92 L609.77,281.99 L607.57,282.32 Z M611.29,281.45 L612.56,280.54 L610.35,282.69 L611.29,281.45 Z M613.17,280.02 L613.57,279.84 L612.91,280.25 L613.17,280.02 Z M613.69,279.75 L614.16,279.44 L615.13,279.01 L613.69,279.75 Z M617.39,276.00 L617.33,276.69 L616.51,278.63 L615.29,279.07 L616.55,278.45 L617.39,276.00 Z M616.69,275.15 L616.83,274.62 L616.85,275.19 L616.69,275.15 Z M619.27,265.38 L619.33,265.45 L618.91,265.90 L619.27,265.38 Z M619.33,265.19 L619.86,264.65 L619.34,265.25 L619.33,265.19 Z M618.33,262.13 L618.68,262.13 L618.31,262.61 L618.33,262.13 Z M618.79,261.02 L618.46,261.12 L618.71,260.88 L618.79,261.02 Z M621.44,262.96 L623.64,260.27 L622.78,261.55 L621.76,262.74 L621.44,262.96 Z M628.88,253.70 L629.62,253.27 L629.22,253.65 L628.88,253.70 Z M630.12,252.60 L631.15,251.52 L629.95,252.92 L630.12,252.60 Z M636.54,246.18 L636.62,246.23 L635.26,246.59 L636.54,246.18 Z M632.32,246.27 L632.95,246.43 L631.79,247.04 L632.32,246.27 Z M638.08,245.95 L639.63,245.43 L637.48,246.18 L636.96,246.30 L636.68,246.26 L636.93,246.27 L638.08,245.95 Z M640.54,244.60 L644.61,243.61 L640.44,245.23 L634.63,246.47 L635.24,246.54 L633.05,246.32 L636.39,244.37 L640.67,244.14 L642.74,243.07 L640.54,244.60 Z M646.30,242.67 L646.27,243.13 L646.01,243.17 L646.30,242.67 Z M644.44,242.40 L644.06,242.55 L644.72,242.29 L644.44,242.40 Z M652.78,242.19 L654.15,241.73 L654.29,242.39 L654.20,242.55 L652.78,242.19 Z M652.02,241.89 L652.05,241.52 L652.14,241.46 L652.02,241.89 Z M651.72,241.23 L651.76,241.87 L650.08,241.96 L651.72,241.23 Z M647.91,240.58 L647.82,241.07 L647.59,241.27 L647.91,240.58 Z M654.83,240.28 L654.95,240.25 L654.49,240.74 L654.83,240.28 Z M647.80,241.29 L648.84,240.08 L648.45,241.11 L647.80,241.29 Z M407.84,211.50 L408.12,211.44 L407.83,211.78 L407.84,211.50 Z M418.97,205.31 L418.96,206.00 L418.09,206.30 L418.55,205.57 L418.97,205.31 Z M419.43,204.16 L418.77,204.71 L419.34,204.03 L419.43,204.16 Z M419.70,202.32 L420.03,201.79 L419.96,202.07 L419.70,202.32 Z M421.19,202.50 L420.33,202.53 L420.24,201.15 L421.33,200.09 L421.68,199.99 L420.44,200.98 L420.47,202.33 L420.89,201.83 L421.19,202.50 Z M420.98,199.03 L420.84,199.76 L420.38,199.86 L420.98,199.03 Z M421.74,198.88 L421.94,199.01 L421.65,199.17 L421.74,198.88 Z M420.38,199.23 L419.47,199.38 L420.01,198.71 L420.38,199.23 Z M421.97,198.45 L421.40,198.24 L420.51,198.80 L421.34,198.17 L421.97,198.45 Z M422.46,198.03 L422.40,198.45 L422.40,198.01 L422.46,198.03 Z M248.66,167.46 L248.81,167.66 L248.50,167.61 L248.66,167.46 Z M283.22,162.70 L283.17,163.05 L282.90,163.05 L283.22,162.70 Z M277.83,160.42 L277.40,160.74 L277.26,160.54 L277.83,160.42 Z M276.55,160.29 L276.77,160.48 L276.22,160.53 L276.55,160.29 Z M284.17,159.71 L284.15,159.92 L283.95,159.87 L284.17,159.71 Z M290.05,157.19 L290.33,157.23 L290.15,157.34 L290.05,157.19 Z M303.51,155.60 L303.20,155.92 L303.13,155.82 L303.51,155.60 Z M304.13,154.68 L303.83,155.02 L303.63,155.10 L303.77,154.89 L304.13,154.68 Z M300.31,153.92 L299.99,154.19 L299.86,154.05 L300.31,153.92 Z M324.87,147.26 L324.41,147.76 L324.26,147.84 L324.87,147.26 Z M333.60,144.84 L333.38,145.31 L333.03,145.09 L333.60,144.84 Z M331.76,144.85 L331.93,145.06 L331.63,144.99 L331.76,144.85 Z M334.02,142.78 L333.59,142.95 L333.60,142.83 L334.02,142.78 Z M304.18,140.59 L304.01,140.96 L303.70,141.10 L304.18,140.59 Z M303.87,140.46 L303.60,140.75 L303.33,140.86 L303.87,140.46 Z M362.02,127.29 L362.70,127.04 L362.45,127.22 L362.02,127.29 Z M314.63,116.77 L314.75,116.82 L314.57,116.82 L314.63,116.77 Z M172.89,183.45 L173.54,183.05 L172.90,183.51 L172.89,183.45 Z M174.39,182.71 L174.82,182.57 L174.07,182.98 L174.39,182.71 Z M177.66,180.14 L178.13,180.21 L177.59,180.42 L177.66,180.14 Z M189.15,179.82 L189.07,180.46 L188.60,180.45 L189.15,179.82 Z M190.90,179.94 L190.33,179.94 L189.94,180.26 L190.33,179.64 L190.90,179.94 Z M191.44,179.48 L191.28,179.82 L190.80,179.62 L191.44,179.48 Z M183.70,179.78 L180.80,181.29 L180.32,180.90 L181.60,180.33 L181.46,179.50 L183.70,179.78 Z M186.45,179.34 L184.87,180.70 L182.25,180.93 L185.32,180.01 L186.45,179.34 Z M192.84,179.25 L193.34,179.15 L192.76,179.31 L192.84,179.25 Z M188.70,180.18 L185.92,181.19 L186.50,180.58 L185.07,181.32 L189.35,179.02 L188.19,179.78 L188.70,180.18 Z M192.06,179.11 L192.80,179.03 L192.37,179.13 L192.06,179.11 Z M191.33,178.99 L191.82,178.39 L192.38,178.39 L192.24,178.83 L191.33,178.99 Z M201.62,178.23 L206.45,178.43 L203.60,178.83 L201.62,178.23 Z M209.85,176.92 L210.77,177.12 L208.96,177.44 L209.85,176.92 Z M203.18,176.64 L199.52,178.71 L195.10,178.87 L203.18,176.64 Z M216.60,175.97 L216.62,176.27 L216.21,176.26 L216.60,175.97 Z M220.78,174.97 L220.14,175.51 L218.89,175.77 L220.10,175.02 L220.78,174.97 Z M223.26,174.42 L223.53,174.70 L222.89,174.74 L223.26,174.42 Z M226.07,173.90 L225.31,174.47 L224.26,174.27 L225.39,173.84 L226.07,173.90 Z M224.24,173.75 L224.87,173.71 L224.19,173.95 L224.24,173.75 Z M226.69,173.02 L226.94,173.16 L226.24,173.47 L226.69,173.02 Z M238.51,170.16 L230.50,173.66 L228.39,174.18 L235.67,170.47 L238.51,170.16 Z M247.02,168.58 L248.23,168.30 L246.81,169.03 L247.02,168.58 Z M246.60,168.97 L242.86,170.56 L237.04,171.40 L243.73,169.52 L244.70,169.01 L243.33,168.38 L244.68,167.65 L246.75,167.38 L245.80,168.38 L248.18,167.55 L247.88,168.01 L245.86,168.61 L245.18,169.20 L246.60,168.97 Z M252.93,166.88 L253.02,167.15 L252.36,166.96 L252.93,166.88 Z M251.04,166.14 L251.88,166.68 L249.61,167.19 L251.04,166.14 Z M253.65,165.70 L252.05,166.72 L252.64,165.90 L253.65,165.70 Z M285.05,162.05 L285.60,162.07 L284.85,162.33 L285.05,162.05 Z M285.71,161.38 L285.30,161.81 L284.58,161.97 L285.27,161.30 L285.71,161.38 Z M285.71,160.69 L284.32,161.42 L286.07,160.24 L285.71,160.69 Z M283.77,160.87 L284.35,160.64 L280.76,162.38 L284.77,159.98 L283.77,160.87 Z M271.11,159.26 L270.75,159.32 L271.16,159.15 L271.11,159.26 Z M181.89,371.30 L182.69,374.53 L177.79,377.60 L176.89,376.85 L176.91,372.60 L178.43,371.12 L178.66,369.38 L181.89,371.30 Z M175.23,367.40 L175.46,367.87 L174.66,367.80 L175.23,367.40 Z M173.35,365.46 L174.31,366.35 L173.58,366.54 L173.35,365.46 Z M178.71,366.13 L178.26,367.04 L176.28,367.42 L175.24,365.43 L175.92,364.73 L178.71,366.13 Z M175.32,363.89 L174.52,364.60 L172.33,364.26 L172.72,363.58 L175.32,363.89 Z M170.56,362.79 L168.45,363.15 L167.89,361.44 L169.71,360.63 L170.56,362.79 Z M158.01,359.78 L159.00,359.41 L158.08,360.20 L158.01,359.78 Z M163.40,357.96 L162.26,359.67 L160.74,359.00 L162.18,357.46 L163.40,357.96 Z M1815.57,181.06 L1821.04,182.61 L1820.09,182.71 L1815.57,181.06 Z M1812.46,179.90 L1813.08,180.02 L1813.66,180.30 L1813.41,180.30 L1812.59,179.98 L1812.46,179.90 Z M1812.69,179.04 L1813.46,179.22 L1813.63,179.50 L1812.69,179.04 Z M1817.68,178.75 L1818.71,179.68 L1817.38,179.11 L1817.68,178.75 Z M1808.01,178.23 L1809.09,179.37 L1808.16,179.36 L1808.39,179.96 L1807.54,179.58 L1808.01,178.23 Z M1798.86,176.99 L1798.56,176.76 L1799.03,176.88 L1798.86,176.99 Z M1787.37,176.05 L1788.76,176.86 L1786.81,176.52 L1787.37,176.05 Z M1788.21,174.82 L1788.07,174.69 L1788.64,174.86 L1788.21,174.82 Z M1784.21,174.14 L1782.74,174.61 L1779.53,173.59 L1782.06,173.19 L1784.21,174.14 Z M254.28,166.64 L254.64,166.97 L253.61,166.88 L254.28,166.64 Z M267.91,165.00 L268.22,165.19 L267.84,165.27 L267.91,165.00 Z M267.57,164.87 L267.03,165.27 L266.53,164.97 L266.93,164.51 L267.57,164.87 Z M271.11,162.16 L272.33,161.73 L271.07,162.59 L271.11,162.16 Z M266.88,163.46 L266.02,163.02 L257.34,164.97 L261.53,162.32 L266.09,161.33 L267.02,161.42 L266.16,162.95 L266.88,163.46 Z M274.92,160.79 L275.89,160.99 L274.95,161.33 L274.92,160.79 Z M283.19,159.62 L282.48,160.25 L282.08,159.95 L282.29,159.70 L283.19,159.62 Z M282.36,159.43 L280.71,160.46 L279.55,160.99 L282.36,159.43 Z M284.45,159.08 L283.87,159.26 L283.40,159.36 L284.45,159.08 Z M293.08,156.56 L292.74,156.75 L292.26,157.05 L292.62,156.69 L293.08,156.56 Z M249.90,152.55 L249.59,152.90 L249.22,152.45 L249.90,152.55 Z M250.27,149.19 L251.97,148.89 L250.20,149.70 L250.27,149.19 Z M289.47,133.79 L285.60,134.87 L282.90,133.13 L283.28,132.31 L290.28,131.10 L289.93,131.67 L291.37,131.86 L289.47,133.79 Z M263.58,131.57 L262.14,131.69 L261.38,130.76 L262.70,130.16 L262.28,130.87 L263.58,131.57 Z M293.21,116.50 L293.09,116.89 L293.18,116.32 L293.21,116.50 Z M296.59,115.00 L296.64,115.09 L296.59,115.05 L296.59,115.00 Z M292.48,115.44 L292.37,115.32 L291.81,114.94 L292.36,115.21 L292.48,115.44 Z M290.96,114.74 L290.60,114.71 L291.59,114.87 L290.96,114.74 Z M291.73,113.81 L291.80,113.82 L291.78,113.82 L291.73,113.81 Z M291.73,113.81 L291.49,113.78 L291.57,113.77 L291.73,113.81 Z M299.49,115.44 L292.91,117.37 L293.57,116.39 L292.24,116.00 L292.96,115.54 L291.70,114.60 L287.42,115.04 L290.72,112.78 L289.95,113.74 L292.13,113.99 L295.62,113.30 L295.03,114.45 L297.42,115.44 L299.49,115.44 Z M664.74,225.52 L665.38,225.60 L665.08,225.90 L664.74,225.52 Z M665.88,224.79 L666.27,225.07 L665.82,225.09 L665.88,224.79 Z M667.91,223.68 L668.73,224.13 L667.45,224.55 L667.91,223.68 Z M150.99,352.57 L150.98,352.54 L151.00,352.55 L150.99,352.57 Z M137.46,349.32 L137.47,349.37 L137.43,349.35 L137.46,349.32 Z M122.90,340.65 L122.87,340.63 L122.89,340.62 L122.90,340.65 Z M104.97,336.07 L104.99,336.17 L104.95,336.14 L104.97,336.07 Z M94.04,334.31 L94.07,334.31 L94.06,334.33 L94.04,334.31 Z M77.19,320.22 L77.29,320.19 L77.19,320.23 L77.19,320.22 Z M416.33,207.36 L416.72,207.29 L416.40,207.53 L416.33,207.36 Z M416.38,206.51 L415.99,207.12 L415.77,207.28 L415.80,206.87 L416.38,206.51 Z M569.07,343.42 L569.15,343.40 L569.06,343.44 L569.07,343.42 Z M569.17,343.35 L569.07,343.18 L569.01,343.18 L569.17,343.35 Z M572.87,342.85 L572.86,342.78 L572.90,342.80 L572.87,342.85 Z M573.59,342.79 L573.70,342.73 L573.60,342.80 L573.59,342.79 Z M572.64,342.75 L572.75,342.77 L572.73,342.83 L572.64,342.75 Z M572.39,342.55 L572.52,342.84 L572.36,342.74 L572.39,342.55 Z M573.30,342.53 L573.40,342.57 L573.40,342.69 L573.30,342.53 Z M576.63,341.55 L576.73,341.54 L576.57,341.62 L576.63,341.55 Z M577.24,341.11 L577.28,341.07 L577.04,341.32 L577.24,341.11 Z M575.23,338.89 L575.42,338.92 L575.26,339.05 L575.23,338.89 Z M575.07,338.65 L575.17,338.83 L575.03,338.68 L575.07,338.65 Z M573.94,335.57 L574.03,335.93 L573.84,335.86 L573.94,335.57 Z M573.73,335.44 L573.50,335.66 L573.49,335.52 L573.73,335.44 Z M572.54,335.28 L572.78,335.36 L572.60,335.50 L572.54,335.28 Z M573.32,335.25 L573.43,335.40 L573.34,335.55 L573.32,335.25 Z M570.70,318.10 L570.72,318.24 L570.62,318.18 L570.70,318.10 Z M570.79,317.93 L570.70,317.80 L570.78,317.82 L570.79,317.93 Z M529.49,316.27 L530.17,316.07 L530.08,316.13 L529.99,316.17 L529.49,316.27 Z M531.14,316.09 L531.27,316.22 L530.84,316.06 L531.14,316.09 Z M569.34,315.57 L569.43,315.67 L569.28,315.69 L569.34,315.57 Z M531.50,314.92 L531.35,315.16 L531.44,314.94 L531.50,314.92 Z M534.11,314.79 L534.22,314.76 L534.07,314.84 L534.11,314.79 Z M533.46,313.46 L533.91,313.83 L533.56,313.65 L533.46,313.46 Z M539.00,313.11 L539.05,313.10 L538.73,313.36 L539.00,313.11 Z M539.51,312.69 L539.56,312.64 L539.59,312.63 L539.51,312.69 Z M540.10,312.13 L539.77,312.44 L540.21,311.99 L540.10,312.13 Z M581.38,301.92 L582.18,301.25 L581.45,302.08 L581.38,301.92 Z M582.25,300.96 L582.63,300.18 L582.58,300.61 L582.25,300.96 Z M397.71,287.79 L397.82,287.90 L397.69,287.97 L397.71,287.79 Z M617.59,267.34 L617.75,266.71 L618.01,266.37 L618.17,266.92 L617.59,267.34 Z M642.06,243.71 L642.55,243.57 L642.49,243.85 L642.06,243.71 Z M643.27,243.46 L643.58,243.44 L643.39,243.72 L643.27,243.46 Z M650.01,242.54 L650.08,242.46 L650.11,242.55 L650.01,242.54 Z M649.84,241.47 L650.23,241.44 L649.70,241.56 L649.84,241.47 Z M650.30,241.34 L651.20,240.98 L650.32,241.39 L650.30,241.34 Z M409.62,213.15 L409.74,213.00 L409.98,213.31 L409.62,213.15 Z M409.53,212.86 L409.68,212.79 L409.62,212.93 L409.53,212.86 Z M399.78,162.62 L399.62,162.92 L399.49,163.00 L399.78,162.62 Z M411.29,161.14 L411.32,161.40 L411.20,161.40 L411.29,161.14 Z M403.62,159.36 L404.02,159.14 L404.15,159.16 L403.62,159.36 Z M330.64,148.19 L330.89,148.14 L330.51,148.26 L330.64,148.19 Z M406.42,143.17 L406.15,143.07 L406.75,142.88 L406.42,143.17 Z M409.01,142.79 L408.46,142.59 L409.11,142.58 L409.01,142.79 Z M341.06,139.39 L341.26,139.41 L340.84,139.55 L341.06,139.39 Z M343.61,138.39 L343.91,138.43 L343.56,138.53 L343.61,138.39 Z M344.66,138.31 L344.74,138.48 L344.57,138.36 L344.66,138.31 Z M343.11,138.20 L343.51,138.22 L343.01,138.27 L343.11,138.20 Z M368.46,136.72 L368.85,136.54 L368.38,136.79 L368.46,136.72 Z M346.08,132.59 L346.06,132.91 L345.96,132.92 L346.08,132.59 Z M368.58,132.06 L369.26,132.00 L368.38,132.25 L368.58,132.06 Z M262.62,129.76 L262.21,130.06 L262.64,129.72 L262.62,129.76 Z M374.79,129.06 L375.38,128.66 L375.42,128.70 L374.79,129.06 Z M373.57,128.51 L373.63,128.79 L373.00,128.67 L373.57,128.51 Z M301.99,122.27 L301.70,122.39 L302.21,122.13 L301.99,122.27 Z M313.90,106.45 L314.07,106.50 L313.78,106.56 L313.90,106.45 Z M316.11,102.28 L316.06,102.41 L315.96,102.39 L316.11,102.28 Z M320.49,102.34 L321.05,102.21 L320.34,102.42 L320.49,102.34 Z M321.14,102.21 L322.07,102.00 L320.86,102.42 L321.14,102.21 Z M324.10,101.47 L326.59,100.81 L324.01,101.51 L324.10,101.47 Z M327.09,100.66 L330.40,99.92 L326.80,100.76 L327.09,100.66 Z M330.74,99.79 L331.34,99.66 L330.63,99.87 L330.74,99.79 Z M331.82,99.52 L332.73,99.31 L331.45,99.68 L331.82,99.52 Z M334.62,98.88 L333.94,99.05 L333.41,99.15 L333.54,99.08 L334.62,98.88 Z M334.62,98.88 L334.85,98.83 L334.97,98.82 L334.62,98.88 Z M335.41,98.73 L335.17,98.79 L334.97,98.81 L335.41,98.73 Z M335.41,98.73 L335.50,98.72 L335.51,98.71 L335.41,98.73 Z M338.51,98.16 L337.81,98.37 L335.52,98.71 L337.01,98.44 L338.51,98.16 Z"/>
</svg>
