<svg xmlns="http://www.w3.org/2000/svg" viewBox="0 0 2000 1000" role="img" aria-labelledby="title desc">
<title>Franca</title>
<desc>Generated world map layer for Modo Turistagem.</desc>
<style>
  path {
    fill: #ff6b00;
    stroke: #ffffff;
    stroke-width: 1;
    vector-effect: non-scaling-stroke;
  }
</style>
<path d="M707.47,479.21 L704.80,477.92 L707.22,474.74 L708.27,470.15 L706.37,467.54 L705.78,462.33 L708.85,457.24 L714.33,459.29 L717.56,462.16 L717.21,463.41 L717.81,462.50 L718.89,463.60 L718.73,465.78 L719.50,463.83 L720.07,464.09 L720.83,466.87 L716.95,472.93 L715.08,477.64 L713.52,478.85 L709.34,477.67 L707.47,479.21 Z M1008.24,184.26 L1009.50,186.38 L1011.07,186.06 L1013.75,188.87 L1016.07,189.10 L1015.81,190.76 L1018.19,190.70 L1018.95,189.67 L1019.16,191.82 L1022.03,193.55 L1026.45,193.74 L1027.96,195.54 L1031.21,195.48 L1034.95,196.72 L1032.27,201.60 L1032.40,204.81 L1031.46,205.72 L1029.53,205.38 L1029.06,206.17 L1029.86,206.32 L1027.13,208.60 L1024.95,213.01 L1025.85,213.30 L1027.42,211.53 L1028.87,211.74 L1028.82,213.29 L1030.09,214.64 L1029.05,215.87 L1030.85,217.77 L1030.39,218.86 L1028.25,219.52 L1030.23,221.16 L1030.50,222.01 L1029.47,222.91 L1030.19,224.60 L1033.49,225.04 L1032.83,227.33 L1029.18,229.63 L1028.88,230.92 L1026.46,231.86 L1020.99,230.06 L1021.90,229.19 L1020.93,228.73 L1020.12,230.02 L1019.64,229.54 L1019.55,228.93 L1019.31,228.60 L1019.57,229.54 L1019.95,229.99 L1015.73,228.84 L1011.72,231.43 L1011.41,234.28 L1012.10,235.46 L1008.87,236.10 L1006.34,235.96 L1005.00,234.40 L1000.58,233.07 L999.82,233.03 L999.76,233.95 L996.45,233.95 L989.49,231.70 L989.84,230.61 L987.95,229.83 L989.50,228.60 L990.60,222.78 L991.62,222.10 L991.01,221.45 L990.58,222.35 L991.45,216.75 L994.07,220.76 L994.27,220.15 L992.83,217.30 L990.68,215.92 L991.93,215.87 L991.15,214.98 L991.36,212.40 L988.11,211.26 L986.60,209.33 L987.22,208.06 L986.04,207.43 L986.43,206.66 L988.47,207.02 L987.14,206.38 L985.87,206.81 L984.63,206.49 L985.48,205.28 L983.34,205.32 L982.92,204.97 L983.71,205.01 L983.96,204.70 L983.98,204.59 L983.88,204.47 L982.62,204.35 L981.86,205.44 L981.95,203.94 L981.44,204.39 L980.81,204.15 L981.18,203.62 L980.40,204.10 L977.19,202.81 L976.05,203.50 L975.78,202.51 L974.41,202.12 L976.50,201.68 L975.23,201.32 L975.30,200.32 L975.44,200.62 L976.60,200.66 L976.98,200.55 L975.74,200.39 L976.52,199.82 L975.06,200.30 L974.20,200.14 L975.26,198.65 L978.04,198.05 L978.60,198.65 L981.53,197.23 L984.06,199.36 L985.79,198.25 L987.35,199.34 L987.53,198.25 L990.28,198.57 L989.36,197.96 L989.41,195.15 L988.17,194.22 L987.64,192.23 L990.76,192.39 L991.40,194.45 L995.61,194.83 L998.55,193.82 L997.00,193.45 L997.50,192.35 L1004.38,189.48 L1003.92,185.53 L1008.24,184.26 Z M1006.10,235.34 L1006.36,235.39 L1006.20,235.14 L1006.10,235.34 Z M674.60,404.49 L673.23,404.46 L672.65,402.11 L674.37,402.58 L674.60,404.49 Z M672.87,395.12 L672.77,395.94 L672.50,395.59 L672.87,395.12 Z M674.25,393.10 L674.07,393.35 L673.95,393.33 L674.25,393.10 Z M671.51,393.45 L671.31,394.98 L670.59,395.49 L670.23,393.29 L671.51,393.45 Z M671.94,393.96 L672.09,392.08 L673.54,393.65 L671.94,393.96 Z M1288.00,618.32 L1288.98,621.15 L1287.73,621.30 L1286.07,619.25 L1288.00,618.32 Z M1236.88,569.48 L1236.93,569.11 L1236.92,569.48 L1236.88,569.48 Z M1236.51,568.99 L1236.36,570.48 L1235.89,570.56 L1235.67,568.84 L1236.51,568.99 Z M1042.56,234.17 L1042.69,234.33 L1042.67,234.34 L1042.56,234.17 Z M1038.34,236.80 L1038.95,234.58 L1041.76,234.01 L1042.51,232.12 L1042.50,234.21 L1043.19,237.17 L1041.74,241.81 L1039.59,240.68 L1040.20,239.88 L1038.88,239.54 L1039.58,238.60 L1038.65,238.64 L1039.25,237.71 L1038.34,236.80 Z M990.69,214.18 L990.87,215.30 L989.95,213.88 L990.69,214.18 Z M990.41,212.97 L989.48,212.96 L989.24,212.70 L990.41,212.97 Z M985.39,210.02 L985.74,209.92 L985.88,210.06 L985.39,210.02 Z M986.22,208.12 L986.49,208.80 L985.77,208.07 L986.22,208.12 Z M981.33,205.93 L981.41,206.42 L981.23,206.00 L981.33,205.93 Z M972.77,199.53 L972.78,199.73 L972.57,199.66 L972.77,199.53 Z M670.84,396.07 L670.96,396.03 L670.90,396.11 L670.84,396.07 Z M671.16,395.90 L671.21,395.97 L671.09,396.04 L671.16,395.90 Z M1026.56,232.01 L1026.94,232.05 L1026.52,232.06 L1026.56,232.01 Z"/>
</svg>
