<svg xmlns="http://www.w3.org/2000/svg" viewBox="0 0 2000 1000" role="img" aria-labelledby="title desc">
<title>Irlanda do Norte</title>
<desc>Generated world map layer for Modo Turistagem.</desc>
<style>
  path {
    fill: #ff6b00;
    stroke: #ffffff;
    stroke-width: 1;
    vector-effect: non-scaling-stroke;
  }
</style>
<path d="M964.26,161.38 L965.16,161.39 L965.33,161.27 L965.54,160.90 L965.61,160.56 L965.95,160.68 L966.53,160.66 L967.36,160.47 L967.79,160.25 L968.05,160.35 L968.34,160.29 L968.83,160.48 L969.19,160.40 L969.45,160.46 L969.73,160.71 L969.59,161.25 L970.01,161.42 L969.91,161.78 L970.16,161.84 L970.35,162.01 L970.63,162.39 L970.71,162.70 L971.08,162.91 L970.72,162.56 L970.80,162.46 L970.93,162.49 L971.15,162.67 L971.19,162.86 L971.18,163.02 L971.00,163.23 L970.48,163.38 L970.27,163.55 L970.10,163.77 L970.18,163.93 L970.50,163.68 L970.91,163.50 L971.15,163.57 L971.71,163.52 L971.85,163.63 L971.94,163.97 L972.09,164.14 L972.13,164.44 L972.29,164.62 L972.13,164.96 L972.14,165.15 L972.01,165.28 L972.07,165.35 L971.88,165.46 L971.62,165.09 L971.78,164.78 L971.65,164.37 L971.35,164.15 L971.09,164.09 L971.11,164.24 L971.02,164.32 L971.42,164.44 L971.22,164.50 L971.36,164.56 L971.41,164.87 L971.23,165.22 L971.02,165.38 L971.60,165.20 L971.73,165.31 L971.70,165.69 L971.23,166.08 L971.13,165.99 L970.87,165.97 L970.30,166.08 L970.13,166.80 L969.46,167.19 L969.21,167.19 L969.14,167.12 L969.26,167.08 L968.86,166.98 L968.82,166.87 L968.06,166.77 L967.95,167.04 L967.69,167.09 L967.49,167.01 L966.80,167.16 L966.62,167.01 L966.79,166.44 L966.55,166.27 L966.33,166.35 L966.14,166.24 L965.93,165.91 L965.73,165.81 L965.85,165.72 L965.76,165.44 L965.16,165.03 L964.88,165.14 L964.65,165.40 L964.35,165.48 L964.38,165.59 L964.27,165.72 L964.54,165.96 L964.50,166.12 L964.06,166.27 L964.00,166.36 L964.07,166.44 L963.91,166.68 L963.83,166.68 L963.85,166.46 L963.71,166.52 L963.77,166.74 L963.39,166.70 L963.25,166.62 L963.31,166.57 L962.91,166.68 L962.43,166.60 L962.33,166.44 L962.02,166.25 L961.34,166.19 L961.25,165.76 L960.94,165.68 L960.73,165.35 L960.49,165.30 L959.99,164.75 L960.45,164.61 L960.78,164.29 L961.29,164.35 L962.12,163.94 L962.11,163.82 L961.92,163.88 L961.65,163.74 L961.51,163.78 L961.24,163.61 L961.25,163.46 L961.15,163.41 L961.54,163.21 L961.87,163.35 L962.42,163.13 L962.89,163.15 L962.91,162.86 L963.32,162.46 L963.38,162.06 L963.55,161.95 L963.58,161.65 L963.82,161.44 L964.10,161.41 L964.31,161.28 L964.26,161.38 Z M969.15,160.00 L969.05,160.17 L969.08,160.05 L968.98,159.99 L968.66,159.98 L968.87,159.89 L969.15,160.00 Z M974.00,158.82 L973.99,159.13 L973.67,159.19 L973.23,159.12 L972.87,158.92 L972.82,158.64 L972.88,158.53 L972.67,158.17 L972.87,157.74 L973.25,157.54 L973.65,157.71 L973.79,157.94 L973.87,158.22 L973.82,158.29 L974.01,158.44 L974.01,158.57 L973.86,158.61 L974.10,158.77 L974.00,158.82 Z M969.88,157.51 L969.90,157.78 L969.74,157.91 L969.41,158.07 L969.04,158.10 L968.98,158.24 L968.71,158.37 L968.60,158.34 L968.58,158.09 L968.92,157.91 L968.78,157.66 L968.57,157.59 L968.92,157.24 L968.57,157.21 L967.95,157.82 L967.77,157.79 L967.84,157.59 L967.78,157.55 L968.04,157.24 L967.89,157.16 L968.07,156.83 L968.59,156.60 L968.64,156.62 L968.55,156.85 L968.66,157.00 L968.63,156.85 L968.73,156.73 L969.45,156.31 L969.53,156.37 L969.59,157.10 L969.81,157.30 L969.76,157.44 L969.88,157.51 Z M974.41,157.51 L974.33,157.55 L973.95,157.20 L973.61,156.48 L973.75,156.42 L974.12,156.66 L974.37,157.08 L974.41,157.25 L974.33,157.40 L974.41,157.51 Z M971.46,155.13 L971.48,155.34 L971.25,155.54 L970.56,156.62 L970.29,156.78 L970.20,157.08 L969.92,157.13 L969.76,157.06 L969.67,156.64 L969.73,156.45 L970.08,156.25 L970.58,156.11 L970.16,156.14 L970.10,156.05 L970.29,155.77 L971.23,155.17 L971.46,155.13 Z"/>
</svg>
