<svg xmlns="http://www.w3.org/2000/svg" viewBox="0 0 2000 1000" role="img" aria-labelledby="title desc">
<title>Irlanda</title>
<desc>Generated world map layer for Modo Turistagem.</desc>
<style>
  path {
    fill: #ff6b00;
    stroke: #ffffff;
    stroke-width: 1;
    vector-effect: non-scaling-stroke;
  }
</style>
<path d="M965.72,160.31 L962.89,163.15 L961.15,163.41 L962.12,163.94 L959.99,164.75 L961.34,166.19 L963.69,166.75 L965.16,165.03 L966.80,167.16 L969.15,167.33 L967.91,167.78 L969.19,169.97 L968.50,171.16 L969.44,173.41 L967.02,176.84 L967.66,177.81 L965.77,177.44 L964.97,178.23 L965.11,177.96 L964.71,177.28 L964.59,178.15 L961.92,178.37 L959.92,179.98 L958.16,179.58 L958.63,180.31 L957.51,181.21 L954.30,181.93 L951.55,182.17 L953.29,180.79 L952.85,180.34 L950.06,181.38 L952.79,179.66 L949.28,180.18 L949.69,179.02 L952.07,178.07 L948.96,178.39 L948.87,177.91 L952.20,177.51 L951.29,176.56 L952.72,175.65 L954.43,175.61 L956.83,175.06 L955.99,174.46 L954.37,175.53 L951.40,175.73 L953.46,174.59 L954.62,172.32 L956.35,171.89 L950.62,170.78 L951.39,170.39 L950.65,169.96 L952.85,169.71 L951.96,168.77 L953.56,168.18 L951.84,168.10 L952.56,167.89 L952.42,166.76 L951.66,166.15 L951.14,166.85 L951.20,166.05 L952.72,165.46 L955.03,165.66 L955.54,166.57 L956.00,165.74 L958.40,166.21 L957.76,165.34 L960.28,163.69 L958.75,164.16 L957.27,163.43 L959.42,162.64 L958.89,161.66 L959.73,160.76 L961.61,160.88 L961.90,160.21 L961.81,160.56 L962.28,161.11 L962.59,160.11 L962.43,161.91 L963.37,161.35 L963.13,160.01 L964.32,160.05 L963.78,159.47 L965.72,160.31 Z M952.63,171.63 L953.00,171.72 L952.74,171.86 L952.63,171.63 Z M951.75,167.28 L951.78,168.09 L950.43,167.51 L951.75,167.28 Z M958.47,161.62 L958.76,161.81 L958.39,161.81 L958.47,161.62 Z M951.33,181.04 L951.71,181.06 L951.16,181.16 L951.33,181.04 Z M949.28,179.35 L949.41,179.52 L948.93,179.64 L949.28,179.35 Z M952.69,172.38 L952.84,172.64 L952.17,172.37 L952.69,172.38 Z"/>
</svg>
