<svg xmlns="http://www.w3.org/2000/svg" viewBox="0 0 2000 1000" role="img" aria-labelledby="title desc">
<title>Islandia</title>
<desc>Generated world map layer for Modo Turistagem.</desc>
<style>
  path {
    fill: #ff6b00;
    stroke: #ffffff;
    stroke-width: 1;
    vector-effect: non-scaling-stroke;
  }
</style>
<path d="M938.36,99.01 L935.72,100.45 L937.90,101.04 L936.82,102.43 L938.92,102.18 L937.81,103.67 L939.18,102.80 L941.67,103.60 L939.92,104.83 L941.69,104.95 L939.76,105.27 L941.83,105.42 L941.47,106.29 L938.86,106.15 L940.89,106.65 L939.52,106.69 L940.32,107.41 L937.57,107.39 L938.46,108.19 L935.54,110.26 L934.33,110.24 L934.43,110.06 L933.96,110.05 L933.82,109.70 L933.66,109.60 L933.40,109.55 L933.63,110.21 L927.57,112.75 L926.95,112.11 L926.71,112.77 L923.78,112.86 L922.66,113.42 L923.36,113.45 L922.56,114.25 L919.29,114.93 L913.42,114.13 L912.06,113.23 L913.06,113.12 L912.74,112.56 L911.95,113.22 L911.21,112.89 L911.88,112.93 L911.63,112.42 L909.59,112.27 L910.23,111.97 L903.34,112.69 L903.56,111.22 L906.24,111.41 L907.76,110.65 L906.87,110.43 L907.69,109.83 L908.98,109.73 L908.24,109.52 L906.24,109.99 L908.96,108.19 L906.12,109.22 L905.18,108.12 L905.47,108.24 L906.28,107.72 L905.35,108.06 L905.47,107.28 L899.57,107.79 L898.82,106.91 L908.03,106.15 L908.44,105.23 L905.19,105.43 L908.95,103.92 L906.68,104.03 L906.19,103.72 L907.14,103.46 L907.43,103.16 L905.84,103.63 L905.69,102.97 L900.00,104.18 L897.51,103.63 L898.61,102.94 L900.14,103.56 L900.50,103.49 L899.63,102.06 L901.57,103.07 L902.75,102.73 L901.77,102.50 L902.98,102.40 L903.24,102.18 L900.61,101.69 L903.22,101.86 L900.96,100.97 L902.70,101.10 L901.65,100.41 L902.73,100.52 L901.95,100.27 L902.57,99.96 L904.86,101.50 L905.55,100.74 L905.47,101.91 L906.14,101.16 L906.36,101.85 L906.80,100.52 L904.54,99.80 L907.03,99.58 L903.81,99.16 L904.88,98.58 L906.96,98.59 L909.59,100.92 L910.94,100.99 L909.78,101.24 L910.99,101.37 L910.13,102.25 L910.68,102.40 L908.91,102.25 L910.60,103.14 L909.83,103.96 L910.89,104.00 L911.14,105.45 L912.23,103.14 L913.29,102.65 L913.92,103.70 L914.90,102.80 L914.72,100.55 L916.02,100.34 L918.23,102.46 L918.59,100.68 L921.15,99.96 L923.78,102.91 L923.26,100.09 L926.05,101.50 L927.91,99.87 L930.74,100.27 L930.53,98.37 L932.63,98.21 L934.94,100.24 L938.36,99.01 Z M923.27,113.34 L923.61,113.28 L923.50,113.39 L923.27,113.34 Z M924.67,98.17 L924.83,98.15 L924.81,98.20 L924.67,98.17 Z M912.85,114.66 L913.04,114.75 L912.91,114.90 L912.85,114.66 Z M922.66,100.91 L922.87,101.07 L922.81,101.15 L922.66,100.91 Z"/>
</svg>
