<svg xmlns="http://www.w3.org/2000/svg" viewBox="0 0 2000 1000" role="img" aria-labelledby="title desc">
<title>Italia</title>
<desc>Generated world map layer for Modo Turistagem.</desc>
<style>
  path {
    fill: #ff6b00;
    stroke: #ffffff;
    stroke-width: 1;
    vector-effect: non-scaling-stroke;
  }
</style>
<path d="M1030.09,214.64 L1034.00,214.67 L1036.52,211.51 L1036.76,212.80 L1039.55,215.26 L1040.70,211.24 L1041.96,212.42 L1043.76,211.99 L1044.55,212.89 L1044.25,211.03 L1046.20,211.00 L1046.15,209.07 L1048.75,209.63 L1049.53,208.48 L1054.25,207.76 L1054.05,208.81 L1055.45,210.10 L1061.67,211.11 L1060.16,212.47 L1061.50,213.12 L1060.73,214.16 L1062.74,216.66 L1061.35,215.44 L1060.57,216.12 L1059.19,215.55 L1059.08,216.32 L1055.99,217.53 L1056.71,216.85 L1055.83,216.93 L1054.75,218.27 L1056.69,220.31 L1055.46,221.17 L1056.15,224.60 L1062.42,228.71 L1065.01,234.46 L1068.45,237.54 L1070.58,238.48 L1075.34,238.53 L1075.62,239.37 L1074.30,240.36 L1074.66,241.29 L1085.05,246.14 L1087.79,249.21 L1087.31,251.15 L1085.70,250.58 L1084.51,248.33 L1080.05,247.09 L1077.96,251.40 L1081.41,253.62 L1081.67,256.30 L1078.83,257.28 L1078.89,259.50 L1076.63,262.45 L1074.67,262.37 L1075.17,258.18 L1077.00,256.93 L1073.57,249.58 L1071.80,249.87 L1070.00,248.60 L1070.37,247.66 L1069.20,246.02 L1067.08,246.62 L1067.67,245.67 L1065.56,245.31 L1063.79,242.53 L1060.49,242.68 L1053.37,236.37 L1050.65,235.70 L1050.85,234.67 L1048.83,232.55 L1047.54,232.42 L1047.59,230.59 L1045.25,225.94 L1038.75,223.52 L1035.54,226.71 L1032.83,227.33 L1033.49,225.04 L1030.19,224.60 L1029.47,222.91 L1030.50,222.01 L1030.23,221.16 L1028.25,219.52 L1030.63,218.59 L1030.85,217.69 L1028.97,215.51 L1030.09,214.64 Z M1056.39,226.40 L1056.80,226.59 L1056.79,226.20 L1056.39,226.40 Z M1057.37,238.62 L1057.37,238.63 L1057.37,238.62 L1057.37,238.62 Z M1056.27,269.26 L1056.91,269.39 L1056.82,269.69 L1056.27,269.26 Z M1057.84,262.58 L1057.90,262.42 L1058.18,262.54 L1057.84,262.58 Z M1065.24,262.25 L1074.38,260.48 L1071.88,265.24 L1073.24,268.05 L1072.17,270.21 L1069.09,269.37 L1067.97,267.86 L1062.32,265.19 L1059.73,264.71 L1058.51,263.32 L1059.91,260.93 L1060.80,261.92 L1062.81,260.76 L1065.24,262.25 Z M1070.85,259.70 L1071.15,259.82 L1071.06,259.90 L1070.85,259.70 Z M1070.92,259.36 L1070.62,258.99 L1070.90,258.98 L1070.92,259.36 Z M1070.38,258.59 L1070.37,258.84 L1070.03,258.65 L1070.38,258.59 Z M1037.93,255.48 L1038.62,255.65 L1038.28,256.30 L1037.93,255.48 Z M1037.34,255.03 L1037.76,255.34 L1037.55,255.46 L1037.34,255.03 Z M1065.17,245.63 L1064.61,245.75 L1064.66,245.47 L1065.17,245.63 Z M1037.41,243.29 L1037.05,244.08 L1036.87,244.07 L1037.41,243.29 Z M1044.74,246.70 L1043.99,248.47 L1044.56,249.54 L1043.96,255.17 L1041.20,254.48 L1041.32,256.09 L1039.44,256.88 L1038.04,254.73 L1038.81,250.94 L1038.01,250.57 L1037.82,247.23 L1036.65,246.48 L1036.79,244.26 L1038.43,245.08 L1041.81,242.47 L1043.99,244.03 L1043.23,244.48 L1044.33,244.97 L1044.74,246.70 Z M1049.47,235.85 L1049.86,236.07 L1049.78,236.14 L1049.47,235.85 Z M1047.30,232.99 L1047.20,233.80 L1045.69,233.51 L1045.80,233.19 L1047.30,232.99 Z M1044.15,231.67 L1044.33,231.91 L1044.14,232.02 L1044.15,231.67 Z M1055.54,218.07 L1055.83,217.56 L1056.04,217.66 L1055.54,218.07 Z M1061.14,274.99 L1061.28,274.97 L1061.27,275.06 L1061.14,274.99 Z M1067.89,258.84 L1067.80,258.79 L1067.87,258.77 L1067.89,258.84 Z M1068.88,258.57 L1069.00,258.73 L1068.77,258.55 L1068.88,258.57 Z M1061.85,257.86 L1062.06,257.82 L1061.91,257.93 L1061.85,257.86 Z M1072.01,257.21 L1072.05,257.43 L1071.90,257.34 L1072.01,257.21 Z M1062.45,245.33 L1062.49,245.24 L1062.53,245.23 L1062.45,245.33 Z M1059.77,277.06 L1060.06,277.25 L1059.62,277.08 L1059.77,277.06 Z M1056.59,262.14 L1056.73,262.39 L1056.48,262.19 L1056.59,262.14 Z M1042.84,242.93 L1043.04,242.74 L1043.00,243.01 L1042.84,242.93 Z M1042.71,242.47 L1042.63,242.78 L1042.51,242.66 L1042.71,242.47 Z M1046.72,236.08 L1046.82,236.01 L1046.81,236.11 L1046.72,236.08 Z M1045.60,234.37 L1045.64,234.62 L1045.46,234.56 L1045.60,234.37 Z M1055.50,217.58 L1055.70,217.46 L1055.70,217.53 L1055.50,217.58 Z"/>
</svg>
