<svg xmlns="http://www.w3.org/2000/svg" viewBox="0 0 2000 1000" role="img" aria-labelledby="title desc">
<title>Japao</title>
<desc>Generated world map layer for Modo Turistagem.</desc>
<style>
  path {
    fill: #ff6b00;
    stroke: #ffffff;
    stroke-width: 1;
    vector-effect: non-scaling-stroke;
  }
</style>
<path d="M1658.29,300.42 L1658.83,299.90 L1658.59,300.65 L1658.29,300.42 Z M1666.57,295.47 L1667.55,302.16 L1666.01,301.69 L1666.71,302.72 L1664.91,304.39 L1664.84,302.33 L1663.24,300.86 L1664.15,301.00 L1663.90,300.11 L1663.21,300.08 L1663.09,301.30 L1664.20,303.47 L1661.24,301.94 L1661.86,302.10 L1661.98,301.01 L1659.95,297.79 L1661.06,296.31 L1661.10,294.43 L1660.05,294.60 L1660.48,293.60 L1657.60,291.17 L1657.69,293.06 L1658.92,293.17 L1659.44,294.19 L1658.68,294.77 L1657.83,293.55 L1656.58,294.92 L1656.80,293.97 L1655.00,291.74 L1657.24,293.24 L1653.80,290.06 L1655.40,290.61 L1654.72,288.96 L1655.82,289.61 L1656.24,288.28 L1657.32,288.65 L1656.61,288.18 L1657.17,287.13 L1659.23,286.91 L1659.51,286.46 L1660.87,288.53 L1663.62,288.27 L1664.45,289.37 L1663.83,290.65 L1665.84,290.70 L1665.72,291.53 L1667.56,292.65 L1666.57,295.47 Z M1678.51,287.30 L1677.27,288.84 L1677.45,290.88 L1674.46,289.05 L1672.64,290.10 L1672.12,292.38 L1672.81,294.05 L1670.81,293.81 L1670.83,292.85 L1668.89,292.19 L1668.49,291.07 L1669.21,290.93 L1668.01,289.62 L1666.18,290.19 L1668.61,287.98 L1668.67,285.51 L1670.32,286.66 L1672.18,286.47 L1671.64,284.69 L1673.25,283.99 L1677.20,284.81 L1678.51,287.30 Z M1664.25,273.68 L1664.50,273.78 L1664.40,274.04 L1664.25,273.68 Z M1664.22,273.50 L1664.18,273.42 L1664.31,273.48 L1664.22,273.50 Z M1663.89,273.37 L1664.13,273.83 L1663.63,273.79 L1663.89,273.37 Z M1670.46,283.56 L1670.08,284.31 L1669.63,283.68 L1669.70,284.56 L1668.95,283.90 L1667.24,285.05 L1665.28,284.15 L1664.95,284.81 L1665.68,287.21 L1665.24,287.61 L1662.99,285.92 L1660.89,286.71 L1659.44,285.96 L1659.18,286.78 L1657.95,284.18 L1660.38,283.69 L1660.67,282.27 L1661.85,281.93 L1664.21,278.43 L1663.79,277.54 L1665.64,276.57 L1667.60,277.46 L1675.89,275.54 L1677.27,277.51 L1677.56,276.56 L1679.62,276.98 L1679.89,275.58 L1680.43,276.21 L1678.93,274.16 L1680.43,269.75 L1678.84,265.96 L1681.30,265.00 L1681.50,266.22 L1680.22,266.71 L1680.25,267.66 L1683.56,269.56 L1683.61,268.53 L1687.76,265.84 L1687.88,263.13 L1689.65,261.30 L1688.27,253.03 L1687.06,251.10 L1684.98,250.29 L1685.72,250.14 L1685.54,248.63 L1683.47,246.39 L1684.75,245.17 L1683.44,242.45 L1685.13,242.88 L1686.72,244.92 L1687.06,243.98 L1688.73,244.81 L1687.67,242.45 L1685.96,243.17 L1685.19,240.76 L1687.69,241.92 L1688.30,241.46 L1690.99,246.02 L1694.44,248.54 L1698.33,253.26 L1698.88,255.48 L1697.90,256.15 L1698.12,258.11 L1699.73,260.48 L1698.18,259.63 L1697.21,259.92 L1697.28,261.06 L1700.79,267.32 L1701.17,272.45 L1704.44,275.85 L1702.90,276.79 L1703.50,279.14 L1702.00,280.77 L1701.01,280.47 L1700.09,278.28 L1700.98,276.78 L1699.03,276.26 L1700.12,279.36 L1698.93,278.35 L1697.24,278.62 L1698.15,280.99 L1697.38,282.65 L1695.73,279.47 L1694.55,279.63 L1694.34,282.66 L1688.24,282.75 L1689.47,281.86 L1687.10,280.67 L1687.69,282.04 L1686.99,281.78 L1686.16,279.67 L1685.91,279.73 L1685.46,282.14 L1688.49,284.64 L1687.35,284.23 L1685.89,285.14 L1684.97,289.68 L1680.24,286.98 L1680.19,285.35 L1679.22,284.64 L1680.20,283.32 L1679.84,282.07 L1678.17,282.48 L1674.93,281.50 L1672.68,282.70 L1673.04,283.53 L1670.46,283.56 Z M1688.98,225.04 L1689.85,225.21 L1689.48,225.22 L1688.98,225.04 Z M1701.59,229.75 L1701.33,231.05 L1699.60,231.30 L1699.55,232.13 L1696.15,232.05 L1694.66,232.99 L1694.12,236.14 L1695.11,238.48 L1685.58,234.46 L1683.82,234.67 L1682.65,236.25 L1679.11,234.67 L1679.47,236.49 L1685.64,239.25 L1682.90,239.08 L1682.90,240.86 L1681.64,241.54 L1679.80,238.15 L1677.06,236.57 L1675.89,234.29 L1676.83,233.20 L1677.51,233.51 L1677.75,232.08 L1675.69,230.12 L1680.32,231.22 L1680.86,230.16 L1678.88,227.80 L1679.45,226.46 L1677.53,222.53 L1673.45,217.46 L1674.50,217.04 L1688.80,225.41 L1691.23,225.97 L1691.25,225.38 L1692.58,226.35 L1692.88,226.43 L1693.62,226.54 L1694.49,226.60 L1695.61,224.03 L1696.65,227.44 L1700.12,230.24 L1699.38,230.11 L1701.03,230.69 L1701.59,229.75 Z M1640.81,344.98 L1642.10,344.55 L1641.93,345.21 L1640.81,344.98 Z M1636.86,343.91 L1637.13,344.11 L1636.81,344.08 L1636.86,343.91 Z M1643.86,343.24 L1643.71,344.57 L1643.21,344.70 L1642.76,344.14 L1643.86,343.24 Z M1731.89,342.02 L1732.24,342.06 L1731.93,342.37 L1731.89,342.02 Z M1648.94,342.03 L1648.49,342.33 L1648.28,341.41 L1648.94,342.03 Z M1677.78,335.70 L1678.07,335.53 L1678.01,335.76 L1677.78,335.70 Z M1653.83,332.32 L1654.07,332.83 L1653.49,332.44 L1653.83,332.32 Z M1733.07,330.43 L1733.30,330.92 L1732.75,330.31 L1733.07,330.43 Z M1661.28,329.85 L1659.35,332.00 L1659.92,332.80 L1658.90,334.16 L1658.70,332.07 L1659.71,331.26 L1659.07,330.47 L1660.08,330.77 L1660.70,329.31 L1661.28,329.85 Z M1732.58,328.31 L1732.67,328.05 L1732.77,328.32 L1732.58,328.31 Z M1662.01,325.87 L1661.72,326.41 L1661.26,326.37 L1661.24,326.09 L1662.01,325.87 Z M1662.45,323.09 L1662.88,324.50 L1662.24,323.20 L1662.45,323.09 Z M1663.14,321.42 L1664.21,322.04 L1663.52,321.97 L1663.14,321.42 Z M1666.95,320.49 L1667.15,320.81 L1666.72,320.77 L1666.95,320.49 Z M1665.07,319.48 L1664.28,321.84 L1662.85,321.05 L1665.07,319.48 Z M1663.04,312.71 L1663.22,312.61 L1663.13,312.85 L1663.04,312.71 Z M1663.15,311.23 L1663.73,311.52 L1663.71,311.56 L1663.15,311.23 Z M1666.39,308.20 L1665.75,309.10 L1664.82,308.08 L1665.29,307.63 L1666.39,308.20 Z M1667.30,305.38 L1667.84,306.76 L1667.54,308.38 L1667.09,307.62 L1667.30,305.38 Z M1659.34,297.10 L1659.83,297.29 L1659.84,297.67 L1659.34,297.10 Z M1659.85,295.17 L1660.21,296.09 L1659.30,295.72 L1659.85,295.17 Z M1658.00,295.13 L1659.49,296.31 L1658.87,297.20 L1658.00,295.13 Z M1651.94,294.28 L1650.67,294.64 L1650.54,293.66 L1651.28,293.52 L1651.94,294.28 Z M1705.96,291.50 L1706.78,291.78 L1706.69,292.06 L1705.96,291.50 Z M1652.13,291.64 L1652.54,293.41 L1651.91,291.30 L1652.13,291.64 Z M1653.15,290.20 L1653.67,290.82 L1653.26,291.28 L1653.15,290.20 Z M1665.97,287.59 L1666.43,287.63 L1666.43,287.66 L1665.97,287.59 Z M1653.55,287.20 L1653.25,287.81 L1653.08,287.03 L1653.55,287.20 Z M1666.75,287.21 L1665.61,286.59 L1666.99,286.63 L1666.75,287.21 Z M1702.46,286.03 L1702.20,285.58 L1702.52,285.71 L1702.46,286.03 Z M1667.06,285.54 L1666.52,285.72 L1666.62,285.20 L1667.06,285.54 Z M1669.18,284.91 L1668.69,284.73 L1668.88,284.47 L1669.18,284.91 Z M1649.47,284.26 L1650.34,285.22 L1650.16,285.72 L1649.47,284.26 Z M1700.20,284.19 L1700.23,283.73 L1700.32,284.30 L1700.20,284.19 Z M1678.00,282.58 L1678.69,284.62 L1677.74,285.10 L1677.15,284.27 L1678.00,282.58 Z M1649.23,282.34 L1650.43,284.13 L1650.24,284.44 L1649.23,282.34 Z M1699.44,281.43 L1700.03,281.68 L1700.27,282.15 L1699.44,281.43 Z M1664.22,274.20 L1664.23,274.04 L1664.48,274.20 L1664.22,274.20 Z M1664.55,272.09 L1665.25,273.21 L1664.26,272.48 L1664.55,272.09 Z M1684.43,260.17 L1685.86,262.65 L1684.93,263.32 L1684.05,261.66 L1684.43,260.17 Z M1675.53,237.01 L1676.26,237.44 L1676.18,237.74 L1675.53,237.01 Z M1697.94,228.40 L1698.96,228.75 L1698.72,228.97 L1697.94,228.40 Z M1692.97,226.44 L1693.00,226.44 L1692.97,226.44 L1692.97,226.44 Z M1672.25,218.70 L1672.81,219.53 L1671.93,218.71 L1672.25,218.70 Z M1670.06,217.38 L1670.73,217.61 L1671.20,218.56 L1670.06,217.38 Z M1725.40,327.21 L1725.34,327.20 L1725.37,327.18 L1725.40,327.21 Z M1658.44,330.23 L1658.58,330.42 L1658.37,330.26 L1658.44,330.23 Z M1658.81,328.47 L1658.99,328.38 L1658.78,328.56 L1658.81,328.47 Z M1663.74,307.55 L1664.15,307.83 L1663.41,307.50 L1663.74,307.55 Z M1674.94,282.90 L1675.17,283.65 L1674.10,283.36 L1674.06,283.11 L1674.94,282.90 Z M1733.59,345.46 L1733.65,345.40 L1733.65,345.48 L1733.59,345.46 Z M1798.68,345.05 L1798.71,344.98 L1798.74,345.06 L1798.68,345.05 Z M1730.79,338.03 L1730.71,338.14 L1730.67,337.99 L1730.79,338.03 Z M1678.09,335.11 L1678.16,334.99 L1678.20,335.11 L1678.09,335.11 Z M1655.79,331.15 L1655.94,331.06 L1655.94,331.16 L1655.79,331.15 Z M1661.29,328.22 L1661.47,328.49 L1661.15,328.32 L1661.29,328.22 Z M1732.37,327.57 L1732.30,327.66 L1732.28,327.50 L1732.37,327.57 Z M1731.44,324.89 L1731.38,324.91 L1731.39,324.87 L1731.44,324.89 Z M1730.67,324.22 L1730.63,324.22 L1730.65,324.20 L1730.67,324.22 Z M1658.83,323.36 L1658.92,323.43 L1658.93,323.50 L1658.83,323.36 Z M1662.91,313.83 L1662.75,313.74 L1662.77,313.66 L1662.91,313.83 Z M1661.61,311.13 L1661.54,311.01 L1661.67,311.08 L1661.61,311.13 Z M1663.33,310.43 L1663.29,310.63 L1663.27,310.47 L1663.33,310.43 Z M1715.53,307.60 L1715.60,307.53 L1715.59,307.59 L1715.53,307.60 Z M1658.97,305.34 L1659.01,305.35 L1658.99,305.37 L1658.97,305.34 Z M1661.54,305.31 L1661.66,305.54 L1661.43,305.41 L1661.54,305.31 Z M1711.84,301.73 L1711.84,301.72 L1711.85,301.73 L1711.84,301.73 Z M1711.83,301.72 L1711.82,301.71 L1711.84,301.72 L1711.83,301.72 Z M1707.83,295.62 L1707.78,295.51 L1707.95,295.69 L1707.83,295.62 Z M1702.33,288.37 L1702.31,288.37 L1702.33,288.37 L1702.33,288.37 Z M1703.15,286.89 L1703.35,287.15 L1703.12,286.98 L1703.15,286.89 Z M1677.59,240.90 L1677.83,241.02 L1677.73,241.08 L1677.59,240.90 Z M1798.53,344.86 L1798.57,345.00 L1798.47,344.89 L1798.53,344.86 Z M1647.82,341.60 L1648.11,341.90 L1647.76,341.83 L1647.82,341.60 Z M1657.11,333.42 L1657.26,333.68 L1657.24,333.74 L1657.11,333.42 Z M1730.77,324.22 L1730.81,324.23 L1730.80,324.28 L1730.77,324.22 Z M1659.16,299.29 L1659.14,299.50 L1658.68,299.19 L1659.16,299.29 Z M1659.68,296.62 L1659.93,296.62 L1659.75,296.83 L1659.68,296.62 Z M1659.87,294.77 L1660.21,294.95 L1660.15,295.11 L1659.87,294.77 Z M1670.41,293.81 L1670.61,294.02 L1670.53,294.10 L1670.41,293.81 Z M1651.62,293.52 L1651.71,293.74 L1651.34,293.31 L1651.62,293.52 Z M1651.50,293.14 L1651.94,293.26 L1651.96,293.49 L1651.50,293.14 Z M1652.00,292.76 L1652.26,293.23 L1651.86,292.73 L1652.00,292.76 Z M1651.49,290.68 L1651.86,290.68 L1651.80,290.81 L1651.49,290.68 Z M1653.26,289.24 L1653.46,289.41 L1653.15,289.44 L1653.26,289.24 Z M1667.50,286.44 L1667.75,286.47 L1667.62,286.56 L1667.50,286.44 Z M1669.18,285.11 L1669.56,285.28 L1669.35,285.58 L1669.18,285.11 Z M1667.43,285.11 L1667.83,285.18 L1667.80,285.27 L1667.43,285.11 Z M1668.10,284.80 L1668.50,284.91 L1668.27,284.99 L1668.10,284.80 Z M1665.17,284.57 L1665.45,284.55 L1665.24,284.81 L1665.17,284.57 Z M1672.00,283.97 L1672.19,284.01 L1672.13,284.13 L1672.00,283.97 Z M1679.64,283.74 L1679.62,283.51 L1679.75,283.62 L1679.64,283.74 Z M1673.76,283.47 L1673.65,283.23 L1673.80,283.35 L1673.76,283.47 Z M1687.76,283.28 L1687.93,283.27 L1687.86,283.38 L1687.76,283.28 Z M1687.64,283.10 L1687.81,282.99 L1687.58,283.14 L1687.64,283.10 Z M1686.47,281.18 L1686.49,281.04 L1686.50,281.18 L1686.47,281.18 Z M1680.75,267.28 L1680.62,267.54 L1680.27,267.26 L1680.75,267.28 Z M1638.44,336.25 L1638.40,336.25 L1638.41,336.21 L1638.44,336.25 Z M1638.03,336.04 L1637.91,336.13 L1637.91,336.07 L1638.03,336.04 Z M1638.49,335.10 L1638.49,335.11 L1638.49,335.09 L1638.49,335.10 Z"/>
</svg>
