<svg xmlns="http://www.w3.org/2000/svg" viewBox="0 0 2000 1000" role="img" aria-labelledby="title desc">
<title>Marrocos</title>
<desc>Generated world map layer for Modo Turistagem.</desc>
<style>
  path {
    fill: #ff6b00;
    stroke: #ffffff;
    stroke-width: 1;
    vector-effect: non-scaling-stroke;
  }
</style>
<path d="M951.08,324.62 L951.13,327.89 L947.93,328.09 L945.80,329.53 L940.96,328.50 L937.65,329.33 L937.90,330.84 L935.85,334.04 L934.05,334.73 L931.96,341.75 L928.99,343.93 L927.26,346.89 L924.19,348.64 L922.28,357.00 L919.39,361.90 L907.53,362.38 L908.09,359.29 L910.54,356.59 L911.98,352.25 L914.39,348.05 L914.40,347.30 L913.21,348.92 L913.52,348.13 L919.11,342.50 L921.60,333.49 L926.39,330.14 L929.76,323.00 L937.40,320.60 L943.93,314.70 L947.11,309.70 L947.38,308.02 L946.00,306.54 L946.34,301.97 L949.38,297.17 L949.53,294.87 L953.36,290.68 L962.13,286.02 L966.86,275.49 L969.53,274.62 L971.15,277.68 L974.60,279.29 L978.01,278.45 L979.92,278.99 L981.70,277.51 L982.25,279.41 L982.14,278.72 L985.44,279.67 L987.71,281.77 L988.14,290.87 L989.40,293.86 L991.38,295.37 L990.30,296.20 L990.47,297.81 L981.95,297.90 L982.21,299.60 L977.96,300.49 L976.99,303.38 L978.45,304.68 L977.97,306.16 L974.23,307.38 L970.07,310.60 L968.17,313.35 L964.40,313.01 L957.28,314.24 L951.98,318.26 L951.77,324.62 L951.08,324.62 Z"/>
</svg>
