<svg xmlns="http://www.w3.org/2000/svg" viewBox="0 0 2000 1000" role="img" aria-labelledby="title desc">
<title>Paraguai</title>
<desc>Generated world map layer for Modo Turistagem.</desc>
<style>
  path {
    fill: #ff6b00;
    stroke: #ffffff;
    stroke-width: 1;
    vector-effect: non-scaling-stroke;
  }
</style>
<path d="M668.99,626.55 L670.02,616.37 L672.22,610.88 L681.21,608.78 L686.13,608.74 L691.17,612.01 L691.39,614.50 L693.57,618.79 L693.29,625.58 L699.32,626.90 L701.55,625.59 L702.67,626.79 L704.52,626.88 L705.95,628.99 L707.75,636.95 L709.12,637.33 L711.74,636.05 L713.93,637.54 L712.76,653.23 L711.20,655.10 L709.79,655.26 L708.38,658.07 L706.35,657.19 L705.15,658.93 L704.29,658.13 L701.04,658.33 L696.51,656.95 L693.54,657.29 L693.16,656.33 L695.22,653.27 L695.01,650.43 L697.56,646.70 L696.37,644.37 L690.62,641.93 L683.74,637.27 L678.54,636.05 L668.99,626.55 Z"/>
</svg>
