<svg xmlns="http://www.w3.org/2000/svg" viewBox="0 0 2000 1000" role="img" aria-labelledby="title desc">
<title>Portugal</title>
<desc>Generated world map layer for Modo Turistagem.</desc>
<style>
  path {
    fill: #ff6b00;
    stroke: #ffffff;
    stroke-width: 1;
    vector-effect: non-scaling-stroke;
  }
</style>
<path d="M962.06,255.66 L960.10,259.40 L961.33,261.05 L962.11,260.91 L959.11,264.70 L959.65,267.13 L957.56,268.13 L953.79,267.38 L951.68,267.99 L953.05,263.72 L952.38,262.38 L952.96,259.93 L952.25,259.19 L952.96,259.52 L953.91,259.57 L953.11,258.68 L950.81,259.57 L950.75,258.08 L951.47,258.12 L952.31,257.42 L952.00,256.59 L953.26,255.48 L952.40,255.82 L951.54,257.09 L951.46,257.79 L949.68,257.86 L949.57,257.21 L950.14,253.81 L951.76,252.58 L953.38,249.34 L952.79,248.84 L953.66,246.20 L954.57,245.51 L954.18,244.97 L953.67,246.12 L954.29,243.13 L953.51,240.01 L954.18,239.71 L953.37,239.82 L953.32,239.01 L956.59,237.13 L956.72,239.18 L964.41,238.27 L964.69,240.09 L966.31,240.62 L962.61,243.95 L963.22,247.91 L961.97,248.96 L962.74,249.99 L961.99,251.89 L959.34,251.97 L962.06,255.66 Z M912.66,295.06 L912.51,294.98 L912.49,294.84 L912.66,295.06 Z M911.89,293.77 L910.30,294.44 L908.96,293.43 L911.89,293.77 Z M914.00,291.94 L913.37,292.06 L913.94,291.65 L914.00,291.94 Z M957.14,268.33 L957.36,268.12 L957.39,268.20 L957.14,268.33 Z M870.76,268.12 L871.55,268.52 L870.84,268.45 L870.76,268.12 Z M871.22,262.91 L871.36,263.57 L869.59,263.86 L867.92,262.97 L871.22,262.91 Z M857.10,259.40 L855.34,259.65 L854.98,258.91 L855.86,258.77 L857.10,259.40 Z M854.21,258.20 L854.08,258.99 L853.57,258.48 L854.21,258.20 Z M856.29,257.54 L858.90,258.78 L857.57,258.54 L856.29,257.54 Z M862.67,257.91 L861.60,258.23 L860.87,257.52 L862.12,257.29 L862.67,257.91 Z M858.33,255.75 L857.73,255.85 L857.86,255.44 L858.33,255.75 Z M842.10,253.40 L842.83,253.52 L842.17,253.91 L842.10,253.40 Z M842.94,251.85 L843.29,251.89 L843.01,252.10 L842.94,251.85 Z M914.40,310.28 L914.42,310.27 L914.42,310.29 L914.40,310.28 Z M915.21,309.63 L915.31,309.57 L915.28,309.66 L915.21,309.63 Z M951.74,256.96 L951.77,257.07 L951.64,257.15 L951.74,256.96 Z"/>
</svg>
