<svg xmlns="http://www.w3.org/2000/svg" viewBox="0 0 2000 1000" role="img" aria-labelledby="title desc">
<title>Reino Unido</title>
<desc>Generated world map layer for Modo Turistagem.</desc>
<style>
  path {
    fill: #ff6b00;
    stroke: #ffffff;
    stroke-width: 1;
    vector-effect: non-scaling-stroke;
  }
</style>
<path d="M964.31,161.28 L969.45,160.46 L971.19,162.86 L970.18,163.93 L971.71,163.52 L972.07,165.35 L971.65,164.37 L971.09,164.09 L971.70,165.69 L969.46,167.19 L966.80,167.16 L965.16,165.03 L963.77,166.74 L961.34,166.19 L959.99,164.75 L962.12,163.94 L961.15,163.41 L962.89,163.15 L964.31,161.28 Z M985.72,180.27 L980.38,182.45 L979.02,181.15 L976.96,181.54 L977.98,180.84 L976.65,180.18 L973.98,181.30 L973.17,180.82 L974.44,180.62 L974.54,180.14 L972.88,180.76 L973.17,179.79 L972.33,179.74 L976.94,177.70 L978.66,175.77 L977.86,175.45 L978.13,173.59 L974.99,174.38 L976.87,173.00 L977.71,171.91 L981.57,171.13 L982.65,171.81 L982.81,170.66 L983.59,171.50 L984.42,171.13 L983.40,171.15 L982.62,169.95 L984.08,165.98 L982.49,167.04 L980.35,164.46 L981.50,162.34 L983.14,161.81 L980.70,161.70 L978.69,163.00 L976.97,162.20 L977.02,163.50 L974.92,162.44 L974.88,163.77 L973.59,162.36 L976.11,158.84 L974.80,157.63 L974.99,156.43 L976.79,156.38 L975.16,156.04 L975.63,154.80 L974.56,156.71 L973.96,155.92 L973.16,156.81 L973.01,155.99 L974.91,154.39 L972.54,155.82 L973.06,157.21 L972.26,157.99 L972.05,159.62 L970.89,159.88 L972.46,156.85 L971.54,157.12 L971.99,155.76 L971.36,156.30 L972.04,154.11 L972.57,153.47 L973.67,153.44 L974.08,153.09 L974.33,152.77 L972.53,153.27 L973.23,152.22 L974.66,151.91 L973.59,151.91 L974.14,151.33 L971.63,153.15 L970.19,152.33 L972.25,152.03 L969.52,152.12 L969.22,151.84 L971.33,151.52 L971.05,150.32 L971.39,150.15 L971.80,150.42 L972.19,150.40 L972.40,150.28 L971.31,149.88 L972.96,149.70 L971.74,149.41 L972.83,148.50 L971.56,148.62 L972.58,148.21 L972.82,147.93 L971.23,148.30 L971.15,147.04 L972.00,147.42 L972.56,147.25 L971.31,146.68 L971.90,146.30 L971.33,145.61 L973.90,145.53 L973.29,144.99 L974.55,145.61 L972.97,144.20 L973.87,143.84 L973.24,143.21 L975.22,143.42 L974.21,142.69 L975.07,141.15 L976.47,141.56 L976.02,142.16 L977.27,141.50 L977.17,142.15 L983.58,141.08 L983.07,142.60 L978.87,144.87 L979.18,145.41 L977.52,145.19 L979.04,145.69 L980.18,145.48 L977.38,146.90 L979.15,146.42 L978.07,147.50 L981.77,146.23 L988.65,146.85 L988.95,147.63 L985.56,152.62 L981.97,153.89 L983.92,153.37 L985.26,154.39 L981.84,155.82 L979.67,155.37 L983.00,156.27 L984.98,155.64 L987.17,156.46 L989.39,158.33 L991.24,163.81 L994.11,164.66 L996.29,166.76 L995.65,167.27 L997.24,169.46 L997.31,169.65 L997.23,169.86 L995.46,168.93 L993.76,168.94 L993.36,169.13 L995.37,169.09 L997.63,170.74 L998.25,172.32 L996.68,173.82 L998.38,174.50 L999.22,173.34 L1002.42,173.57 L1004.58,175.33 L1003.86,178.48 L1002.73,179.30 L1002.42,178.99 L1001.93,178.79 L1002.48,179.85 L1001.12,179.86 L999.83,180.58 L1000.89,180.44 L1000.87,181.35 L998.73,181.83 L998.40,182.13 L999.82,181.99 L999.18,182.37 L999.97,182.33 L1000.15,182.65 L1001.12,182.74 L1003.29,182.54 L1003.00,183.89 L1001.15,185.25 L992.99,186.34 L992.30,185.68 L989.88,185.25 L990.56,185.93 L987.22,186.29 L987.56,187.09 L985.56,186.84 L985.30,187.53 L983.41,186.32 L980.64,186.64 L979.68,189.32 L977.21,187.92 L977.22,188.73 L973.22,189.47 L972.54,190.85 L971.26,189.85 L970.18,190.30 L974.24,187.61 L977.18,183.65 L982.74,183.65 L985.72,180.27 Z M991.64,186.44 L990.72,187.21 L989.39,186.76 L990.55,186.10 L991.64,186.44 Z M992.15,185.76 L992.30,186.05 L991.93,186.00 L992.15,185.76 Z M1000.16,182.16 L1000.82,182.65 L1000.00,182.37 L1000.16,182.16 Z M975.70,171.31 L975.93,171.78 L975.39,171.38 L975.70,171.31 Z M978.09,171.38 L976.66,172.41 L975.96,170.90 L977.08,170.74 L978.09,171.38 Z M968.66,159.98 L969.15,159.94 L969.05,160.17 L968.66,159.98 Z M974.10,158.77 L972.87,158.92 L972.76,157.86 L973.57,157.65 L974.10,158.77 Z M974.12,156.66 L973.95,157.20 L973.61,156.48 L974.12,156.66 Z M969.88,157.51 L968.71,158.37 L968.92,157.24 L967.77,157.79 L969.45,156.31 L969.88,157.51 Z M968.89,155.76 L969.50,155.26 L969.32,155.72 L968.89,155.76 Z M969.73,156.45 L971.46,155.13 L969.76,157.06 L969.73,156.45 Z M971.28,154.96 L971.56,154.96 L971.23,155.06 L971.28,154.96 Z M971.60,154.71 L971.86,154.56 L971.73,154.90 L971.60,154.71 Z M971.71,154.28 L971.99,154.12 L971.81,154.40 L971.71,154.28 Z M972.00,153.77 L972.26,153.62 L972.37,153.58 L972.00,153.77 Z M969.25,153.11 L969.14,153.30 L969.03,153.23 L969.25,153.11 Z M965.83,153.11 L966.99,152.96 L965.93,153.36 L965.83,153.11 Z M971.55,153.50 L971.00,154.16 L968.56,154.25 L970.08,153.80 L969.27,153.81 L970.12,153.11 L968.72,152.84 L969.39,152.31 L971.55,153.50 Z M968.21,152.13 L967.73,152.58 L967.18,152.77 L967.63,152.27 L968.21,152.13 Z M963.97,149.97 L963.95,150.60 L963.47,150.57 L963.97,149.97 Z M968.31,150.28 L969.25,150.25 L968.80,150.63 L968.31,150.28 Z M967.92,150.04 L967.97,149.89 L968.18,149.97 L967.92,150.04 Z M970.69,148.57 L970.35,148.59 L970.32,148.51 L970.69,148.57 Z M964.16,148.12 L965.01,149.66 L964.40,149.74 L964.16,148.12 Z M964.44,147.54 L965.14,147.94 L964.26,147.79 L964.44,147.54 Z M970.44,148.34 L970.11,147.84 L970.42,147.43 L970.44,148.34 Z M970.64,147.08 L970.48,147.30 L970.61,147.05 L970.64,147.08 Z M965.54,146.62 L964.71,147.19 L965.37,147.42 L963.71,146.96 L965.54,146.62 Z M968.97,148.55 L966.99,147.73 L967.76,147.80 L967.66,146.88 L969.06,147.69 L969.12,146.34 L969.71,148.58 L971.91,148.81 L970.29,150.14 L971.03,149.24 L968.95,149.40 L968.27,148.54 L968.97,148.55 Z M965.25,146.31 L965.34,146.16 L965.46,146.21 L965.25,146.31 Z M959.21,145.77 L959.16,145.65 L959.38,145.69 L959.21,145.77 Z M966.18,145.15 L965.82,145.34 L966.01,145.14 L966.18,145.15 Z M966.80,143.49 L966.79,143.23 L967.16,143.49 L966.80,143.49 Z M966.32,146.11 L965.61,145.59 L966.88,145.03 L965.70,144.73 L966.49,144.38 L965.76,143.65 L966.83,144.07 L967.51,143.61 L967.06,143.07 L969.70,141.87 L969.01,143.34 L969.90,143.46 L967.87,144.19 L969.02,144.45 L968.19,145.11 L967.57,144.34 L967.64,145.34 L966.32,146.11 Z M983.53,140.08 L984.19,140.01 L983.93,140.58 L983.53,140.08 Z M981.90,139.59 L983.12,140.16 L982.39,140.31 L981.90,139.59 Z M984.88,139.24 L984.45,139.74 L982.13,138.98 L982.94,138.25 L983.74,138.67 L983.20,139.08 L984.88,139.24 Z M985.17,138.21 L985.73,138.61 L985.07,138.58 L985.17,138.21 Z M983.93,138.05 L983.33,138.28 L983.21,138.09 L983.93,138.05 Z M984.63,138.26 L984.76,137.67 L984.87,138.25 L984.63,138.26 Z M985.41,137.44 L986.35,137.48 L985.05,138.00 L985.41,137.44 Z M984.23,137.79 L983.90,137.06 L984.47,137.67 L984.23,137.79 Z M989.79,136.11 L989.67,135.98 L989.85,135.96 L989.79,136.11 Z M993.15,130.04 L993.00,130.38 L992.65,130.04 L993.15,130.04 Z M990.81,131.29 L992.24,131.02 L991.19,134.32 L991.24,132.16 L990.43,132.65 L989.44,131.94 L991.27,131.55 L989.80,130.84 L991.11,129.96 L990.81,131.29 Z M992.45,129.66 L992.28,130.73 L991.83,130.77 L991.66,129.94 L992.45,129.66 Z M993.15,129.73 L992.66,129.09 L993.37,128.91 L993.15,129.73 Z M967.35,191.12 L967.46,191.06 L967.40,191.14 L967.35,191.12 Z M967.17,190.82 L967.27,190.91 L967.24,190.95 L967.17,190.82 Z M975.12,183.64 L975.18,183.81 L975.15,183.84 L975.12,183.64 Z M936.89,146.94 L936.89,146.93 L936.90,146.94 L936.89,146.94 Z M990.90,132.91 L990.94,133.27 L990.80,133.27 L990.90,132.91 Z M987.73,132.65 L987.84,132.86 L987.63,132.75 L987.73,132.65 Z M991.80,132.53 L992.06,132.92 L991.89,132.87 L991.80,132.53 Z M992.35,131.47 L992.48,131.63 L992.23,131.63 L992.35,131.47 Z"/>
</svg>
