<svg xmlns="http://www.w3.org/2000/svg" viewBox="0 0 2000 1000" role="img" aria-labelledby="title desc">
<title>Russia</title>
<desc>Generated world map layer for Modo Turistagem.</desc>
<style>
  path {
    fill: #ff6b00;
    stroke: #ffffff;
    stroke-width: 1;
    vector-effect: non-scaling-stroke;
  }
</style>
<path d="M1407.62,194.89 L1404.71,196.06 L1402.46,195.01 L1399.51,193.03 L1399.69,191.88 L1397.92,193.76 L1393.12,192.98 L1390.72,190.22 L1386.77,189.09 L1383.94,186.05 L1380.96,184.81 L1377.96,185.35 L1377.32,186.44 L1372.59,186.34 L1371.69,185.01 L1370.09,185.03 L1369.92,183.68 L1367.44,183.01 L1366.55,183.68 L1367.26,185.01 L1365.85,186.13 L1349.12,171.59 L1340.91,167.45 L1339.93,166.52 L1341.28,166.63 L1341.38,164.74 L1335.84,166.89 L1336.15,167.48 L1334.81,168.51 L1333.60,168.38 L1332.52,169.28 L1332.86,170.50 L1330.20,169.48 L1328.53,170.68 L1327.10,169.35 L1327.47,168.18 L1328.57,168.13 L1328.34,167.07 L1326.95,167.76 L1323.11,166.63 L1323.92,167.65 L1322.67,167.93 L1322.47,166.62 L1319.85,165.23 L1321.10,166.62 L1318.94,165.98 L1318.79,166.78 L1316.62,166.82 L1315.23,165.65 L1316.19,165.58 L1315.61,163.61 L1311.95,159.99 L1310.29,160.05 L1309.68,160.92 L1303.16,159.20 L1303.76,160.08 L1302.34,159.61 L1302.34,160.55 L1300.50,160.70 L1301.00,161.92 L1289.67,163.80 L1288.81,164.44 L1289.24,165.62 L1286.35,165.19 L1283.93,165.57 L1283.74,166.29 L1280.45,166.37 L1278.15,167.10 L1278.31,168.14 L1277.45,167.25 L1275.83,167.79 L1272.53,167.04 L1272.31,167.93 L1271.27,167.74 L1272.51,168.57 L1271.43,169.52 L1274.76,170.25 L1273.32,170.26 L1273.44,171.44 L1278.34,173.21 L1273.31,173.33 L1272.59,175.06 L1274.98,177.01 L1270.98,179.23 L1273.42,180.08 L1273.37,180.91 L1278.90,182.29 L1280.12,183.26 L1279.77,186.04 L1277.02,186.80 L1273.39,185.62 L1273.03,187.32 L1271.85,187.84 L1271.14,186.92 L1267.26,185.99 L1264.91,183.90 L1262.49,184.07 L1262.69,185.30 L1261.61,185.59 L1259.70,184.19 L1257.73,184.35 L1257.81,184.95 L1256.64,184.34 L1253.88,187.51 L1248.25,184.61 L1247.81,185.19 L1249.21,187.09 L1248.53,187.55 L1247.84,185.62 L1241.75,181.95 L1237.84,182.09 L1236.18,180.26 L1234.36,180.85 L1233.94,182.13 L1232.12,182.02 L1232.16,181.11 L1229.16,180.35 L1229.55,181.29 L1228.52,181.07 L1227.92,183.00 L1224.16,184.12 L1224.32,185.78 L1222.21,187.13 L1220.94,186.89 L1223.06,191.00 L1220.64,191.40 L1217.93,188.74 L1216.22,188.20 L1216.04,190.35 L1214.49,191.66 L1214.64,194.52 L1216.15,195.59 L1214.60,199.94 L1217.72,200.80 L1218.49,203.49 L1219.78,204.23 L1219.81,203.33 L1223.58,204.06 L1228.88,209.63 L1226.42,210.28 L1231.03,212.63 L1230.19,212.20 L1230.28,213.30 L1228.06,213.68 L1228.82,214.40 L1228.87,215.30 L1227.88,214.39 L1226.76,215.92 L1224.91,215.83 L1224.87,216.52 L1223.41,215.55 L1224.15,216.81 L1223.22,215.87 L1222.61,215.68 L1223.75,216.76 L1223.31,219.03 L1220.89,222.94 L1224.03,224.83 L1225.84,227.40 L1225.83,229.05 L1225.93,226.90 L1226.68,226.84 L1226.65,231.94 L1233.62,238.97 L1230.98,242.79 L1227.91,242.23 L1224.65,238.94 L1220.49,237.88 L1218.81,236.84 L1218.75,235.01 L1215.71,233.84 L1214.36,233.50 L1214.13,234.40 L1212.67,233.56 L1210.15,234.74 L1204.03,231.05 L1197.91,230.78 L1191.00,228.62 L1189.90,229.72 L1183.11,224.46 L1180.38,223.78 L1177.91,221.74 L1178.11,222.31 L1176.63,222.11 L1174.81,220.19 L1171.66,218.98 L1173.40,218.45 L1171.95,218.19 L1172.62,217.50 L1174.01,218.71 L1177.05,218.34 L1176.05,216.36 L1177.27,214.07 L1177.98,213.85 L1177.97,215.28 L1178.24,213.48 L1180.21,214.00 L1175.55,210.22 L1179.58,210.32 L1178.58,210.00 L1178.70,209.17 L1182.90,207.59 L1181.28,206.57 L1178.56,207.43 L1178.86,206.98 L1179.85,206.82 L1179.96,206.57 L1178.82,206.91 L1178.33,207.48 L1177.37,207.66 L1177.00,206.39 L1177.29,204.77 L1179.15,204.27 L1179.40,203.26 L1183.79,203.35 L1184.36,200.75 L1183.48,200.55 L1183.25,198.98 L1182.28,198.90 L1182.69,197.61 L1183.90,197.24 L1181.97,196.36 L1183.81,195.09 L1183.36,193.07 L1181.87,193.29 L1174.24,190.26 L1173.05,191.20 L1169.68,188.09 L1166.16,189.41 L1163.64,188.15 L1161.43,188.55 L1159.45,184.62 L1157.96,183.56 L1153.81,183.32 L1154.27,182.82 L1152.88,180.89 L1154.23,180.24 L1150.76,176.90 L1144.36,177.06 L1143.91,178.48 L1141.74,178.37 L1140.05,174.40 L1138.37,173.08 L1138.93,172.01 L1142.60,172.60 L1144.55,170.63 L1142.97,169.05 L1139.73,168.58 L1139.79,167.10 L1137.34,166.09 L1135.87,164.58 L1136.19,163.84 L1134.22,162.90 L1135.00,161.54 L1133.75,160.04 L1133.95,158.41 L1130.54,156.80 L1127.46,157.79 L1126.70,156.23 L1121.79,155.71 L1119.30,151.32 L1118.02,151.19 L1118.47,148.66 L1115.91,147.02 L1117.67,145.45 L1115.01,140.44 L1116.47,137.54 L1117.67,137.09 L1116.46,134.86 L1118.14,135.37 L1118.36,134.34 L1119.96,134.70 L1121.12,133.50 L1125.55,134.24 L1125.78,133.65 L1118.35,131.40 L1117.39,130.42 L1118.63,130.96 L1118.25,129.43 L1114.68,130.57 L1125.73,120.87 L1127.63,117.58 L1119.98,113.07 L1121.97,111.56 L1121.74,110.50 L1119.36,109.55 L1119.24,107.57 L1117.09,106.83 L1116.79,106.15 L1117.70,105.69 L1116.46,105.08 L1117.08,103.33 L1116.45,102.99 L1118.00,102.55 L1112.22,96.27 L1115.01,92.21 L1109.18,89.64 L1107.79,87.86 L1108.78,86.29 L1107.18,85.97 L1112.59,83.55 L1113.36,82.70 L1112.83,82.22 L1115.81,82.76 L1115.37,81.35 L1117.62,81.77 L1117.40,82.33 L1119.28,81.95 L1118.69,81.24 L1120.24,81.42 L1119.81,80.55 L1124.31,81.74 L1123.52,82.48 L1120.34,81.62 L1120.25,82.58 L1122.19,82.82 L1121.12,83.24 L1124.51,83.02 L1123.75,83.91 L1126.27,83.27 L1125.39,84.07 L1126.68,84.39 L1125.00,85.02 L1125.04,85.68 L1125.05,85.15 L1126.38,84.92 L1127.19,83.73 L1135.74,84.46 L1158.41,92.15 L1159.57,94.46 L1160.92,95.13 L1160.65,96.78 L1157.20,99.51 L1151.45,100.74 L1135.55,97.81 L1134.37,98.20 L1132.67,96.97 L1128.40,96.53 L1127.01,95.73 L1127.38,95.26 L1125.12,94.95 L1123.02,94.99 L1129.60,97.64 L1128.01,98.01 L1129.38,97.78 L1130.61,98.21 L1129.17,97.99 L1128.24,98.25 L1131.56,98.79 L1130.02,99.36 L1133.30,99.73 L1136.82,101.56 L1137.55,102.47 L1136.30,102.04 L1136.80,103.92 L1135.35,104.29 L1137.70,105.80 L1138.74,107.09 L1138.11,107.54 L1139.19,107.70 L1138.38,108.70 L1141.24,110.09 L1143.06,109.85 L1145.54,111.63 L1150.97,112.75 L1152.84,111.59 L1152.15,110.03 L1148.34,109.56 L1145.54,107.84 L1144.74,106.77 L1146.17,106.55 L1145.92,105.55 L1152.77,107.16 L1151.57,107.50 L1151.72,108.22 L1153.07,107.30 L1158.08,108.76 L1159.43,108.45 L1159.01,108.06 L1160.56,108.69 L1161.96,108.78 L1161.56,107.54 L1157.09,103.47 L1160.26,101.18 L1163.65,100.12 L1165.06,98.26 L1169.83,98.79 L1171.74,99.78 L1170.43,100.50 L1170.75,100.81 L1171.53,101.17 L1170.88,100.52 L1172.42,100.05 L1174.41,101.75 L1173.32,99.65 L1174.41,97.53 L1173.39,96.92 L1173.75,96.20 L1170.06,94.34 L1170.78,92.25 L1170.14,90.61 L1171.08,90.26 L1165.62,87.16 L1174.77,87.94 L1179.28,89.90 L1180.57,91.54 L1175.44,91.98 L1174.42,93.84 L1179.90,96.65 L1182.13,96.53 L1181.60,97.11 L1186.02,96.46 L1186.28,93.47 L1185.55,92.66 L1190.44,92.46 L1187.76,90.93 L1190.07,91.30 L1195.38,88.63 L1196.54,88.78 L1200.39,87.59 L1201.35,88.14 L1200.69,88.63 L1201.83,88.85 L1202.80,88.14 L1200.86,87.33 L1206.09,85.58 L1208.68,85.45 L1205.15,85.93 L1206.97,86.24 L1206.23,87.21 L1207.71,88.50 L1205.31,89.28 L1209.19,89.51 L1210.13,88.98 L1211.75,89.69 L1211.61,88.53 L1212.99,87.68 L1220.55,87.68 L1223.00,86.02 L1224.04,86.80 L1224.36,86.77 L1223.39,85.94 L1225.45,85.43 L1228.22,86.69 L1227.15,87.40 L1227.80,88.44 L1230.32,88.85 L1231.10,88.19 L1229.91,87.05 L1233.83,85.93 L1228.79,82.51 L1231.03,81.04 L1244.27,82.65 L1248.38,83.90 L1247.73,83.95 L1247.99,84.70 L1248.73,84.08 L1257.80,86.19 L1257.78,86.49 L1258.66,86.95 L1263.18,88.41 L1264.49,89.62 L1265.52,88.95 L1265.59,86.07 L1264.90,85.94 L1265.76,85.64 L1262.73,85.53 L1260.03,83.82 L1259.64,82.66 L1254.96,81.87 L1255.24,82.72 L1254.58,82.54 L1253.51,80.31 L1254.60,80.46 L1254.93,79.84 L1253.68,79.26 L1252.94,76.56 L1250.45,76.50 L1249.80,75.95 L1250.25,74.96 L1249.30,75.07 L1249.67,73.89 L1253.88,72.00 L1252.87,66.99 L1253.41,65.74 L1261.72,65.92 L1267.16,66.92 L1268.81,69.02 L1268.81,71.84 L1267.54,72.97 L1273.54,76.06 L1274.75,78.23 L1273.93,78.93 L1276.40,81.20 L1278.89,85.75 L1283.81,87.60 L1284.63,88.23 L1283.25,89.48 L1285.03,92.19 L1283.15,92.56 L1283.37,94.07 L1282.05,94.20 L1283.21,94.95 L1282.05,95.09 L1282.07,96.22 L1280.18,96.03 L1282.19,97.57 L1279.09,98.32 L1277.14,97.68 L1278.44,97.27 L1278.47,97.03 L1277.10,97.46 L1274.85,96.45 L1271.32,96.78 L1276.25,98.85 L1285.50,99.79 L1286.37,99.42 L1285.92,97.82 L1290.24,95.78 L1289.41,94.24 L1291.42,92.21 L1289.86,89.80 L1287.55,88.60 L1287.42,86.60 L1294.34,85.58 L1298.79,87.89 L1300.81,91.05 L1300.33,91.67 L1303.59,92.94 L1308.87,92.81 L1302.10,91.88 L1300.98,89.92 L1302.97,89.17 L1298.71,85.90 L1291.34,84.23 L1286.95,85.04 L1282.73,84.59 L1282.44,83.31 L1279.87,81.65 L1279.22,79.56 L1280.28,77.96 L1279.87,77.06 L1272.31,73.22 L1273.30,72.06 L1272.85,71.28 L1277.25,69.72 L1275.84,67.49 L1273.87,66.39 L1278.36,67.63 L1279.58,69.10 L1278.91,70.69 L1281.39,72.66 L1281.00,73.54 L1288.29,74.99 L1290.36,74.49 L1294.61,75.88 L1296.88,75.64 L1294.66,75.78 L1291.26,73.49 L1289.65,73.86 L1284.07,72.51 L1281.83,70.86 L1284.61,70.16 L1289.86,70.99 L1286.14,69.37 L1289.33,68.40 L1299.31,69.99 L1298.69,70.18 L1304.17,71.88 L1309.77,71.76 L1310.22,73.29 L1307.81,73.97 L1310.28,76.47 L1309.80,77.53 L1312.19,79.35 L1310.07,77.50 L1311.08,77.29 L1310.38,75.80 L1311.26,75.35 L1313.07,76.53 L1313.88,78.22 L1313.40,79.46 L1315.62,80.02 L1314.04,78.73 L1316.24,78.70 L1316.60,77.97 L1311.64,74.79 L1311.52,72.22 L1304.32,69.94 L1303.63,69.02 L1297.03,67.73 L1295.75,65.64 L1292.80,64.66 L1293.85,64.44 L1292.28,63.91 L1293.13,63.07 L1292.31,62.70 L1309.70,62.07 L1313.84,61.16 L1315.25,61.73 L1312.76,62.67 L1312.01,63.18 L1312.11,63.31 L1312.82,63.90 L1317.73,65.51 L1312.30,63.11 L1316.51,62.55 L1317.11,61.21 L1309.25,59.36 L1308.65,58.99 L1310.27,59.16 L1308.94,58.66 L1310.26,58.50 L1313.58,58.99 L1306.81,57.65 L1307.66,57.18 L1307.05,56.80 L1311.33,57.78 L1310.19,57.33 L1311.19,57.23 L1310.66,56.68 L1311.35,56.19 L1310.39,55.99 L1312.43,55.80 L1308.96,55.20 L1312.67,55.45 L1315.38,53.53 L1317.32,53.83 L1316.78,53.54 L1323.07,52.92 L1323.01,52.46 L1325.38,52.44 L1329.00,51.91 L1330.71,51.49 L1326.43,51.71 L1326.25,50.78 L1335.76,50.58 L1337.20,50.86 L1336.01,51.74 L1338.69,51.15 L1339.25,51.82 L1343.47,51.28 L1342.14,50.97 L1345.48,49.99 L1349.98,51.00 L1350.79,52.25 L1351.17,51.57 L1350.16,50.78 L1344.23,48.83 L1356.94,49.45 L1351.16,48.66 L1351.22,47.68 L1348.94,46.73 L1352.94,43.64 L1356.26,43.29 L1365.36,44.94 L1359.53,46.21 L1365.43,45.96 L1364.56,46.62 L1372.22,46.96 L1370.73,47.90 L1371.28,48.63 L1370.26,48.43 L1371.03,48.89 L1375.76,48.75 L1374.90,47.82 L1385.48,47.68 L1391.46,49.04 L1390.96,49.64 L1394.24,49.67 L1395.81,50.56 L1395.38,51.01 L1397.56,50.69 L1395.35,50.02 L1396.47,49.99 L1399.80,51.90 L1400.80,51.64 L1402.16,53.13 L1401.54,53.38 L1401.51,52.83 L1399.38,52.70 L1396.55,51.92 L1395.78,51.93 L1403.38,53.99 L1402.79,54.00 L1403.73,54.58 L1402.88,55.96 L1400.91,56.50 L1400.79,57.49 L1394.80,59.19 L1396.65,59.74 L1394.41,60.61 L1393.09,62.44 L1389.81,62.52 L1389.95,63.86 L1387.65,64.19 L1388.21,65.50 L1386.61,66.66 L1389.22,65.74 L1392.15,66.33 L1393.67,66.21 L1388.88,64.85 L1396.23,64.44 L1395.53,64.05 L1399.24,63.50 L1397.68,62.84 L1400.13,63.32 L1403.19,62.20 L1398.75,62.23 L1397.45,61.54 L1398.15,60.62 L1402.17,61.12 L1402.10,60.54 L1403.48,60.44 L1402.66,60.79 L1404.45,61.59 L1410.08,61.75 L1408.58,60.71 L1412.76,62.45 L1412.71,63.33 L1416.74,65.69 L1415.95,66.19 L1416.87,66.81 L1418.54,67.24 L1420.99,67.46 L1416.31,66.38 L1416.87,65.62 L1415.40,64.28 L1416.62,63.83 L1413.63,63.07 L1419.60,62.08 L1431.45,62.66 L1434.04,63.13 L1432.17,63.20 L1433.31,64.36 L1439.85,65.71 L1451.79,66.36 L1449.53,65.76 L1452.92,65.89 L1452.17,64.67 L1453.16,64.69 L1449.06,62.31 L1451.49,62.48 L1450.23,61.78 L1451.88,61.62 L1458.69,63.53 L1460.43,62.82 L1463.48,64.38 L1462.54,63.66 L1463.60,63.43 L1462.67,62.93 L1475.40,65.37 L1475.89,65.76 L1473.80,65.61 L1471.82,66.05 L1472.06,66.55 L1477.14,66.96 L1471.97,67.13 L1475.74,68.03 L1478.26,68.13 L1481.21,69.78 L1472.54,68.29 L1481.49,71.69 L1482.02,71.34 L1480.15,70.31 L1483.90,71.77 L1481.49,71.99 L1488.08,74.93 L1493.27,76.01 L1493.07,75.47 L1495.56,76.66 L1496.57,75.92 L1495.77,74.32 L1497.00,74.28 L1494.89,72.88 L1494.44,70.67 L1495.59,70.54 L1497.16,70.96 L1494.96,70.84 L1498.38,72.48 L1506.08,74.04 L1505.24,72.96 L1507.40,72.26 L1512.39,72.76 L1518.90,74.76 L1519.80,74.69 L1517.92,74.21 L1519.70,73.77 L1517.24,73.43 L1517.00,72.47 L1525.01,73.01 L1519.24,70.65 L1520.33,70.63 L1519.74,69.53 L1520.71,69.35 L1516.35,69.18 L1516.35,67.96 L1521.59,67.52 L1518.02,66.01 L1544.62,68.70 L1536.89,68.25 L1536.79,69.30 L1534.87,69.04 L1536.74,69.54 L1538.57,69.10 L1545.18,68.87 L1544.78,71.11 L1543.65,70.26 L1544.30,69.78 L1540.74,69.20 L1543.65,70.75 L1540.17,70.50 L1542.03,71.17 L1541.28,71.53 L1541.97,72.00 L1545.50,71.46 L1546.05,68.78 L1556.37,69.67 L1560.04,71.06 L1555.83,71.33 L1556.77,72.00 L1564.71,72.80 L1565.45,73.63 L1564.47,74.22 L1564.64,74.31 L1565.48,73.94 L1565.68,73.42 L1569.77,73.81 L1574.04,75.36 L1572.47,75.48 L1577.04,76.40 L1587.73,74.86 L1602.24,76.21 L1609.32,78.81 L1610.05,79.72 L1609.05,79.70 L1612.06,81.57 L1618.18,82.51 L1621.43,84.91 L1624.08,85.54 L1625.59,87.47 L1625.03,87.87 L1626.01,87.70 L1625.14,85.85 L1621.27,83.51 L1622.36,81.88 L1628.38,81.51 L1641.52,82.92 L1642.91,81.51 L1648.83,84.21 L1654.29,85.06 L1657.55,86.59 L1661.66,86.74 L1660.10,86.15 L1661.50,86.36 L1660.41,85.75 L1661.48,85.22 L1653.24,82.33 L1653.73,81.56 L1650.26,79.70 L1663.62,81.47 L1664.37,81.29 L1662.51,80.77 L1674.98,81.47 L1672.76,80.95 L1674.02,80.91 L1688.07,83.33 L1696.33,85.55 L1727.09,105.98 L1726.83,107.28 L1724.86,108.51 L1714.53,105.89 L1712.18,106.04 L1717.97,107.32 L1711.82,106.53 L1711.74,107.43 L1709.11,107.52 L1707.31,107.97 L1711.87,107.53 L1712.29,106.76 L1715.25,107.88 L1714.73,108.32 L1714.89,108.52 L1715.25,108.78 L1715.52,107.97 L1717.59,108.62 L1717.53,107.87 L1719.17,107.57 L1721.36,109.31 L1726.24,110.58 L1724.70,109.38 L1732.99,113.71 L1731.40,114.02 L1734.75,114.81 L1733.61,114.17 L1733.27,113.86 L1742.76,118.28 L1743.81,119.11 L1743.09,119.94 L1744.33,120.89 L1734.74,119.34 L1733.65,118.08 L1733.31,118.65 L1731.31,117.78 L1734.55,119.41 L1732.40,119.60 L1732.41,120.78 L1730.11,122.10 L1729.22,121.59 L1729.94,122.39 L1727.80,122.59 L1729.07,123.27 L1726.62,123.38 L1726.88,124.43 L1725.07,123.88 L1726.19,124.95 L1725.84,125.81 L1723.86,125.63 L1725.70,126.47 L1723.82,126.83 L1725.50,127.69 L1723.21,127.44 L1725.06,128.76 L1724.03,128.25 L1724.73,128.83 L1723.28,129.06 L1724.12,129.40 L1722.85,129.19 L1723.49,130.42 L1721.42,131.02 L1722.87,131.68 L1724.01,133.96 L1714.67,130.04 L1706.74,131.15 L1707.51,131.70 L1707.44,134.45 L1703.49,130.75 L1701.16,132.08 L1701.32,132.98 L1700.08,132.77 L1701.95,133.56 L1701.71,134.69 L1698.07,132.90 L1697.61,133.84 L1698.50,134.32 L1697.51,134.03 L1697.61,133.53 L1694.83,133.26 L1695.90,133.56 L1695.13,134.47 L1696.54,135.56 L1696.12,135.97 L1699.59,138.62 L1697.62,138.33 L1699.49,139.25 L1698.65,139.19 L1698.66,141.00 L1700.50,144.18 L1704.61,146.42 L1703.84,144.96 L1708.73,146.31 L1708.72,148.35 L1712.32,151.64 L1714.51,151.81 L1718.52,154.95 L1717.61,155.87 L1714.65,154.67 L1715.25,153.03 L1713.11,153.50 L1714.56,154.45 L1713.43,155.58 L1715.28,158.51 L1721.74,163.14 L1721.42,164.48 L1716.86,164.33 L1715.90,166.39 L1719.52,170.43 L1718.56,170.19 L1722.19,172.60 L1720.06,171.53 L1717.92,172.39 L1717.24,173.79 L1715.25,173.02 L1719.42,176.68 L1720.47,179.14 L1718.99,185.56 L1708.23,175.89 L1709.08,175.99 L1688.81,159.59 L1682.69,151.63 L1683.41,150.60 L1682.83,149.69 L1683.78,150.03 L1682.87,147.90 L1679.91,146.19 L1680.14,145.47 L1682.60,145.77 L1681.97,144.53 L1685.45,144.94 L1684.45,144.45 L1685.52,141.82 L1686.14,142.05 L1684.60,138.54 L1684.66,136.00 L1685.74,135.63 L1686.42,132.39 L1685.19,131.21 L1687.07,129.32 L1689.01,129.53 L1689.79,128.64 L1687.88,127.98 L1687.85,126.09 L1686.03,125.56 L1682.06,120.81 L1682.83,119.99 L1686.53,120.75 L1684.93,120.06 L1687.07,120.01 L1680.47,118.76 L1676.89,119.38 L1680.37,123.61 L1682.80,124.38 L1682.45,125.16 L1678.86,124.29 L1679.07,125.95 L1678.27,125.63 L1678.91,126.15 L1678.32,125.95 L1677.67,128.55 L1678.34,129.55 L1676.61,129.37 L1676.68,130.32 L1674.78,127.79 L1672.74,128.37 L1672.45,127.41 L1670.61,126.66 L1671.26,126.43 L1670.28,125.47 L1670.70,124.95 L1668.37,122.81 L1667.08,124.41 L1663.42,122.97 L1656.38,124.42 L1655.75,125.16 L1657.74,126.91 L1656.48,128.42 L1657.75,129.63 L1655.79,131.48 L1656.45,133.81 L1655.38,133.17 L1656.81,134.18 L1655.79,134.24 L1658.25,135.87 L1657.06,135.38 L1657.99,136.53 L1661.29,136.31 L1664.27,138.09 L1660.77,137.87 L1661.07,138.46 L1660.09,138.78 L1656.01,137.73 L1656.80,138.57 L1655.56,138.74 L1656.05,139.61 L1652.79,138.74 L1652.43,139.77 L1649.81,140.01 L1647.03,138.44 L1651.72,137.92 L1645.33,135.71 L1643.51,135.96 L1643.73,136.67 L1635.66,134.78 L1635.01,135.50 L1636.78,136.46 L1634.76,136.45 L1637.00,137.77 L1632.88,136.80 L1631.00,137.75 L1624.94,136.51 L1626.06,137.89 L1625.15,138.30 L1623.12,136.75 L1614.28,136.72 L1611.34,136.95 L1608.93,138.38 L1608.86,141.21 L1607.14,143.15 L1608.43,145.54 L1607.14,146.28 L1607.33,147.58 L1605.05,150.53 L1605.80,151.52 L1604.95,151.21 L1604.87,152.65 L1606.14,153.56 L1605.11,153.93 L1604.97,156.28 L1602.68,158.45 L1602.75,159.85 L1601.00,161.35 L1600.87,162.69 L1604.71,164.13 L1609.13,163.69 L1613.30,168.71 L1614.77,168.26 L1612.73,166.57 L1614.87,165.56 L1614.94,166.92 L1613.97,166.72 L1617.23,167.59 L1617.03,169.30 L1616.16,169.70 L1617.04,170.11 L1620.01,169.29 L1620.29,167.41 L1621.17,170.28 L1622.11,170.20 L1621.08,167.31 L1619.07,165.70 L1622.57,166.31 L1624.08,165.66 L1636.59,171.41 L1637.50,172.31 L1637.21,173.24 L1634.40,172.52 L1638.21,174.02 L1639.76,176.50 L1643.00,178.01 L1642.36,178.34 L1643.57,179.39 L1642.71,181.14 L1643.73,182.60 L1643.16,182.95 L1645.73,187.51 L1648.97,190.14 L1648.63,191.35 L1650.66,193.10 L1651.57,196.39 L1652.50,196.52 L1653.79,199.64 L1652.37,203.61 L1653.00,215.41 L1651.27,218.99 L1650.90,223.13 L1649.84,223.93 L1650.15,227.50 L1649.18,227.82 L1649.71,229.07 L1646.21,232.76 L1643.19,233.93 L1640.47,232.61 L1638.60,232.41 L1638.51,232.99 L1637.01,230.28 L1635.84,231.65 L1635.53,230.18 L1634.31,230.05 L1633.69,232.39 L1634.26,234.73 L1631.13,234.07 L1632.67,234.89 L1632.67,236.28 L1629.67,233.88 L1632.41,232.60 L1631.56,229.79 L1624.47,221.08 L1626.42,220.37 L1627.00,218.13 L1633.29,219.97 L1633.86,219.40 L1632.74,217.20 L1633.65,216.40 L1632.66,213.35 L1633.22,212.66 L1630.32,206.33 L1631.50,205.48 L1631.55,204.07 L1629.32,202.31 L1629.02,200.81 L1626.97,200.11 L1624.47,200.88 L1624.10,201.80 L1622.03,201.73 L1620.70,202.65 L1620.97,204.09 L1613.64,204.11 L1607.94,198.73 L1607.58,197.23 L1605.32,197.17 L1599.74,194.00 L1598.34,194.43 L1595.19,192.89 L1591.50,193.04 L1589.19,191.84 L1587.69,189.39 L1585.98,188.69 L1574.65,178.20 L1570.05,175.56 L1569.65,174.46 L1566.24,172.81 L1563.08,171.94 L1562.63,172.54 L1554.91,169.92 L1543.77,171.55 L1542.19,174.55 L1543.13,175.54 L1546.27,175.81 L1548.56,179.07 L1547.13,180.93 L1547.81,188.32 L1549.03,188.62 L1549.81,190.07 L1547.23,190.88 L1545.33,193.46 L1535.75,190.53 L1532.36,191.25 L1525.80,188.99 L1523.49,190.49 L1521.65,193.53 L1515.44,194.33 L1513.41,195.67 L1502.52,194.55 L1498.49,192.54 L1497.66,191.00 L1493.91,190.58 L1490.30,188.70 L1483.63,187.82 L1479.18,189.74 L1475.09,189.45 L1469.35,187.31 L1465.50,182.59 L1454.31,180.41 L1448.47,178.20 L1448.41,180.00 L1447.15,180.59 L1447.46,182.00 L1446.69,182.11 L1447.14,184.76 L1450.97,187.58 L1451.59,188.95 L1451.43,190.48 L1449.53,191.10 L1449.07,192.17 L1442.27,190.62 L1440.04,191.27 L1435.46,190.50 L1432.20,187.35 L1426.74,187.11 L1422.47,185.54 L1422.09,186.58 L1420.21,186.61 L1419.35,187.91 L1417.59,188.12 L1416.70,189.35 L1412.84,191.04 L1413.60,192.25 L1412.46,193.06 L1410.24,193.32 L1410.54,193.92 L1407.37,193.81 L1407.62,194.89 Z M1098.80,165.36 L1084.89,164.90 L1084.56,164.78 L1085.70,163.58 L1085.82,161.87 L1088.07,161.81 L1089.81,160.06 L1088.30,161.87 L1090.85,162.24 L1091.81,160.02 L1095.02,161.48 L1097.37,161.34 L1098.74,162.63 L1098.80,165.36 Z M1156.64,213.45 L1157.39,212.99 L1161.84,214.35 L1166.30,218.36 L1167.81,217.33 L1171.78,218.05 L1170.90,218.52 L1171.13,219.73 L1168.37,220.18 L1166.61,219.46 L1164.90,221.36 L1163.15,221.26 L1160.56,223.56 L1158.75,223.71 L1156.91,222.66 L1157.82,222.39 L1157.18,219.44 L1151.86,217.70 L1154.78,215.47 L1157.20,215.02 L1156.64,213.45 Z M266.18,105.98 L296.95,85.54 L298.66,85.63 L298.23,86.41 L299.60,86.72 L299.73,87.54 L298.50,87.79 L300.15,88.44 L298.70,89.25 L300.82,88.81 L299.88,87.72 L301.24,89.08 L299.92,89.58 L301.47,89.33 L301.11,89.87 L302.67,90.54 L301.88,91.13 L303.23,91.10 L302.74,90.57 L303.97,91.36 L301.25,92.43 L302.56,92.82 L302.65,92.00 L304.05,91.56 L305.06,92.36 L302.35,93.92 L304.43,93.28 L304.35,94.20 L298.63,97.53 L299.76,98.24 L297.75,99.56 L301.10,98.59 L299.15,99.88 L302.04,98.72 L300.70,98.06 L304.64,95.99 L303.08,95.46 L307.32,95.18 L309.07,95.55 L308.33,95.51 L306.47,96.71 L308.67,95.82 L311.05,96.13 L309.37,95.58 L313.74,96.04 L313.10,97.48 L314.35,99.37 L312.79,99.80 L314.61,99.50 L313.58,100.05 L315.72,100.35 L309.96,101.82 L308.31,103.12 L306.46,101.92 L305.96,102.85 L306.63,103.19 L305.48,103.85 L301.51,103.81 L302.87,103.68 L301.12,103.44 L301.90,102.80 L299.85,102.62 L300.87,103.24 L299.77,104.04 L301.34,103.76 L299.18,105.04 L297.07,105.08 L298.94,105.18 L298.39,105.93 L291.70,107.59 L293.44,107.38 L291.00,108.67 L293.03,108.69 L292.92,109.50 L291.14,109.69 L290.86,109.03 L288.08,110.39 L287.34,110.15 L288.94,109.29 L289.59,108.38 L286.59,109.90 L285.73,109.47 L286.32,108.11 L285.35,107.80 L286.63,106.88 L282.60,107.55 L283.34,107.15 L282.46,106.34 L285.14,103.93 L282.56,103.10 L279.51,103.99 L275.53,103.82 L277.52,102.55 L276.83,102.46 L277.88,100.77 L278.78,100.97 L282.46,99.02 L279.56,100.15 L278.71,100.20 L279.96,98.85 L277.52,100.27 L276.05,100.06 L272.94,101.98 L273.45,102.99 L272.76,103.51 L266.18,105.98 Z M1675.27,72.69 L1679.84,75.39 L1679.77,75.79 L1676.82,76.33 L1674.13,75.10 L1673.65,74.18 L1675.27,72.69 Z M313.42,75.40 L319.41,72.44 L324.08,72.67 L325.35,73.90 L321.68,75.15 L313.42,75.40 Z M1635.51,231.70 L1635.79,232.29 L1635.19,231.80 L1635.51,231.70 Z M1635.37,165.66 L1637.15,165.88 L1636.71,164.96 L1639.62,166.72 L1640.19,168.14 L1647.65,173.91 L1649.26,177.00 L1653.79,181.73 L1654.38,181.81 L1653.84,181.02 L1674.44,198.57 L1668.41,194.99 L1664.05,194.17 L1666.31,194.63 L1664.11,195.75 L1667.34,203.01 L1675.41,210.00 L1676.45,210.07 L1674.96,209.21 L1676.55,209.45 L1678.96,211.97 L1679.50,214.04 L1677.19,211.03 L1673.06,209.78 L1672.34,210.45 L1673.64,214.77 L1670.10,211.52 L1665.39,202.56 L1660.46,198.03 L1657.71,192.60 L1653.03,187.39 L1651.40,184.11 L1644.75,179.62 L1640.39,173.05 L1637.88,171.02 L1639.21,170.11 L1640.94,170.97 L1641.22,170.11 L1639.70,169.37 L1640.79,169.47 L1640.10,168.41 L1640.03,169.15 L1639.14,167.70 L1635.37,165.66 Z M1117.99,129.95 L1117.95,130.31 L1117.83,130.03 L1117.99,129.95 Z M295.02,107.25 L296.16,107.66 L293.27,108.02 L295.02,107.25 Z M1276.73,98.11 L1275.93,98.52 L1272.02,96.85 L1275.95,97.31 L1276.73,98.11 Z M1196.64,88.00 L1197.95,88.07 L1195.44,88.63 L1196.64,88.00 Z M1211.47,85.89 L1212.25,85.75 L1212.57,85.89 L1211.47,85.89 Z M1208.80,85.63 L1209.20,85.46 L1209.24,85.61 L1208.80,85.63 Z M1621.82,84.21 L1624.92,85.95 L1619.33,83.01 L1619.83,82.67 L1621.82,84.21 Z M1620.13,82.30 L1621.45,83.23 L1619.54,82.20 L1620.13,82.30 Z M1258.79,63.49 L1259.13,64.13 L1258.65,63.83 L1258.79,63.49 Z M1189.81,71.36 L1189.86,69.95 L1192.74,70.03 L1192.38,68.98 L1193.92,68.70 L1192.89,68.00 L1194.15,67.46 L1192.76,67.27 L1194.46,67.22 L1191.11,66.83 L1194.44,66.05 L1193.36,65.70 L1194.12,65.46 L1192.92,65.02 L1193.35,64.44 L1196.42,64.19 L1198.74,63.45 L1200.34,63.87 L1204.81,64.40 L1205.63,64.88 L1202.95,65.19 L1205.21,65.48 L1202.52,65.69 L1204.84,65.65 L1205.13,66.36 L1202.44,66.46 L1204.54,67.13 L1203.24,66.99 L1203.66,67.74 L1202.24,67.52 L1203.54,68.08 L1202.04,68.19 L1204.42,69.42 L1203.82,70.75 L1208.89,74.07 L1216.11,76.70 L1215.29,76.64 L1215.73,77.32 L1212.76,76.84 L1215.24,77.53 L1210.67,76.67 L1212.75,77.45 L1212.31,77.63 L1207.55,76.60 L1208.05,77.08 L1207.13,77.59 L1203.97,76.23 L1205.38,77.11 L1200.31,76.33 L1199.25,76.02 L1200.84,76.12 L1199.45,74.89 L1202.19,74.74 L1198.84,74.04 L1200.23,73.06 L1198.58,73.80 L1197.61,73.09 L1198.11,72.65 L1196.37,73.40 L1194.51,72.20 L1194.40,72.99 L1193.57,72.44 L1193.88,72.99 L1192.28,73.09 L1189.81,71.36 Z M1464.77,63.00 L1465.67,62.88 L1467.37,63.13 L1466.30,63.13 L1464.77,63.00 Z M1313.97,62.41 L1315.13,62.57 L1313.77,62.64 L1313.97,62.41 Z M1339.42,51.08 L1341.12,50.75 L1339.35,51.13 L1339.42,51.08 Z M1332.58,50.18 L1333.24,50.46 L1332.49,50.40 L1332.58,50.18 Z M1331.52,50.25 L1331.89,50.36 L1330.21,50.24 L1331.52,50.25 Z M1336.53,49.67 L1337.67,49.62 L1337.88,49.67 L1336.53,49.67 Z M1338.08,49.58 L1339.36,50.12 L1338.57,50.38 L1338.08,49.58 Z M1326.47,48.37 L1328.15,48.56 L1326.35,48.50 L1326.47,48.37 Z M1330.06,47.90 L1331.04,48.25 L1329.34,48.20 L1330.06,47.90 Z M1202.63,57.39 L1198.14,56.87 L1200.75,56.17 L1197.00,55.18 L1199.55,55.60 L1200.71,54.04 L1203.41,54.37 L1202.02,53.57 L1205.96,51.84 L1210.54,51.20 L1209.30,50.97 L1209.91,50.71 L1212.89,50.83 L1212.21,49.93 L1222.73,49.77 L1228.66,48.76 L1227.24,48.02 L1230.43,46.85 L1235.67,46.77 L1238.86,48.60 L1237.65,49.92 L1222.91,52.57 L1217.41,54.15 L1217.15,54.87 L1216.07,54.37 L1215.06,55.79 L1212.26,55.90 L1215.26,56.28 L1213.70,56.61 L1214.33,57.11 L1211.40,56.87 L1212.95,57.88 L1210.08,57.16 L1211.19,58.56 L1207.29,57.91 L1210.29,59.54 L1208.76,59.63 L1209.81,59.97 L1208.49,59.97 L1208.84,60.75 L1205.66,59.80 L1208.27,61.09 L1208.23,62.00 L1206.59,61.43 L1203.39,61.22 L1207.91,62.28 L1207.26,62.83 L1204.64,62.22 L1207.18,63.30 L1205.60,63.76 L1205.85,64.33 L1202.29,63.34 L1202.85,63.91 L1198.55,63.34 L1196.48,63.92 L1195.56,63.70 L1196.70,63.20 L1195.84,63.07 L1199.46,62.04 L1195.86,62.61 L1193.05,61.84 L1196.75,60.83 L1195.84,60.60 L1196.98,59.86 L1200.25,60.18 L1196.93,59.41 L1199.28,59.35 L1197.55,58.56 L1200.67,58.37 L1197.46,57.56 L1202.63,57.39 Z M1318.16,41.47 L1317.28,41.43 L1317.02,41.29 L1317.60,41.23 L1318.16,41.47 Z M1307.25,37.21 L1309.08,37.37 L1309.38,37.44 L1307.25,37.21 Z M1307.71,35.90 L1308.01,36.14 L1307.13,35.99 L1307.71,35.90 Z M1304.44,35.99 L1306.67,35.93 L1306.17,36.14 L1304.44,35.99 Z M1301.69,35.49 L1303.44,35.86 L1300.38,35.38 L1301.69,35.49 Z M1330.74,34.81 L1331.64,34.95 L1330.32,34.87 L1330.74,34.81 Z M1309.44,33.41 L1308.98,33.72 L1308.66,33.53 L1309.44,33.41 Z M1702.57,228.97 L1703.24,228.89 L1703.34,229.17 L1702.57,228.97 Z M1704.79,226.82 L1704.69,227.81 L1703.91,227.23 L1704.79,226.82 Z M1698.69,223.08 L1701.21,223.87 L1699.72,224.57 L1698.85,227.00 L1699.49,228.16 L1698.04,227.07 L1698.69,223.08 Z M1706.87,217.01 L1708.12,218.15 L1706.02,218.81 L1705.37,220.35 L1704.00,220.17 L1703.69,222.63 L1702.51,223.44 L1702.12,222.37 L1702.67,222.72 L1702.25,222.14 L1702.99,221.84 L1702.09,221.16 L1702.73,221.33 L1702.92,219.62 L1704.18,218.80 L1703.53,217.60 L1704.90,218.64 L1706.87,217.01 Z M1711.55,212.94 L1712.58,212.82 L1712.13,214.61 L1709.99,216.65 L1709.94,215.06 L1711.55,212.94 Z M1715.23,209.17 L1716.69,207.43 L1716.05,209.65 L1715.23,209.17 Z M1716.21,206.00 L1716.89,206.21 L1717.06,206.50 L1716.21,206.00 Z M1717.10,203.54 L1717.59,203.88 L1717.61,204.15 L1717.33,204.16 L1717.10,203.54 Z M1716.49,201.62 L1717.21,202.17 L1716.28,201.65 L1716.49,201.62 Z M1717.05,197.07 L1717.66,197.35 L1717.33,198.05 L1717.05,197.07 Z M1715.75,196.58 L1716.33,196.86 L1715.69,196.58 L1715.75,196.58 Z M1717.47,195.47 L1718.27,195.82 L1717.28,195.50 L1717.47,195.47 Z M1713.92,191.91 L1714.45,191.88 L1714.51,192.19 L1713.92,191.91 Z M1716.57,186.09 L1718.53,189.13 L1717.35,189.81 L1717.58,190.64 L1715.16,188.89 L1716.86,188.25 L1716.57,186.09 Z M1717.97,185.51 L1718.77,186.14 L1718.99,186.93 L1717.34,186.31 L1717.97,185.51 Z M1714.65,185.87 L1713.50,185.63 L1713.17,185.23 L1714.65,185.87 Z M1636.56,165.69 L1636.69,165.60 L1636.78,165.62 L1636.56,165.69 Z M1614.42,165.15 L1614.95,164.68 L1614.88,165.25 L1614.42,165.15 Z M1613.09,164.13 L1613.69,164.87 L1614.04,165.10 L1613.55,165.03 L1613.09,164.13 Z M1746.78,163.03 L1750.08,164.51 L1744.82,162.44 L1746.78,163.03 Z M1608.27,160.99 L1608.80,162.05 L1607.12,162.20 L1607.18,161.57 L1608.27,160.99 Z M1609.63,160.65 L1613.34,161.46 L1613.25,163.82 L1610.90,162.36 L1610.26,162.94 L1609.63,160.65 Z M1736.62,159.78 L1742.51,163.50 L1734.58,159.98 L1736.62,159.78 Z M1645.14,138.29 L1645.57,139.04 L1644.98,139.05 L1645.14,138.29 Z M1704.13,137.74 L1706.90,139.83 L1704.65,140.80 L1704.70,142.18 L1703.70,141.59 L1702.96,139.11 L1702.04,139.04 L1704.13,137.74 Z M1664.72,137.29 L1664.85,137.18 L1665.12,137.29 L1664.72,137.29 Z M1123.45,133.39 L1123.82,133.65 L1123.21,133.37 L1123.45,133.39 Z M1115.36,133.34 L1115.41,133.61 L1115.32,133.52 L1115.36,133.34 Z M1111.63,132.96 L1111.81,133.42 L1111.57,132.96 L1111.63,132.96 Z M1118.24,131.58 L1118.51,132.02 L1118.07,131.59 L1118.24,131.58 Z M1117.81,131.51 L1117.95,131.79 L1117.57,131.49 L1117.81,131.51 Z M1143.15,109.52 L1143.91,109.68 L1143.97,109.84 L1143.15,109.52 Z M1141.71,105.45 L1141.85,106.54 L1140.67,105.56 L1141.71,105.45 Z M315.59,102.20 L316.27,102.01 L315.50,102.33 L315.59,102.20 Z M1165.99,96.95 L1166.84,97.53 L1165.72,97.08 L1165.99,96.95 Z M1125.04,95.06 L1125.25,95.26 L1124.99,95.13 L1125.04,95.06 Z M1225.84,84.15 L1226.49,84.71 L1224.11,83.72 L1225.84,84.15 Z M1128.11,83.57 L1128.98,83.37 L1129.81,83.65 L1128.11,83.57 Z M1191.87,84.68 L1189.52,86.29 L1186.06,86.83 L1184.26,85.98 L1183.74,84.14 L1185.23,82.94 L1187.00,82.86 L1191.87,84.68 Z M1648.67,81.13 L1649.78,82.52 L1642.18,80.97 L1642.79,80.25 L1648.67,81.13 Z M1229.68,81.29 L1226.20,81.81 L1220.31,79.06 L1222.01,79.28 L1220.44,78.70 L1222.06,77.96 L1229.68,81.29 Z M1214.41,77.58 L1215.04,77.80 L1213.40,77.32 L1214.41,77.58 Z M1614.91,77.05 L1615.57,76.99 L1615.90,77.08 L1614.91,77.05 Z M1611.56,76.29 L1612.17,76.60 L1610.71,76.16 L1611.56,76.29 Z M1607.07,75.78 L1608.23,76.33 L1606.02,75.71 L1607.07,75.78 Z M1198.13,74.28 L1197.90,75.51 L1194.00,73.70 L1195.80,73.34 L1198.13,74.28 Z M1516.46,72.58 L1516.61,73.26 L1513.25,72.78 L1513.72,72.49 L1516.46,72.58 Z M1285.18,67.29 L1288.64,67.99 L1287.01,68.90 L1283.47,68.75 L1285.18,67.29 Z M1474.69,67.09 L1476.40,67.49 L1472.90,67.29 L1474.69,67.09 Z M1472.59,66.43 L1474.34,65.84 L1476.67,66.42 L1476.21,66.67 L1472.59,66.43 Z M1291.92,66.64 L1289.60,66.77 L1287.96,66.18 L1289.18,65.02 L1291.92,66.64 Z M1270.68,65.38 L1273.22,65.06 L1273.78,65.22 L1272.75,65.13 L1273.45,66.17 L1270.68,65.38 Z M1441.07,65.02 L1439.41,65.35 L1438.53,64.89 L1439.73,64.70 L1441.07,65.02 Z M1277.71,64.46 L1279.99,64.81 L1277.55,64.50 L1277.71,64.46 Z M1261.01,64.41 L1261.96,65.31 L1260.10,64.64 L1255.22,65.39 L1254.11,63.58 L1257.33,63.01 L1258.77,63.36 L1258.34,64.23 L1261.01,64.41 Z M1276.68,62.83 L1279.00,63.43 L1276.13,62.97 L1276.68,62.83 Z M1276.03,62.80 L1275.71,63.23 L1273.72,63.48 L1276.03,62.80 Z M1515.73,61.09 L1526.22,64.50 L1510.89,63.49 L1513.10,63.16 L1512.62,61.25 L1515.73,61.09 Z M1451.68,60.93 L1452.36,61.30 L1450.92,61.05 L1451.68,60.93 Z M1304.61,60.49 L1304.90,60.83 L1302.75,60.60 L1304.61,60.49 Z M1299.60,59.94 L1301.50,60.30 L1298.53,60.24 L1299.60,59.94 Z M1297.34,59.91 L1298.23,60.20 L1296.59,60.08 L1297.34,59.91 Z M1492.39,60.19 L1494.47,61.27 L1488.92,59.45 L1492.39,60.19 Z M1510.60,59.97 L1511.38,60.76 L1509.91,61.13 L1506.90,59.63 L1510.60,59.97 Z M1417.90,58.88 L1418.66,59.29 L1417.64,58.97 L1417.90,58.88 Z M1304.23,58.27 L1303.25,58.50 L1304.21,58.79 L1302.69,58.50 L1304.23,58.27 Z M1408.01,58.56 L1408.50,59.51 L1407.78,60.26 L1401.56,59.04 L1403.16,58.91 L1402.69,58.05 L1408.01,58.56 Z M1305.25,57.94 L1306.96,58.24 L1305.10,58.12 L1305.25,57.94 Z M1307.31,57.94 L1309.05,58.24 L1307.24,58.43 L1307.31,57.94 Z M1283.21,57.54 L1284.68,58.22 L1283.07,57.78 L1283.75,57.86 L1283.21,57.54 Z M1306.26,57.20 L1303.95,57.08 L1305.13,56.80 L1306.26,57.20 Z M1307.31,56.38 L1310.44,56.40 L1309.05,56.42 L1310.24,56.78 L1307.31,56.38 Z M1291.32,55.18 L1291.84,55.47 L1291.25,55.31 L1291.32,55.18 Z M1290.05,53.47 L1290.99,55.09 L1288.32,54.21 L1290.05,53.47 Z M1538.09,55.15 L1539.45,56.43 L1531.36,56.85 L1520.86,54.95 L1518.85,53.17 L1522.03,54.19 L1527.36,53.94 L1529.71,54.90 L1538.09,55.15 Z M1485.77,53.24 L1485.12,53.09 L1485.07,53.05 L1485.77,53.24 Z M1485.07,53.05 L1485.23,52.89 L1485.36,52.85 L1485.07,53.05 Z M1478.61,51.84 L1482.96,53.95 L1481.35,54.15 L1478.61,51.84 Z M1286.27,51.52 L1288.78,51.80 L1286.04,51.55 L1286.27,51.52 Z M1292.04,51.43 L1290.74,51.61 L1288.35,51.36 L1289.65,51.23 L1292.04,51.43 Z M1515.55,53.38 L1514.12,53.89 L1516.11,54.63 L1515.77,55.67 L1514.62,55.80 L1509.70,55.23 L1506.56,54.15 L1505.82,52.59 L1503.32,52.51 L1504.04,52.79 L1502.62,52.80 L1507.67,54.96 L1514.20,56.22 L1510.84,56.79 L1507.07,55.93 L1501.94,56.74 L1499.31,56.01 L1500.34,57.40 L1499.38,57.55 L1487.32,54.63 L1486.50,54.21 L1488.45,54.18 L1487.16,53.99 L1486.28,53.09 L1484.56,52.51 L1486.79,52.40 L1484.16,51.44 L1485.97,50.50 L1486.87,50.93 L1486.30,50.36 L1487.72,50.12 L1499.39,52.95 L1496.07,51.06 L1498.57,51.17 L1496.13,50.37 L1515.55,53.38 Z M1337.81,49.99 L1338.22,50.50 L1337.09,49.96 L1336.73,50.27 L1337.61,50.74 L1333.45,50.29 L1333.05,49.90 L1334.17,50.12 L1334.68,49.82 L1337.81,49.99 Z M1396.49,49.51 L1395.28,49.48 L1395.25,49.22 L1396.49,49.51 Z M1389.80,48.44 L1391.67,48.34 L1393.04,49.16 L1392.49,49.12 L1389.80,48.44 Z M1333.99,47.93 L1334.57,48.37 L1333.12,48.22 L1333.99,47.93 Z M1331.17,47.97 L1332.72,48.09 L1331.86,48.23 L1331.17,47.97 Z M1338.23,47.92 L1339.34,48.51 L1337.80,48.03 L1338.23,47.92 Z M1518.33,47.83 L1520.52,48.29 L1517.57,48.19 L1518.33,47.83 Z M1332.37,45.68 L1332.51,46.66 L1328.93,46.59 L1329.32,46.37 L1332.37,45.68 Z M1364.55,45.46 L1364.40,45.24 L1364.87,45.31 L1364.55,45.46 Z M1306.74,45.22 L1308.99,45.87 L1306.54,45.48 L1306.74,45.22 Z M1365.79,45.16 L1365.99,45.12 L1366.22,45.16 L1365.79,45.16 Z M1369.24,44.98 L1370.92,45.39 L1369.19,45.25 L1369.24,44.98 Z M1367.08,44.54 L1366.51,44.90 L1365.88,44.63 L1367.08,44.54 Z M1364.03,41.28 L1365.25,41.89 L1361.16,41.54 L1364.03,41.28 Z M1361.51,40.95 L1359.98,41.27 L1359.14,40.95 L1360.15,40.61 L1361.51,40.95 Z M1355.11,39.56 L1354.44,40.64 L1338.05,42.30 L1337.24,41.94 L1338.22,40.61 L1337.05,38.83 L1339.65,38.79 L1337.64,37.63 L1339.86,37.86 L1339.91,37.82 L1337.11,37.20 L1337.83,36.22 L1340.54,36.74 L1339.42,36.03 L1341.91,36.15 L1343.20,36.45 L1342.58,36.80 L1343.41,38.53 L1343.88,37.52 L1345.59,37.04 L1355.11,39.56 Z M1256.47,35.56 L1253.59,35.74 L1253.03,35.44 L1251.45,35.36 L1250.70,35.03 L1256.47,35.56 Z M1298.09,33.32 L1308.73,34.16 L1305.94,34.92 L1303.56,34.90 L1304.72,34.67 L1298.09,33.32 Z M1165.72,33.15 L1167.88,33.85 L1162.91,33.68 L1165.72,33.15 Z M1118.52,33.00 L1118.00,32.86 L1118.72,32.95 L1118.52,33.00 Z M1329.44,36.51 L1334.40,38.00 L1333.34,38.53 L1326.71,38.55 L1316.52,37.48 L1310.50,35.21 L1309.20,35.90 L1307.31,35.41 L1312.08,34.33 L1310.09,33.99 L1311.43,33.14 L1319.80,32.86 L1322.09,33.34 L1322.02,34.49 L1321.12,34.81 L1324.02,34.07 L1323.63,33.33 L1329.80,34.30 L1331.47,36.44 L1329.44,36.51 Z M1163.29,32.83 L1162.11,33.29 L1160.69,32.92 L1163.29,32.83 Z M1181.76,31.05 L1178.54,30.69 L1183.62,30.87 L1181.76,31.05 Z M1150.32,31.43 L1144.08,31.07 L1152.26,30.13 L1156.87,31.07 L1153.18,30.47 L1150.32,31.43 Z M1200.48,30.30 L1200.79,31.06 L1198.00,31.93 L1193.27,31.82 L1191.17,30.93 L1192.12,30.20 L1200.48,30.30 Z M1188.62,30.53 L1186.06,30.31 L1189.99,30.26 L1188.62,30.53 Z M1180.08,30.34 L1176.69,30.66 L1173.45,30.24 L1180.08,30.34 Z M1166.22,30.64 L1157.78,31.99 L1157.33,32.37 L1159.18,32.87 L1157.04,33.20 L1150.69,32.37 L1155.62,32.24 L1152.79,31.73 L1158.57,31.46 L1159.65,30.66 L1157.28,30.45 L1160.89,29.83 L1161.64,29.93 L1160.29,30.09 L1163.76,30.15 L1161.82,30.68 L1166.22,30.64 Z M1255.20,30.11 L1259.60,29.80 L1259.71,30.01 L1255.20,30.11 Z M1188.05,29.39 L1187.43,29.78 L1185.36,29.33 L1185.93,29.13 L1188.05,29.39 Z M1187.21,29.85 L1182.40,29.50 L1179.54,29.15 L1187.21,29.85 Z M1183.95,30.78 L1174.33,29.37 L1185.79,30.42 L1183.95,30.78 Z M1161.09,29.48 L1160.79,29.08 L1162.82,29.15 L1161.09,29.48 Z M1294.85,28.97 L1294.16,29.34 L1289.37,28.89 L1289.75,28.73 L1294.85,28.97 Z M1307.92,28.44 L1318.12,30.75 L1315.63,30.88 L1318.14,32.62 L1309.89,33.04 L1308.00,33.59 L1301.05,32.39 L1304.70,32.31 L1298.64,32.15 L1302.25,31.98 L1299.45,31.70 L1302.07,31.48 L1301.57,30.94 L1302.28,30.36 L1299.86,30.45 L1301.20,29.84 L1300.56,29.58 L1307.53,28.71 L1305.83,28.51 L1307.92,28.44 Z M1184.20,28.10 L1180.54,27.81 L1186.60,27.97 L1184.20,28.10 Z M1201.88,27.30 L1197.18,26.95 L1202.73,27.03 L1201.88,27.30 Z M1188.06,26.68 L1183.34,26.49 L1188.13,26.44 L1188.06,26.68 Z M1712.67,211.36 L1712.58,211.48 L1712.59,211.31 L1712.67,211.36 Z M1716.71,192.66 L1718.18,194.40 L1718.06,194.91 L1717.01,194.27 L1716.71,192.66 Z M1205.09,51.61 L1206.82,51.39 L1205.00,51.68 L1205.09,51.61 Z M1194.08,33.90 L1191.72,33.42 L1195.67,33.59 L1194.08,33.90 Z M1181.34,33.15 L1182.15,32.75 L1181.53,32.20 L1183.82,32.07 L1186.02,33.18 L1181.34,33.15 Z M1173.77,32.87 L1169.14,32.45 L1174.73,32.47 L1173.77,32.87 Z M1187.27,33.03 L1184.24,31.62 L1192.41,32.23 L1189.52,32.27 L1188.67,32.50 L1190.16,32.84 L1187.27,33.03 Z M1175.66,31.86 L1173.76,31.10 L1176.06,31.62 L1175.66,31.86 Z M1192.68,29.58 L1194.28,29.20 L1197.79,29.15 L1196.07,29.87 L1192.68,29.58 Z M1201.35,30.22 L1207.23,28.77 L1210.69,29.86 L1203.91,30.81 L1201.35,30.22 Z M1182.26,28.92 L1184.92,28.61 L1185.65,28.73 L1182.26,28.92 Z M1180.98,28.87 L1176.80,28.31 L1184.81,28.41 L1180.98,28.87 Z M1188.58,28.45 L1186.48,28.22 L1189.51,28.28 L1188.58,28.45 Z M1195.97,27.24 L1197.60,27.31 L1197.85,27.39 L1195.97,27.24 Z M1161.49,108.40 L1160.59,108.60 L1159.88,108.19 L1158.90,108.04 L1160.33,107.89 L1160.92,108.28 L1161.49,108.40 Z M1159.30,107.71 L1159.45,107.78 L1159.30,107.78 L1159.30,107.71 Z M1160.11,107.75 L1159.62,107.61 L1160.82,107.55 L1161.32,108.31 L1160.11,107.75 Z M1142.45,106.05 L1142.81,106.19 L1142.32,106.12 L1142.45,106.05 Z M1142.34,105.44 L1143.65,105.51 L1142.90,105.67 L1142.34,105.44 Z M1209.30,88.90 L1209.52,89.25 L1209.04,89.24 L1209.30,88.90 Z M1207.64,89.00 L1208.04,88.80 L1208.03,89.07 L1207.64,89.00 Z M1187.00,87.00 L1188.27,87.18 L1186.82,87.00 L1187.00,87.00 Z M1189.69,86.39 L1189.79,86.43 L1189.44,86.51 L1189.69,86.39 Z M1207.70,86.40 L1208.46,86.52 L1208.56,86.56 L1207.70,86.40 Z M1190.26,86.06 L1190.55,85.93 L1190.26,86.08 L1190.26,86.06 Z M1210.20,85.77 L1210.59,85.78 L1210.67,85.88 L1210.20,85.77 Z M1191.11,85.80 L1191.45,85.64 L1191.35,85.74 L1191.11,85.80 Z M1256.59,83.31 L1256.92,83.27 L1256.29,83.59 L1255.46,83.12 L1256.59,83.31 Z M1256.02,82.54 L1256.70,83.21 L1255.67,83.02 L1256.02,82.54 Z M1251.01,77.72 L1252.32,78.45 L1251.86,78.34 L1250.98,77.99 L1251.01,77.72 Z M1250.64,77.63 L1249.76,77.20 L1249.36,76.36 L1249.67,76.53 L1250.64,77.63 Z M1249.38,75.33 L1249.58,76.21 L1249.30,76.22 L1249.38,75.33 Z M1197.81,73.59 L1198.59,73.96 L1197.52,73.59 L1197.81,73.59 Z M1536.75,50.31 L1537.63,50.81 L1536.20,50.52 L1536.75,50.31 Z M1541.97,46.05 L1542.59,46.22 L1541.80,46.07 L1541.97,46.05 Z M1314.17,43.71 L1314.91,43.86 L1313.98,43.78 L1314.17,43.71 Z M1191.36,33.66 L1192.47,33.98 L1190.29,33.82 L1191.36,33.66 Z M1195.45,32.81 L1196.09,32.99 L1194.95,32.86 L1195.45,32.81 Z M1176.47,32.41 L1175.93,32.80 L1175.47,32.40 L1175.85,32.31 L1176.47,32.41 Z M1179.97,32.28 L1179.37,32.64 L1178.27,32.51 L1179.26,32.22 L1179.97,32.28 Z M1178.42,32.04 L1178.76,31.79 L1178.97,31.98 L1178.42,32.04 Z M1176.61,31.64 L1177.34,31.97 L1176.10,32.00 L1176.61,31.64 Z M1178.06,31.61 L1176.55,31.54 L1176.49,31.50 L1178.06,31.61 Z M1188.95,28.74 L1191.24,28.90 L1188.67,28.79 L1188.95,28.74 Z M1191.68,28.36 L1193.20,28.62 L1191.12,28.43 L1191.68,28.36 Z M1185.83,27.33 L1185.08,27.26 L1186.40,27.21 L1185.83,27.33 Z M1638.89,232.68 L1639.47,233.26 L1638.99,233.07 L1638.89,232.68 Z M1226.34,226.11 L1226.90,226.52 L1226.20,226.31 L1226.34,226.11 Z M1225.85,217.04 L1225.40,216.75 L1225.48,216.27 L1225.85,217.04 Z M1620.30,164.07 L1620.29,163.97 L1620.29,163.89 L1620.30,164.07 Z M1614.99,163.38 L1615.06,163.30 L1615.13,163.31 L1614.99,163.38 Z M1637.80,138.13 L1638.04,137.92 L1638.15,138.17 L1637.80,138.13 Z M293.60,108.24 L293.06,108.50 L292.47,108.33 L292.78,108.19 L293.60,108.24 Z M1258.47,86.37 L1259.28,86.69 L1258.08,86.45 L1258.47,86.37 Z M333.24,73.46 L332.96,73.61 L332.76,73.31 L333.24,73.46 Z M1620.29,82.21 L1621.65,82.53 L1621.67,82.63 L1620.29,82.21 Z M1651.57,81.75 L1652.45,81.52 L1652.44,81.95 L1651.57,81.75 Z M1313.55,76.33 L1314.44,76.66 L1314.76,78.46 L1314.32,78.53 L1313.55,76.33 Z M1338.59,47.65 L1338.26,47.91 L1337.02,47.74 L1338.59,47.65 Z M1305.85,46.06 L1307.22,46.66 L1305.64,46.25 L1305.85,46.06 Z"/>
</svg>
