<svg xmlns="http://www.w3.org/2000/svg" viewBox="0 0 2000 1000" role="img" aria-labelledby="title desc">
<title>Suecia</title>
<desc>Generated world map layer for Modo Turistagem.</desc>
<style>
  path {
    fill: #ff6b00;
    stroke: #ffffff;
    stroke-width: 1;
    vector-effect: non-scaling-stroke;
  }
</style>
<path d="M1076.75,85.26 L1082.93,88.13 L1085.89,88.55 L1089.70,90.84 L1089.27,93.25 L1090.66,93.59 L1090.20,94.98 L1092.25,96.80 L1091.39,99.37 L1093.91,101.97 L1090.01,101.95 L1089.76,102.59 L1087.74,101.52 L1087.93,102.31 L1086.10,102.29 L1087.10,103.45 L1084.34,102.47 L1086.28,103.42 L1083.54,104.24 L1084.22,105.05 L1082.98,104.35 L1082.72,104.47 L1084.23,105.96 L1082.21,107.22 L1084.88,109.26 L1082.54,110.88 L1081.65,112.81 L1077.89,114.74 L1076.79,114.04 L1077.20,114.83 L1076.24,114.55 L1075.47,116.11 L1074.16,115.67 L1074.87,115.93 L1072.25,117.08 L1073.43,117.12 L1073.67,117.30 L1072.23,118.28 L1071.12,118.07 L1070.55,117.08 L1069.99,117.11 L1071.82,119.27 L1070.45,120.13 L1068.85,119.86 L1070.38,121.25 L1069.30,122.86 L1070.16,124.51 L1069.40,124.05 L1068.59,124.01 L1069.13,124.65 L1068.34,124.80 L1069.46,126.27 L1068.70,126.23 L1070.10,129.28 L1069.52,129.69 L1071.71,130.73 L1072.94,130.26 L1078.13,134.09 L1077.31,133.90 L1076.78,134.80 L1078.25,134.90 L1075.01,136.42 L1075.23,136.86 L1073.94,136.80 L1074.37,137.25 L1074.91,137.29 L1075.96,136.66 L1076.73,137.23 L1075.21,137.28 L1075.92,138.27 L1074.22,138.82 L1073.83,139.85 L1072.61,138.13 L1072.53,139.85 L1071.60,140.46 L1066.58,141.12 L1069.97,141.92 L1067.70,141.99 L1069.47,142.86 L1069.50,143.94 L1068.76,143.53 L1069.63,145.30 L1068.27,145.22 L1069.45,146.07 L1068.10,145.26 L1069.51,146.34 L1068.71,146.77 L1069.55,147.64 L1068.72,148.75 L1069.04,151.56 L1066.74,155.48 L1065.49,154.79 L1061.71,155.02 L1061.98,155.80 L1059.71,156.75 L1060.47,158.56 L1059.72,159.44 L1053.73,159.49 L1054.56,157.71 L1051.60,154.24 L1053.23,154.63 L1052.29,153.59 L1053.61,152.87 L1050.88,150.74 L1049.33,147.72 L1048.68,148.08 L1048.62,146.34 L1047.39,145.57 L1047.81,145.22 L1048.15,142.80 L1047.48,142.84 L1046.56,143.31 L1047.19,142.30 L1046.66,142.07 L1046.59,142.79 L1046.07,143.19 L1046.11,142.19 L1045.28,142.73 L1044.52,139.33 L1045.37,138.52 L1046.03,139.65 L1046.93,139.52 L1047.41,137.68 L1046.66,135.69 L1047.56,135.10 L1047.28,134.22 L1049.88,133.06 L1050.23,131.20 L1048.44,127.98 L1050.32,127.74 L1050.94,126.07 L1047.69,124.02 L1048.05,120.95 L1046.20,115.51 L1048.98,111.73 L1053.93,111.63 L1054.59,110.77 L1054.20,109.19 L1052.28,108.55 L1055.38,104.64 L1054.98,100.37 L1058.66,99.58 L1058.29,98.45 L1061.84,95.51 L1060.44,93.58 L1062.68,91.12 L1064.64,90.04 L1067.10,90.73 L1067.97,89.56 L1067.60,87.86 L1068.63,87.63 L1074.83,88.78 L1075.79,88.13 L1074.62,87.80 L1075.92,86.45 L1074.74,85.34 L1076.75,85.26 Z M1071.55,148.50 L1069.73,154.01 L1069.21,154.73 L1068.94,152.65 L1071.55,148.50 Z M1079.53,145.41 L1078.51,146.77 L1079.38,148.09 L1076.27,150.75 L1076.82,149.78 L1075.78,147.21 L1077.92,145.16 L1079.53,145.41 Z M1080.46,144.80 L1079.93,145.53 L1079.49,145.20 L1079.70,144.80 L1080.46,144.80 Z M1047.65,144.34 L1047.32,144.92 L1046.78,144.93 L1046.65,144.41 L1047.65,144.34 Z M1047.32,143.04 L1047.50,144.12 L1046.18,143.94 L1047.32,143.04 Z M1079.92,142.46 L1080.08,142.75 L1079.77,142.46 L1079.92,142.46 Z M1076.40,137.82 L1075.46,137.41 L1076.64,137.64 L1076.40,137.82 Z M1075.27,131.49 L1074.91,131.47 L1074.71,130.71 L1075.27,131.49 Z M1082.50,113.00 L1082.43,112.77 L1082.68,112.90 L1082.50,113.00 Z M1075.75,138.64 L1075.97,139.01 L1075.66,138.93 L1075.75,138.64 Z M1077.02,137.91 L1077.27,137.93 L1076.91,138.09 L1077.02,137.91 Z M1077.24,137.43 L1077.35,137.67 L1077.11,137.61 L1077.24,137.43 Z M1076.89,137.41 L1076.67,137.02 L1077.15,137.29 L1076.89,137.41 Z M1074.66,137.18 L1074.44,136.91 L1075.00,137.03 L1074.66,137.18 Z M1077.54,136.87 L1077.64,136.88 L1077.59,136.92 L1077.54,136.87 Z M1077.86,136.81 L1077.95,137.00 L1077.77,136.84 L1077.86,136.81 Z M1077.73,136.59 L1077.74,136.81 L1077.58,136.71 L1077.73,136.59 Z M1076.97,136.07 L1076.28,136.72 L1076.04,136.38 L1076.97,136.07 Z M1077.74,135.46 L1077.65,135.83 L1077.48,135.82 L1077.74,135.46 Z M1077.68,135.42 L1077.31,135.82 L1077.03,135.89 L1077.68,135.42 Z M1077.67,134.27 L1077.79,134.70 L1077.41,134.66 L1077.67,134.27 Z M1076.45,132.65 L1076.38,132.32 L1076.80,132.63 L1076.45,132.65 Z M1065.91,155.27 L1066.06,155.55 L1065.80,155.38 L1065.91,155.27 Z M1069.63,142.97 L1069.85,143.10 L1069.75,143.15 L1069.63,142.97 Z M1069.68,142.43 L1069.59,142.83 L1069.39,142.49 L1069.68,142.43 Z M1075.21,139.38 L1075.61,139.48 L1075.09,139.57 L1075.21,139.38 Z M1074.62,138.95 L1074.84,139.25 L1074.44,139.29 L1074.62,138.95 Z M1072.81,138.79 L1072.91,139.63 L1072.65,138.68 L1072.81,138.79 Z M1072.11,118.45 L1071.60,118.79 L1071.56,118.46 L1072.11,118.45 Z M1082.53,113.42 L1082.52,113.56 L1082.40,113.60 L1082.53,113.42 Z M1082.54,113.07 L1082.79,112.89 L1082.53,113.39 L1082.54,113.07 Z M1086.78,103.91 L1087.09,104.04 L1086.72,104.04 L1086.78,103.91 Z M1086.39,104.07 L1086.23,103.81 L1086.52,104.11 L1086.39,104.07 Z M1087.72,103.47 L1087.97,103.61 L1087.71,103.52 L1087.72,103.47 Z M1086.96,103.70 L1086.22,103.48 L1086.77,103.55 L1086.96,103.70 Z M1087.57,103.27 L1087.94,103.18 L1088.01,103.20 L1087.57,103.27 Z M1087.79,103.18 L1087.69,103.08 L1087.85,103.15 L1087.79,103.18 Z M1089.02,102.40 L1089.26,102.79 L1088.85,102.42 L1089.02,102.40 Z M1092.07,102.50 L1092.49,102.52 L1092.32,102.64 L1092.07,102.50 Z M1088.57,102.54 L1088.21,102.46 L1088.26,102.25 L1088.57,102.54 Z"/>
</svg>
