<svg xmlns="http://www.w3.org/2000/svg" viewBox="0 0 2000 1000" role="img" aria-labelledby="title desc">
<title>Uruguai</title>
<desc>Generated world map layer for Modo Turistagem.</desc>
<style>
  path {
    fill: #ff6b00;
    stroke: #ffffff;
    stroke-width: 1;
    vector-effect: non-scaling-stroke;
  }
</style>
<path d="M701.22,674.69 L703.15,675.31 L703.84,674.18 L705.10,674.15 L709.95,678.37 L710.23,680.09 L712.15,678.67 L714.31,681.07 L717.78,682.37 L722.68,685.97 L724.07,688.36 L726.57,689.92 L724.92,692.73 L725.40,695.62 L726.31,696.18 L725.87,698.04 L723.42,701.78 L722.87,701.89 L722.87,701.31 L722.38,701.14 L722.66,702.02 L719.66,703.63 L715.72,702.37 L713.59,703.44 L708.00,700.47 L704.48,700.59 L701.17,697.39 L700.39,692.62 L701.48,692.27 L701.74,691.16 L699.86,685.00 L700.54,684.41 L700.07,682.47 L700.89,678.79 L700.10,676.87 L701.22,674.69 Z"/>
</svg>
